<svg xmlns="http://www.w3.org/2000/svg" width="1800" height="1912" version="1.0" viewBox="0 0 1350 1434"><path d="M0 717v717h1350V0H0zM643.4 11.6c1.9 1.9 2 4 .2 11.9-6.5 28.5-8.5 38.9-8.1 40.8.3 1.2.1 2.8-.4 3.6-1 1.5-11.4 3.5-23.6 4.6-16.6 1.4-43.1 6.1-61.5 10.9-3 .8-8.6 2.2-12.5 3.1-46.6 11.2-91.8 29.8-132.3 54.4-5.1 3.1-10.7 6.5-12.5 7.5-11.1 6.6-42 27.8-51.1 35-7.4 5.9-11.7 8.6-13.5 8.6-3.7 0-11.3-5.4-23.3-16.6-5.6-5.3-11.6-10.6-13.1-11.8-4.1-3-6.1-7.1-4.7-9.6.6-1.1 5.7-5.6 11.3-10s12.9-10.2 16.2-12.9c15-11.9 37.7-27.6 55.9-38.5 24-14.3 80.9-41 94-44 1.5-.4 4.7-1.6 7-2.6 2.2-1.1 6.4-2.6 9.1-3.4 2.8-.8 7.9-2.4 11.5-3.6 11.6-3.8 18.4-5.8 24-7 3-.7 7.3-1.8 9.5-2.5s6.7-1.8 10-2.5 7.8-1.8 10-2.5c2.2-.8 6.3-1.7 9-2 2.8-.4 9.1-1.6 14.1-2.6 9.8-2.1 33.9-5.3 51.9-7 6.1-.5 13-1.4 15.5-1.8 2.5-.5 4.8-.9 5.2-1 .4 0 1.4.6 2.2 1.5m71.1.3c6.1.6 14.4 1.8 18.5 2.6s11.8 1.9 17 2.5c11.5 1.4 28.5 4.4 40 7.2 20.1 4.8 24 5.8 33 8.1 14.3 3.8 44.7 14.4 65.5 22.9 17.6 7.2 56.1 27.3 71.5 37.3 3.6 2.3 10.9 6.8 16.3 9.8 23.1 13.4 67.5 45.9 70 51.4.8 1.7.6 2.8-.8 5-2.6 4-13.3 15-25.7 26.4-12 11-14.5 12-18.9 7.3-4.9-5.3-18.7-16.4-29.9-24.1-6.3-4.4-15.8-10.9-21-14.5-27.6-19-68.9-39.8-104-52.5-42.1-15.2-66.8-21.6-102-26.3-8.5-1.1-19.4-2.7-24.1-3.5-4.8-.8-10.1-1.5-11.8-1.5-4.8 0-9.7-2.4-10.4-5.1-.3-1.3-1.5-8.9-2.7-16.9s-3-18-4.1-22.4c-2.2-9.1-2.4-14.2-.6-15 1.3-.6 7.7-.3 24.2 1.3M668 43.5c0 2.3 3.8 21.4 4.5 22.5.2.3 1.5 5.5 2.9 11.6 5.4 22.8 11.4 44.4 13 46.9 2.4 3.6 4.7 4.3 19.8 5.4 12.9 1 17.6 1.7 30.3 4.6 3.3.8 13.2 2.8 22 4.5 24.9 4.9 34.6 7.7 66 19.4 48.7 18.1 111.8 55.4 136.1 80.5l6.1 6.2 3.8-1.5c2.1-.9 7.6-4.9 12.2-8.9 4.6-3.9 10.7-8.9 13.4-10.9 5.1-3.7 20.5-12 24.7-13.3 6.4-1.9 2.4 8.1-12.7 31.8-11.8 18.6-14.5 24.5-13 28.6.5 1.2 3.3 5.1 6.2 8.5 5.5 6.3 12.7 15.6 25.9 33.1 7.4 9.9 25.8 37 25.8 38 0 .3 2.5 4.9 5.6 10.2 14.7 25.5 30.1 59.4 38.5 84.8 12.9 38.9 19.9 74.5 21.5 108.8.5 12.2.9 14.9 2.3 15.6.9.5 5.2 1.1 9.6 1.5 9 .7 37 5.8 44.9 8.1 2.8.9 10.2 2.7 16.5 4.1 12.1 2.7 18.4 5.1 17.8 6.8-.2.6-3.5 1.8-7.3 2.7-21.3 5.1-35.4 8-47.9 9.9-19.1 2.9-32.4 5.7-34.1 7.1-1 .8-1.4 3.5-1.4 9.1 0 7.9-.3 10.3-4.2 35.8-3.3 21.8-11.7 54.7-20.9 82.1-6 18.1-23 54.6-32.6 70.2-3.1 5.1-7.8 12.9-10.4 17.4s-6.6 10.8-8.8 14c-2.3 3.2-6.4 9.2-9.3 13.3-6.8 9.8-24 30.5-33.6 40.2-6.3 6.4-7.4 8-6.8 10.1.3 1.3 5.3 9.6 11 18.3 10.4 15.9 24.6 41.7 24.6 44.8 0 4-5 1.4-18-9.2-17.1-13.9-20.2-16.3-28-21-7-4.3-13.3-6.7-15.4-5.9-1.2.5-17.2 12.5-26.5 19.9-8.6 6.9-38.7 26.6-49.8 32.7-6.2 3.4-13.4 7.4-16.1 9-16.4 9.7-53.2 24.9-80.7 33.5-29.5 9.2-45.9 13-68.5 16.1-31.2 4.2-37.4 5.6-38.9 8.3-.8 1.6-3.6 11.5-12.1 44-5 19-8.4 29.5-9.7 29.9-1.6.6-3.2-4.3-5.8-18-1.3-7.3-4-19.3-6.1-26.7-2-7.4-4.7-17.5-5.9-22.3-1.3-4.9-3.1-9.7-4-10.7-1.8-2-2.5-2.1-25.5-4-15.9-1.4-38.6-5-53.7-8.5-19-4.5-55.6-17-80.8-27.7-16.9-7.2-21.7-9.7-41-21.3-15.2-9.1-22.9-14-40.1-25.1-5.5-3.5-18.4-13.6-27.4-21.4-6.6-5.6-9-7-12.5-7-2.6 0-19.7 9.6-29.7 16.7-10.6 7.5-30.1 20.3-30.9 20.3-3.7 0 0-8.5 11.4-25.8 12.9-19.6 23.7-38.8 23.7-41.9 0-.6-2.1-3.1-4.7-5.5-13-11.8-28.4-29.1-39.7-44.7-16.8-23.1-40.5-67.5-54.7-102-14.4-35.1-24.7-80.3-27-118.6-.7-11.1-1.5-18.4-2.2-19.1-3-2.9-47-11.4-74.2-14.4-11.6-1.3-15.5-2.3-15.5-3.9 0-2.1 4.6-3.4 40.5-11.7 12.6-2.9 26.4-5.4 36.8-6.6 5.9-.6 11.2-1.7 11.6-2.2.5-.6 1.3-8.3 1.9-17.1 1.2-17.8 6.5-52.9 11.2-74.1 4.2-19.2 20-65.2 28.9-83.9 12.2-25.6 22.7-44.4 32.5-58.2 2.8-3.9 7.7-11.1 10.9-16 3.1-4.8 7.8-11.3 10.3-14.3s7.3-8.9 10.7-13 9.9-11.4 14.5-16.2l8.3-8.6-2.2-4.9c-2.2-5-10.4-19.4-19.5-34.6-7.7-12.9-8.3-18.2-1.6-15.9 1.6.6 8.8 4.8 15.8 9.4 24.8 16.2 30.5 19.1 34.5 18.1 1-.3 5.3-3.5 9.5-7.2 14.4-12.3 19.9-16.4 42.9-31.5 51.4-33.8 120-58.8 196.5-71.6 6.3-1.1 15.5-2.7 20.5-3.5 4.9-.8 9.5-2.1 10.3-2.9 1.9-1.8 6.6-22.2 13.3-56.6 2.9-15.1 5.7-28.1 6.3-28.8.8-1.1 1.2-1.1 2.3.4.7 1 1.3 2.7 1.3 3.9M267 186.2c2.3 2.4 6.9 9 10.3 14.7 3.3 5.7 8.9 13.8 12.4 17.9 3.5 4 6.3 8 6.3 8.8s-1 2.2-2.2 3.2c-18.7 15.1-54.2 62.1-79.1 104.7-10.2 17.5-27.6 53.2-33 68-6.3 17-14 40.9-17.7 55-1.7 6.6-3.6 13.1-4.1 14.5-.9 2.6-5.8 27.1-8.3 42-.8 4.7-2.2 15.2-3.1 23.5-.9 8.2-1.8 16-2.1 17.2-.6 3.1-4.1 4.6-15.9 7.3-14.3 3.2-23.1 5.5-30.4 7.9-8 2.6-11.1 2.7-11.2.3-.5-9.5 1-32.3 3.2-46.1.5-3.5 1.9-13.6 3-22.5 1-8.8 2.6-19 3.4-22.6s1.9-9 2.4-12c2-12.7 12.5-50.3 18.3-65.5 1.7-4.4 3.9-10.3 4.9-13 1-2.8 3-8.2 4.5-12 1.4-3.9 5.3-12.9 8.6-20 3.3-7.2 6.5-14.4 7.3-16 2.5-5.7 8.8-18 10.5-20.5.9-1.4 3.4-5.9 5.5-10s4.6-8.6 5.5-10c1-1.4 3.8-5.7 6.2-9.5 2.5-3.9 7.5-11.7 11.2-17.5s7.9-12.1 9.4-14.1c1.5-2.1 5.8-7.9 9.5-13 6.8-9.4 8.9-12.1 19.2-25.4 9.3-11.9 36.7-39.5 39.2-39.5 1.3 0 4 1.8 6.3 4.2m812.4.4c5.7 4.8 37.1 44.2 52.5 65.9 15.7 22 22.6 32.8 34.3 53.5 1.1 1.9 2.4 3.9 2.8 4.5 4.5 5.7 27.1 52.3 33.2 68.5 2.2 5.8 5.1 13.4 6.5 17 9 23.5 17 50 19.8 65.5.8 4.4 2.3 12 3.4 17 1.1 4.9 2.7 12.8 3.5 17.5 3 17.5 5.8 32.7 7.2 39.5.8 3.8 1.4 9.2 1.4 12 0 2.7.5 8.1 1 11.9 1.4 9.5.5 10.5-8.2 8.8-3.5-.6-9.4-2-13.3-3.2-3.8-1.1-13.3-3.4-21-5-7.7-1.7-14.9-3.4-16.1-3.9-1.8-.8-2.2-2.1-2.8-9.3-1.3-16.8-4.6-36.3-11.6-70.3-7.1-34.7-24.3-84.5-38-110-2.1-3.9-5.9-11.1-8.5-16-11.7-22-27.2-46.6-41.8-66.5-12.6-17-15.9-21.3-29.4-37.2-7.3-8.7-13.3-16.6-13.3-17.7s1-3.2 2.3-4.8c2.5-3 9.9-13.9 16.2-23.8 2.1-3.3 5.6-8.4 7.7-11.3 4.5-6.1 7.2-6.7 12.2-2.6m164.1 425.1c1.9 1.9 1.6 9.5-.9 21.3-.8 3.6-1.9 11.4-2.6 17.5-.6 6-1.8 13.5-2.5 16.5-.8 3-2.1 10.3-2.9 16.2s-1.7 11.1-2 11.6-1.2 4.4-2.1 8.8c-6 29.9-20.9 77.5-32 101.9-2 4.4-4.1 9.2-4.6 10.6-1.6 4.3-21.5 43.4-23.6 46.5-1.1 1.6-3.7 5.8-5.8 9.4s-6.8 11-10.5 16.5-9.3 14.3-12.5 19.5c-6.7 10.9-30.8 43.1-39.9 53.5-3.4 3.8-8.2 9.5-10.7 12.5-12.8 16-14.5 17.4-18.8 15-2.6-1.3-8.8-9.9-17-23.5-3.9-6.6-8.7-14.2-10.6-16.9-1.9-2.6-3.5-5.2-3.5-5.6s5-7 11.1-14.6c6.1-7.7 13.2-17.2 15.7-21.2 2.6-4 6.8-10.1 9.4-13.5s6-8 7.5-10.2 6.2-8.6 10.5-14.2c4.3-5.7 8.5-11.7 9.4-13.5 2.4-4.8 10.4-17.7 13.4-21.8 1.4-1.9 4.9-8 7.7-13.5 2.9-5.5 7.2-13.5 9.6-17.8 4.7-8.1 10.4-21.5 18-42.2 6.3-17.1 8-22.5 13.7-45.5 2.8-11.3 5.7-22.5 6.4-25 4.9-15.9 10.6-47.7 10.6-59.5 0-10.3.4-10.5 26-14.5 3.6-.6 11.5-2.1 17.5-3.4 13.7-3 14-3 16-.9M104 614.4c13.4 2.6 25.4 4.5 32.2 5.2 4.3.4 7.2 1.3 8.1 2.3.8.9 2.2 6.5 3.1 12.6 2.3 14.8 5.2 30.1 7.6 39.9 1.1 4.5 3.1 13.7 4.5 20.6 4.1 20.1 17.6 62.7 27.1 85.1 5.8 13.8 18.3 39.5 23 47.4 19.9 32.9 42.5 66.5 54.4 80.5 2.5 3 7.9 9.8 12 15 4 5.2 9.1 11.4 11.2 13.7 5.3 5.9 5.1 8.8-1.3 18.3-2.8 4.1-7.2 11.8-9.8 17-7.1 14.3-9.7 18-12.5 18-1.3 0-4.6-1.7-7.3-3.9-5.1-4-24.1-24-25.7-26.9-.5-.9-2.3-3.3-4.1-5.2-3.6-3.8-25.2-31.7-34.8-45-19.3-26.6-50.5-84.3-61.9-114.5-1.6-4.4-3.7-9.8-4.5-12-8-20.6-14.5-41.6-19.7-64.5-1.4-5.8-3-12.5-3.6-15-3.8-15-6-25.5-7-32.5-.5-4.4-1.7-11.6-2.4-16-2.8-15.9-3.6-22.7-3.6-32V613h3.7c2.1 0 7.1.6 11.3 1.4m908.2 369.2c4.6 4.2 12.8 11.2 18.3 15.5 16.4 13 18.5 14.9 18.5 17 0 2.8-4.6 6.8-26.5 23.3-36.4 27.3-49.3 35.6-90 57.7-30 16.2-60.9 29.3-94.5 39.9-9.1 2.8-19.9 6.2-24 7.5-22.1 7-55.7 13.4-99.5 18.9-29.2 3.7-28.1 4-26.1-7.9.7-4.4 2.5-12.3 3.9-17.5s3.3-14.9 4.2-21.5 2.1-12.5 2.6-13.1 5.1-1.4 10.2-1.8c58.9-4.4 114-19.4 171.7-46.7 14.6-7 16.3-7.8 28-14.1 8.8-4.8 14.2-8 29.5-17.8 20.7-13.1 25.9-17 55.8-41.4 3.8-3.1 7.5-5.6 8.3-5.6.7 0 5.1 3.4 9.6 7.6m-665.9 5.7c26.8 21 64.1 45.3 85.7 55.9 22 10.8 40.3 19.1 52.5 24 20.2 8.1 54 18.6 72.5 22.6 24.2 5.2 27.7 5.8 52.5 8.2 11.6 1.1 21.8 2.3 22.7 2.6 1 .3 2.2 2.2 2.8 4.7.6 2.3 2.1 8.2 3.5 13.2 5 19 7.3 39.7 4.5 41.6-.8.5-4.4.7-8 .4-77.3-6.8-126.4-18.7-194.7-47.3-7.5-3.2-44.2-21.9-55.3-28.2-38.2-21.8-92.6-60.1-96.4-67.9-.7-1.5-1.1-3.3-.9-4.2.4-1.6 13.6-13.1 30.1-26.2 4-3.2 8.2-6.7 9.3-7.8 1-1 2.8-1.9 3.9-1.9s8 4.7 15.3 10.3m749.2 78.2c8.6 4.2 15 13.8 16.7 25.5.9 5.7.8 7.2-1.2 12.2-2.5 6.7-10.4 15.9-16 18.8-11.9 6.1-27.9 3.6-36-5.6-11.1-12.7-12.2-29.8-2.6-41.2 2.8-3.2 13.1-9.6 18.4-11.3 4.3-1.4 16.2-.5 20.7 1.6m-414.8 181.1c13.5 3.1 32.7 14.2 40.6 23.4 7.3 8.6 16 30.7 13.7 35-1 1.9-2.1 2-18.4 2-12.7 0-17.6-.3-18.4-1.3-.5-.6-1.5-3.7-2.1-6.7-2.6-12.3-12.3-19.9-26.5-20.8-19-1.2-35.6 7-42.6 20.9-4.5 8.8-6.5 22.1-5.1 32.7 2.9 20.8 13 34.8 28.7 39.7 4.5 1.4 7.7 1.7 15.3 1.2 12.2-.7 17.4-2.6 23.4-8.5 3.9-3.8 5.2-6 6.9-11.7 1.1-3.9 2.6-7.5 3.2-8.2.8-.9 5.3-1 17.6-.5l16.5.7.3 2.4c.2 1.4-.4 5.4-1.4 9-3.9 14.9-11.7 26.6-23.6 35.6-8.5 6.4-14.9 9.2-26.5 11.7-8.3 1.7-12.2 1.9-24.8 1.4-8.2-.3-17.2-1.2-20-1.9-25.4-7.1-40.8-23.2-49.8-52.1-3-9.6-3.2-11-3.2-26.1 0-14.4.3-17 2.8-25.9 3.3-12.1 6.5-18.1 13.1-25 12.8-13.1 30.2-22.8 48.6-27.1 8-1.8 23.6-1.8 31.7.1m452.5 1.9c18.1 3.9 31.2 10.9 43.5 23.3 21.3 21.6 26.3 60.2 11.6 90.2-4.1 8.3-6 10.8-14.7 19.5-11.2 11.1-16.8 14.5-31.1 19.1-8.6 2.8-9.8 2.9-27.5 2.9-16.3-.1-19.4-.3-26.5-2.4-19.7-5.7-31.6-16.4-42.8-38.7-6.8-13.4-8.2-20-8.2-37.4 0-18.3.9-22.1 9.3-38.5 11.5-22.6 26.1-32.4 59.7-39.8 5.4-1.2 16.4-.5 26.7 1.8m-352.5 2c1 .3 1.3 8 1.5 31.7.3 30.7.3 31.3 2.4 31.6 2.7.4 15.7-12.3 25.3-24.8 4-5.2 11.2-13.7 15.9-18.8s10-11.6 11.6-14.3c1.7-2.7 3.9-5.2 4.9-5.5 1.1-.3 10.8-.6 21.6-.7 17.4 0 19.6.2 19.9 1.6.3 1.6-3.7 5.9-21.2 22.6-4.3 4.1-10.2 10.4-13.2 14s-9.3 10.9-14 16.1c-11.2 12.4-11.1 12.2-8 17.3 6.1 10.3 43.2 59.1 53.1 69.8 5.3 5.6 6.4 8.7 4 10.5-2 1.5-37.1 1.9-40.8.5-1.1-.4-2.9-2.3-4.1-4.3-3.3-5.6-10.9-16.6-17-24.8-6.6-8.9-15-23.8-16.7-29.8-2.1-7.1-3.3-7.3-9-.9-2.7 3-7.2 7.2-9.9 9.2l-5 3.7v23.3c0 15.5-.4 23.6-1.1 24-2 1.3-31.9.9-33.2-.4-.9-.9-1.2-18.5-1.1-75.9 0-41.1.3-75.2.6-75.8.6-.9 30.5-.9 33.5.1m152.8 6.7c2.2 3.5 7.1 10.8 10.8 16.1 11.4 16.1 31.1 47.3 39.2 61.9 4.2 7.6 8.1 14.1 8.7 14.4.6.4 1.7-.1 2.5-1.1 1-1.5 1.3-11.2 1.3-49.7V1253l2.3-.4c1.2-.3 8.2-.4 15.5-.3l13.3.2.2 76 .2 76h-18.9c-11.1 0-19.4-.4-20.1-1-.6-.6-3.1-4.4-5.5-8.5s-7.3-12-10.9-17.5c-7.8-11.7-17.3-27.3-22.3-36.5-4.9-8.9-8-14.5-11.8-21.5-3.2-5.9-8.5-13.3-10.4-14.7-.6-.4-1.4-.4-1.8-.2-.4.3-.8 22.2-.8 48.7 0 27.2-.4 48.8-.9 49.6-.8 1.2-3.8 1.4-15.8 1.2-8.1-.1-15.2-.6-15.6-1s-.8-34.5-.9-75.7l-.1-74.9 16.9-.5c9.3-.3 17.8-.2 18.9.1s3.8 3.5 6 7.1m-906-5.5c5.6 1.3 15.5 1.7 48.5 2.3 27.2.4 42.7 1.1 45 1.8 1.9.7 5.4 1.2 7.7 1.2 7 0 8.7 3.4 8.1 17l-.3 7.5h-22c-12.1 0-22.8.4-23.7.9-.9.4-2 1.5-2.5 2.4-.4.9-.8 24-.9 51.2 0 27.2-.1 50.3-.2 51.2-.4 3.6-3.9 5.8-9.2 5.8-5.9 0-9.3-1.5-13.6-6.2-7-7.4-6.8-6-7.6-51.8-.3-22.8-1-43.5-1.5-46-1.2-6.4-3.2-7.1-22.9-7.9-14.3-.6-16.6-.9-19.1-2.7-4.2-3.1-6.2-8-6.3-15.3 0-5.9.2-6.5 3.4-9.7 4-4 6.4-4.2 17.1-1.7m299.2.6c1.6 1.6 1.8 4.4 2.1 28.9.2 17.5.7 27.7 1.4 28.5 1.2 1.5 16.2 1.7 42.1.6 12.4-.5 16.2-1 17.4-2.2 1.4-1.3 1.5-5 1.1-28.8-.5-25-.4-27.5 1.2-28.3 2.6-1.4 31.2-.3 32.2 1.2.5.7.7 32.5.5 72.8-.4 75.8-.4 76.2-5.1 77.4-1.1.3-7.3.6-13.6.6-9.2 0-12-.3-13.9-1.7l-2.4-1.6.5-29.4.5-29.3-2.5-.7c-1.3-.3-14.1-.4-28.3-.1-21.8.4-26.2.8-28.4 2.2-2.5 1.6-2.5 1.8-2.6 15.9 0 21.7-1.4 41.3-2.9 43.1-1 1.3-3.8 1.6-15.4 1.6-9.8 0-14.7-.4-15.9-1.3-1.5-1.1-1.6-7.5-1.8-72.7-.3-72.9-.1-75.9 3.4-78.3.7-.4 7.4-.6 14.9-.5 11.6.3 14 .6 15.5 2.1m204.2-.1c.5 1.3 3.2 8.8 6.1 16.8s6.9 18.8 9 24c2.2 5.2 5.3 13.3 7.1 18 1.7 4.7 5 12.3 7.2 17s5 11.4 6.3 15c3.5 10 7.5 19.1 15.2 35 12 24.9 12 25 0 25-12.5-.1-27.7-1.5-28.9-2.7-.6-.6-2.9-6.4-5.1-12.9-2.1-6.6-4.6-12.9-5.4-14.2l-1.5-2.3-30.7.7c-18.7.4-31.2 1.1-32 1.7-1.4 1.1-2.1 2.7-8.4 18.2-2.2 5.5-4.6 10.3-5.2 10.7-1.3.9-26.9.8-31.1-.1-4-.8-4.2-3.4-.9-11.2 4.3-10.3 6.3-15.8 9.3-25.9 1.6-5.2 6-16.5 9.8-25 3.9-8.5 8.5-19.8 10.3-25 1.7-5.2 5.8-14.9 9-21.5s7.9-18.1 10.5-25.5c7-20 3.9-18 28-18 20.4 0 20.6 0 21.4 2.2m712.1 2.6c2.3 1.1 4.9 3.8 7.5 7.9 4.2 6.5 16.1 25.1 23.2 36.2 2.3 3.6 5.8 9.3 7.9 12.5 2.2 3.3 4.7 7.7 5.6 9.8 1 2.2 3.7 6.5 6.1 9.6s6.8 9 9.7 12.9c3 4 5.7 7.3 6.1 7.3 2.4 0 3.1-4.6 4.4-26.2.8-12.8 1.5-30.2 1.5-38.6 0-18.3 1-23.1 6-28.3 5-5.3 8.6-5.3 13.9 0 2.9 2.9 4.2 5.2 5 9 .7 3.4 1.1 22.7 1.1 56.4 0 54.1-.4 59.7-4.7 65.6-3.7 4.9-7.8 6.3-17.6 5.7-13.3-.7-13.6-1-27.7-22.6-6-9.3-11.3-18.4-20.1-34.9-1.4-2.6-5.8-8.6-9.8-13.2s-9-10.9-11.1-13.9c-4.6-6.7-6.7-8.7-8.1-7.3-.5.5-1.2 17-1.7 39.5l-.7 38.7-4 5.8c-6.1 8.8-13.7 11.5-21.5 7.5-6-3-6.3-4.9-6.8-47.2-.3-34.9.2-51.9 2.7-78.5 1.2-12 1.5-13 4.9-14.4 5.8-2.2 22.8-1.8 28.2.7m-994.5 2c16.9 6 25.3 13.6 29.6 26.8 4.2 12.8 3.1 23-3.6 32.9-3.3 4.8-4.9 6.2-14.2 11.9-6.2 3.8-5.7 5.6 3 10.8 10 5.9 10.6 7.5 12.4 29.7.9 10.4 2.3 20.2 3.4 23.9 2.1 6.9 2.3 8.8 1 9.6-.4.3-4.3-.1-8.6-.9-4.2-.8-11.2-1.5-15.4-1.5-4.7 0-8.4-.5-9.5-1.3-2.8-2-4.6-12-4.6-25.6v-12.3l-3.8-3.8c-4-4.1-7.4-5.3-18.7-7-9.3-1.3-36.2-1.3-37 0-.4.6-.7 10.2-.8 21.3-.2 17.5-.4 20.6-2 22.8-2.5 3.7-5.8 4.9-14 4.9-5.6 0-8.1-.5-11.2-2.3-7.2-4.1-6.9-1-7.6-72.2-.4-35.2-.3-65 .2-66.2.4-1.1 1.4-2.5 2.1-3 1.9-1.2 30-2 62.3-1.9l28 .2z"/><path d="M607.8 189c-22 2.6-44.6 8.7-82.8 22.3-19 6.8-49.8 21.7-64.5 31.2-2.7 1.8-11.1 7.2-18.5 12-14 9.1-28.8 20.8-35.3 27.9-3.3 3.6-3.7 4.6-3.4 8.1.3 2.2 2.1 6.7 4.1 10.1 4.9 8.2 5.4 11.9 2.4 16.4-2.6 3.8-8.4 6.6-12.1 5.6-1.3-.3-4.1-1.9-6.2-3.6-5-4-13.8-8.2-15.6-7.4-.8.3-3.2 2.8-5.4 5.5-2.2 2.6-7.9 9.5-12.6 15.1-13.2 15.8-30 41.7-45.8 70.8-22.6 41.3-37.6 88.7-42.5 134-2.7 24-3 32.6-1.5 33.6.8.5 6.4 1.2 12.4 1.5 20.3 1.1 75.5 12.7 75.5 15.8 0 1.2-3.2 3.7-6.5 4.9-7 2.7-23.7 7.4-32.5 9.2-14.2 2.8-16.5 3.1-33.5 3.9-16.5.8-18.1 1.3-17 5.6.3 1.1 1.2 9.4 2 18.5s2.1 20.1 2.9 24.6c1.7 9.3 10.5 43.9 13.6 53.2 8.4 25.3 25 61.4 38.3 83.3 3.5 5.7 7.9 12.9 9.7 15.9 5.4 8.9 16.1 23.5 27.7 38 14.1 17.7 14.8 17.8 30.7 4.6 3.4-2.8 7.5-6.4 9.2-8.1 8.3-8.2 23-18.5 26.5-18.5 1.6 0 6.1 3.8 8.1 6.8 3.4 5.1 2.4 8.5-5.9 20.6-4.2 6.1-9.7 13.6-12.3 16.6-5.9 6.9-9.7 12.7-10.5 16.2-.6 2.2.1 3.4 3.6 7.3 8.6 9.3 51.3 40.2 65.4 47.2 2.2 1.1 7.4 3.7 11.5 5.8 30.2 15.2 69.6 29.7 96.5 35.4 23.6 5 36.2 5.1 58 .5 9.8-2.1 15.8-2.7 24.5-2.8 10.8 0 12.2.2 22 3.8 14.2 5 21.5 5.5 39.5 2.6 16.9-2.7 23.2-4 35.5-7.4 20.5-5.8 41.6-13.2 55-19.3 8-3.7 40.9-20.3 46.5-23.5 20.3-11.6 64.5-44.4 64.5-47.7 0-2.9-10.9-19.6-21.6-32.9-10.9-13.7-13.7-18.2-12.8-20.6.8-2.2 9.3-7.6 11.9-7.6 2.9 0 9.7 4.4 19.2 12.7 14.4 12.4 27.1 21.6 29.9 21.6 1.7 0 3.8-1.3 5.9-3.4 3.1-3.2 26.4-36.5 34.7-49.6 2-3.2 5.8-8.5 8.5-11.8 2.6-3.3 6.6-10.1 8.8-15 2.1-5 6.2-12.8 8.9-17.5 12.1-20.7 21.6-44.5 28.6-72 5.1-20.2 10-47.1 11.1-60.5.5-7.2 1.4-14.3 1.9-15.9 1.8-5.2 1.5-5.6-4.7-5.6-9.7 0-56.7-8.4-75.8-13.5-2.7-.7-6.6-1.6-8.6-1.9-4.8-.8-7-3.3-4.6-5.1 1-.7 3.6-1.5 6-1.9 5.5-.9 33.2-7.5 36.3-8.7 7.7-2.9 25.3-5.3 44.9-6.3 6.8-.3 6.9-.5 6.1-13-2-34.5-8.1-65.3-20.1-100.9-8.9-26.4-30.2-67.5-50.2-96.7-11.9-17.4-35.2-44.7-39-45.6-1.8-.5-4 .4-9.1 3.9-7.7 5.3-11.2 6.8-14 6-4.2-1-5.4-10.8-2.7-21.8 2-8.4 1.9-10.4-1-14.5-4.8-6.9-23.3-21.9-46.5-37.5-15.2-10.2-53.1-29.7-72-37-29.1-11.2-41-15.1-58-18.8-21.3-4.7-50.5-6.2-56.7-2.8-3.8 2-5.8 7.5-9.8 27.1s-6.7 23-18.1 23c-5.7 0-6.4-.3-8.7-3-1.4-1.6-3-4.4-3.6-6.2-5.2-16.8-7.3-24.7-8-30.6-1.2-9.5-2.1-10.8-8.1-12.1-5.7-1.2-20-1.2-30.2-.1M714 280c29.1 1.5 53 4.2 76 8.4 32.4 5.9 50.2 10.4 71 18.1 7 2.6 18.5 9.2 25.1 14.5 26.6 21.4 34.5 54.9 40.9 173 3.4 62.9.6 112-9.5 164.3-3.7 19.1-12 44.3-21 63.2-2.6 5.5-6.4 13.6-8.5 18-4.6 9.9-25.3 44.6-37.1 62-24.1 35.6-71 84.1-107.9 111.3-12 8.9-24.2 14.7-38.5 18.3-14.4 3.6-20.8 3.6-21.3.1-.3-1.9 2.7-19 6.8-39.2 4.1-20.1 3.8-36-1-48.9-1.9-5.2-3-9.8-2.8-12 .3-3.4.7-3.8 8.8-7.8 11.3-5.7 25.5-11.6 36.5-15.3 9.9-3.3 18.7-8.6 18.3-11-.5-2.5-6.7-2.3-25 1-9.5 1.7-21.6 3.7-26.8 4.5-16.8 2.5-59 1.5-82-2-21.3-3.2-26.4-2.8-22.5 1.5 2.4 2.7 6.3 4.7 18.4 9.4 10.9 4.3 19.5 8.5 26.8 13.2 7 4.5 7.4 6.6 3.2 19.7-3 9.2-3.3 11.4-3.3 22.2.1 7.1.8 15.7 1.8 21 2.3 11.8 7.1 31.9 9.1 37.4 2.1 6.1 1.9 8.8-.6 9.6-2.7.9-11.8-.2-18.9-2.2-13.2-3.7-16-4.8-24.5-9-24.8-12.4-45.5-30.4-92.1-80.3-13.9-14.9-24.2-28.7-44.1-59-4.2-6.3-8.4-12.7-9.4-14.2-1.1-1.5-1.9-3-1.9-3.3s-1.6-2.9-3.6-5.8c-5.1-7.4-19.7-37.3-23.9-49.2-2-5.5-5-13.7-6.6-18.3-4-11.2-12.4-44.2-14.8-58.2-4.8-27.9-6.6-57.3-6.5-105.5.2-66.7 3.6-108.3 11.9-146.5.8-3.6 2.3-10.8 3.5-16 3.7-17.3 9.3-28 19.7-38.3 8.4-8.2 14.7-12.7 25.8-18.1 15.1-7.4 24.2-10.3 54-17 8.2-1.9 32.8-6.2 40-7.1 2.8-.3 10-1.2 16-2 43.8-5.8 88.3-7.2 140.5-4.5"/><path d="M528.3 375.1c-28.3 2.7-56.4 15.3-75.6 33.8-9.6 9.2-17.5 22.8-18.4 31.6-.5 4.7-.3 5.4 1.6 6.5 2 1 2.7.6 6.9-3.8 5-5.3 13.8-11.5 21.2-15 20-9.4 50.1-7.5 77.6 4.9 11.4 5 26.2 15.6 37 26.4 5.5 5.5 15 14.7 21 20.5 6.1 5.9 15.9 17 22.3 25.3 9 11.6 11.9 14.7 13.5 14.5 1.9-.3 2.1-1.1 2.4-9.7.3-8.8.1-9.9-2.8-15.7-1.6-3.3-6.1-10.3-10-15.5-3.8-5.1-7-10.1-7-11.1 0-.9 2.1-3.1 4.8-4.9 16.3-11 14.9-18.9-5.8-32.6-21.4-14.1-42.5-24.3-70.2-33.9-6-2-10.8-4-10.8-4.4 0-1.5 4.6-1.9 11.2-1 16.1 2.3 42.3 13.4 61.1 26 11.4 7.6 16.4 9.3 18.6 6.6 3.1-3.8-2.1-10.9-16.2-22.3-10.4-8.4-27.7-17.5-42.2-22.2-7.5-2.4-26.4-5.5-30.8-5-.7.1-4.9.5-9.4 1m262.2.6c-14.7 1.1-37.7 7.4-50 13.5-15.1 7.6-30 19.4-36 28.4-3.7 5.6-4.5 10.1-1.9 11.1 2.5.9 10.9-3.6 21.1-11.3 10.9-8.2 17.3-11.6 34.3-18.3 17.5-6.8 40.7-11.7 48-10.2l3.3.6-2.5 1.7c-1.4.9-5.4 2.2-8.9 2.8-12.9 2.3-30.3 8-44.9 14.8-5.2 2.4-13.3 6.1-18 8.1-24.9 11-40 24.1-40 34.8 0 3.5.6 5 3.6 8.2 1.9 2.2 5.2 4.5 7.2 5.2 3.8 1.2 7.2 3.6 7.2 5.1 0 .5-3.8 5.9-8.5 12-9.2 12.2-11.9 18.1-11.9 26.8-.1 7.3.9 10.6 3.8 12.6 3.6 2.3 5.8.6 10.5-8.1 11.2-20.8 36-50.5 53.6-64.2 17.3-13.5 36-22.5 55-26.4 8.8-1.8 29.5-1.5 38 .5 10.8 2.6 22.2 8.7 30.9 16.7 7.9 7.1 10.8 8.3 12.5 5 3.5-6.5-13-32.2-29.3-45.7-10.4-8.6-31-18.8-43.1-21.3-9.3-2-25.3-3.1-34-2.4"/><path d="M515.5 483.4c-15.3 3.1-28.8 10.3-41 21.7-12.7 11.9-18.5 13.3-31.2 7.4-7.8-3.6-8.9-.6-3.6 10 1.1 2.2 2.3 5.3 2.7 7 .4 1.6 1.3 3.3 1.9 3.7.7.4 4.9.8 9.5.8 12.6 0 21.6 1.8 33.8 6.6 16.9 6.6 25.6 8.5 42.5 9.1 22.8.8 43.7-3.4 64.6-13.2 14-6.6 17.2-9.6 17.3-16.6 0-5.4-4.7-11.1-14.4-17.4-8.8-5.7-24.9-13.7-32.6-16.1-12.7-4.1-37-5.5-49.5-3m263.7-.2c-10.2 1.4-31.8 9-40.6 14.2-10.9 6.5-15.2 10-18.2 15.2-5.2 8.8-1.2 15.5 13.6 22.8 14.2 7.1 24.9 10.4 42.5 13.1 20.7 3.2 47.1-.3 67.5-9 12.9-5.5 18.9-6.8 27.7-6.1 15.3 1.3 14.7 1.3 15.8-1.4.5-1.4 2.9-6.2 5.2-10.8 4.2-8.3 5.1-11.2 3.4-11.2-.5 0-3.5 1.2-6.7 2.7-7.5 3.4-15.1 3.6-21.4.5-2.5-1.3-8.8-5.8-14-10.2-10.8-9-15.9-12.1-26.2-15.6-14.7-5-32.6-6.5-48.6-4.2m-49.1 128.2c-1.8 2.2.8 7.4 9.8 19.5 4.3 5.8 9 12.9 10.5 15.8 2.3 4.6 3 5.3 6.3 5.8 8.9 1.3 13.6 3 26.7 9.6 16.7 8.4 24.5 11.5 33.4 13 3.7.6 7.3 1.6 8 2.1 2.3 1.9 1.2 6.4-2.9 12.9-12.1 18.9-23.4 26.6-47 32-12.6 2.9-45.6 3.4-50.4.8-6.8-3.8-21.2-21.8-20-25.1.3-.8 5.2-3.8 10.8-6.6 10.4-5.2 23.7-15.1 23.7-17.7 0-.8-1.1-2.2-2.5-3.2-11.8-8.3-16.5-14.2-24.8-31.3-9-18.5-10.4-18.7-10.3-1.3.1 7.7-.5 15.4-1.3 19.2-3.6 16.2-17.8 25.9-36.4 24.9-19.9-1.1-30.6-12.7-32.3-34.9-.3-4.8-1-9.2-1.4-9.9-1.5-2.5-4.6-.3-9.7 7-2.9 4.1-6.5 9.2-8 11.4-1.6 2.1-4.8 5.2-7.1 6.8-12.5 8.6-13.7 11.7-7.4 18.8 2.6 2.9 6.9 5.7 14.2 9.4 9.7 4.8 10.5 5.4 10.8 8.3.5 5.3-9 18.5-16.5 23-4.3 2.5-4.7 2.5-19.1 2-25.9-.8-43.3-3.9-53.3-9.3-7.2-4-14.8-12.2-21.1-22.8-5.6-9.3-6.8-12.8-4.8-14.1.5-.3 4.2-1.4 8.2-2.5 8.1-2.1 20.2-6.7 29.3-11 3.3-1.6 12.1-5.8 19.5-9.3 14.3-6.7 15.4-7.6 22.4-18.7 1.6-2.5 3.8-5.9 5-7.5 9.6-13.9 9.4-13.5 7.1-15.9-2.1-2.1-4-1.2-20 9.5-25.8 17.2-37.4 23.3-56 29.4-17.5 5.7-27.9 6.6-43.9 4-13.1-2.1-19.8-4.8-33.7-13.1-3.1-1.9-6.3-3.4-7.2-3.4-3.4 0-3.1 5.1.8 13 1.2 2.5 5 11.9 8.5 21 8.1 21.7 15.4 39.1 19.5 46.5 1.8 3.3 6.5 12.2 10.3 19.7 8.1 15.8 12.2 22.1 24 36.7 21.9 27.3 48.9 55.4 52.5 54.9 1.2-.2 2.3-1 2.5-1.8.1-.9-3.5-7.2-8.1-14-8.9-13.3-18.7-30.7-18.7-33.3 0-.8 1-2.1 2.2-2.9 2.1-1.4 2.1-1.5-2.4-4.6-9.1-6.2-20.1-18.3-26.2-28.7-3.3-5.5-7.4-12.5-9.2-15.5-1.8-3.1-5.5-10.5-8.2-16.5-8.5-19-10-26-5.7-26 1.5 0 3.4 2.6 7.7 10.7 6.6 12.6 20.7 31.6 28.8 39.1 7.3 6.7 14.9 11.2 26 15.4 9.9 3.7 34.5 9.2 52 11.6 50 7 50.6 7 72.5 6.3 11-.4 26.3-1.5 34-2.6 7.7-1 19.9-2.6 27-3.5 33.7-4.3 57.3-9.3 68-14.7 16.6-8.3 33.7-26.1 46.1-48 8.3-14.7 9.6-16.3 11.7-15.5 2.4.9 2.1 3.1-1.2 11.8-9.8 25.3-33.5 61.7-49 75-4.4 3.8-4.9 4.6-4.4 7.4.7 4.2-4.7 14.9-15.6 31.3-9.6 14.3-10.9 16.8-9.4 18.3.7.7 1.7.8 2.9.1 3.7-2 28.2-29.1 31.6-34.8 2.8-4.9 6.1-9.4 12.1-16.9 12.8-16 22-28.2 25.9-34.2 2.4-3.7 7.1-10.9 10.5-16.1 3.4-5.1 7.3-12.1 8.7-15.5 6.1-14.9 14-35.8 16.1-42.8 2.7-8.9 4.4-12.4 9.7-20 6.6-9.3 3.9-13.3-4.9-7.3-6.1 4.2-14 7.3-25.3 10-21.1 5.1-44.9 2.8-66-6.3-8.2-3.6-26.1-12.7-31.1-15.9-2.4-1.5-8.3-5.6-13.2-9.2-8.5-6.2-17.1-11.2-19.3-11.2-.6 0-1.7.6-2.3 1.4m-60.7 109.9c7.5 7.8 17.2 20.5 20.9 27.5 3.1 5.9 3.5 7.2 2.2 8.2-1.9 1.6-57.7.1-58.2-1.6-.2-.7 1.3-3.2 3.4-5.7s7.9-10.1 12.8-16.8c9.9-13.5 11.9-15.9 13.7-15.9.6 0 3 1.9 5.2 4.3m404.2 354.1c-5.5 2.1-11.5 8.4-12.6 13.2-1.5 6.5-.1 14.1 3.4 18.8 3.4 4.4 9.5 8.1 10.9 6.7.5-.5.2-2.2-.7-3.9-2.3-4.5-2.8-9.8-1.8-19.1 1.3-10.7 3.1-12.8 11.6-13.3 5.4-.3 6-.1 8 2.5 3.2 4.3 2.8 14.3-.7 22.1-3.7 8.1-3.6 8.6 1.9 8.6 3.9 0 5.1-.5 8.1-3.5l3.6-3.6-.6-7.8c-.7-11.1-3.2-15.5-10.5-18.9-6.8-3.1-15.1-3.8-20.6-1.8"/><path d="M1082 1094.7c0 3.7 1.4 5.7 3.4 5 3-1.2 1.7-7.7-1.5-7.7-1.4 0-1.9.7-1.9 2.7m25.5 186.7c-21.1 5.2-33.7 25.2-32.2 50.6.9 14.5 4.3 23.2 12.8 32.4 6.7 7.4 10.8 9.3 21.7 10.6 22.1 2.5 33.1-2.7 44-20.7 11.2-18.5 6.9-51.9-8.3-65-5.1-4.4-10.5-6.7-18.7-8.2-8-1.4-12.8-1.3-19.3.3M506 1294.2c-1.5 5.5-7.7 22.3-10 26.8-.9 1.9-3.4 7.7-5.5 12.9l-3.8 9.5 2.4 1.9c2.2 1.8 3.6 1.9 19.8 1.4 10.6-.3 17.8-1 18.4-1.6 1.5-1.5-1.8-14.8-6.9-28.1-2-5.2-4.9-12.9-6.3-17-1.5-4.1-3-8.1-3.4-8.8-1.6-2.5-3.6-1.2-4.7 3m-322.9-9.2c-.5.3-1.2 8.5-1.6 18.3-.6 13.5-.5 18.1.5 19.2 1 1.2 4.5 1.5 19.9 1.5 20.8 0 29.7-1.1 35.4-4.3 7.6-4.2 10.9-16.6 6.8-25.1-1.8-3.6-3.3-5-7.4-7-5-2.4-6.1-2.5-29-2.8-13.1-.2-24.2-.1-24.6.2"/><g fill="red"><path d="M587 1.4c0 .9-1.6 1.7-4.2 2.1-2.4.4-5.6 1-7.3 1.5-3.4 1-10.9 2.6-20.5 4.5-11 2.2-24.1 5.2-32.5 7.5-4.4 1.2-11.4 3-15.5 4.1-4.1 1-14 4.1-22 6.8-41 14-45.9 15.8-55.7 20.9-2.3 1.2-4.7 2.2-5.2 2.2-2.2 0-47 22.9-59.3 30.3-20 12-49.7 32.6-61.5 42.6-2.3 2-5.9 4.9-7.9 6.6-12.4 9.8-21.3 21.2-21.4 27.2 0 2.5 4.2 7.9 6.8 8.7 1 .3 2.9 2.6 4.2 5.2 1.4 2.5 4 5.4 5.7 6.5 1.8 1.1 4.7 4 6.4 6.4s4.3 4.8 5.8 5.4c3.8 1.6 9.1 6.9 9.1 9.2s.8 2.4 3.9.3c1.9-1.4 2.5-1.4 3.2-.3.5.8.9 1.7.9 2.1 0 1.2-3.7 2.8-6.5 2.8-3.7 0-6.5 1.7-6.5 4 0 1.5.7 2 2.9 2 1.8 0 5 1.6 8.7 4.3 7.7 5.6 31.6 21.6 37.5 25 7.2 4.2 9.3 3.7 17.7-4.3 10.2-9.8 27-22.1 49.7-36.5 3.3-2.1 7.1-4.5 8.5-5.5 4.2-2.8 23.8-12.6 51.5-25.6 4.4-2 13.6-5.7 20.5-8.1s14.5-5.1 17-6c6.5-2.3 31.5-9.3 38.5-10.8 3.3-.7 7.4-1.7 9-2.3 1.7-.5 6.4-1.7 10.5-2.5 4.1-.9 11.8-2.5 17-3.7 5.2-1.1 14.2-2.7 20-3.5s13.3-2 16.6-2.5c3.4-.6 7.3-1 8.6-1 3.4 0 5.1-2.2 6.4-8.4.6-2.8 1.9-8.5 2.8-12.6 7.1-31.4 13.3-76.8 10.8-78.4-.5-.3-1.6 1-2.5 2.9-2.1 4.3-5.3 4.9-4.3.7 1.7-7.2 1.7-10.1.2-14.5-2.3-6.7-2.1-11.9.4-13.5 1.1-.7 2-1.7 2-2.2 0-.6-12.5-1-35-1-29.5 0-35 .2-35 1.4m58.5 8.3c1.9 1.9 2 1.8-2.8 20.3-6.2 24.2-7.2 29.7-6 34.1 1.3 4.9-.6 6.9-6.5 6.9-15.7 0-60.2 6.9-79.7 12.4-2.7.8-9 2.4-14 3.5-4.9 1.2-12.1 3-16 4.2-3.8 1.1-8.6 2.4-10.5 2.9-3.6.9-24.2 8.2-34 12-3 1.2-6.9 2.6-8.7 3.1s-3.5 1.4-3.8 1.9c-.4.6-1.3 1-2.1 1-2.5 0-47 22.6-50.5 25.6-.8.8-1.9 1.4-2.2 1.4-.4 0-2.6 1.2-5 2.7-6.4 4.2-7.2 4.6-10.8 6.7-4 2.2-31.8 20.6-40.5 26.8-7.5 5.3-13.4 10.1-18.4 15-2.1 2.1-4.7 3.8-5.8 3.8-2.4 0-9.4-5.5-25.4-19.9-6.5-5.9-13.3-11.9-15.3-13.4-5.8-4.7-4.9-6.3 8-15.2 3.2-2.2 8.1-6.1 10.9-8.6 4.6-4 15.8-12.6 22.6-17.2 1.4-.9 4.3-3 6.5-4.6 7-5.3 28.7-19.5 37.8-24.9 4.8-2.8 19-10.2 31.5-16.3S429.1 62 431 61s5.3-2.5 7.5-3.3c10.9-4.1 17.6-6.7 19.2-7.6 1-.5 4.5-1.7 7.8-2.6 3.3-1 6.5-2.2 7.2-2.7s3.6-1.6 6.5-2.3 7.8-2.2 10.8-3.3c12.3-4.4 25.9-8.1 45.5-12.6 5.5-1.2 11-2.8 12.2-3.4 1.2-.7 3.7-1.2 5.5-1.2 3.3 0 15.4-2.3 21.3-3.9 1.7-.5 8.4-1.4 15-2.1 6.6-.6 15.5-1.8 19.8-2.6 4.2-.8 10.5-1.4 14-1.4 3.4 0 9.1-.9 12.7-1.9 8.1-2.4 7.6-2.4 9.5-.4m-4.1 71.7c1.4 2.7 1.7 4.5 1.1 8.8-.9 7-3.4 16.5-5.6 20.8-2.1 4.4-7 6.2-22.3 8.5-6 .9-11.3 1.8-11.8 2.2-2 1.1-12.5 3.2-16.8 3.3-5.6 0-17.7 2.5-19.4 3.9-.7.6-4 1.3-7.2 1.4-3.3.2-7.3 1.1-9.1 2s-4.3 1.7-5.6 1.7c-1.2 0-2.8.5-3.4 1.1-1.3 1.3-18.6 6.5-24.7 7.4-2.6.4-4.9 1.1-5.2 1.6s-2 .9-3.8.9c-1.9 0-3.9.7-4.6 1.5s-1.8 1.5-2.5 1.5-2.3.8-3.6 1.8c-1.3 1.1-4.1 2.2-6.2 2.5-2 .3-4.9 1.5-6.4 2.6-1.4 1.2-3.2 2.1-4 2.1-.7 0-3.9 1.3-7.1 2.9-3.1 1.5-6.8 3.2-8.2 3.6s-4.1 1.8-6 3.1-4.2 2.4-5 2.4c-.9 0-2.3.9-3.3 2-1.2 1.4-2.9 2-5.7 2-2.2 0-4 .4-4 .9s-.9 1.3-2 1.6c-1.1.4-4.1 2.2-6.7 4.2s-6.8 4.7-9.5 6c-2.6 1.3-4.8 2.8-4.8 3.3s-1.8 1.9-4 3-4 2.4-4 2.9-3.3 2.5-7.2 4.4c-4 2-7.9 4.6-8.6 5.7-.8 1.3-2.3 2-4.2 2-2.5 0-3.1.5-3.8 3.2-.7 2.9-1.3 3.3-4.5 3.6-2 .2-3.7.7-3.7 1.3v1.4c.1.8-4.6 4.6-9.4 7.9-4.9 3.3-8.6 3.3-12.4.1-2-1.6-4.2-2.5-6.5-2.5-3.7 0-5.6-1.3-3.7-2.5 2-1.2-1.1-3.5-4.6-3.5-2.4 0-3.4-.5-3.9-2.1-.4-1.1-1.8-2.5-3.1-3.1-1.8-.8-2.3-1.7-1.8-3 .4-1.4 0-2.1-1.5-2.5-3.2-.8-2.6-2 2.2-4.3 2.3-1.1 5.8-3.2 7.7-4.6 2.3-1.7 4.2-2.3 5.7-1.9 1.6.4 2.3.1 2.3-1 0-.8.4-1.5.9-1.5s2.9-2 5.3-4.5c2.6-2.7 5.2-4.5 6.6-4.5 1.2 0 2.2-.5 2.2-1 0-.6-.4-1-1-1-.5 0-1-.5-1-1 0-.6 1.6-.8 4.1-.4l4.1.7-.7-3.2c-.6-2.8-.4-3.1 1.7-3.1 1.3 0 6.3-2.7 11.2-6 5-3.3 9.8-6 10.8-6s2.8-1 4-2.2 4.2-3.2 6.6-4.5c2.5-1.3 5.7-3.3 7.1-4.4 5-4 13.3-8.9 15.9-9.5 1.5-.4 3.4-1.2 4.2-2 1.6-1.4 15-8.1 21.8-10.9 2.4-1 5.2-2.7 6.4-3.7s3.7-1.8 5.8-1.8c2.4 0 4.3-.7 5.5-2 1-1.1 2.8-2 4.1-2 1.2 0 5.7-1.6 10-3.6s10.3-4.5 13.3-5.5c3.1-1.1 6.4-2.4 7.3-3 1-.5 3.4-.9 5.4-.9 2.4 0 4.6-.8 6.5-2.4 3.2-2.8 12.4-4.5 14.2-2.7 1.4 1.4 7.1 1.5 6.2.1-.3-.6-1.5-1-2.6-1-1 0-1.9-.5-1.9-1 0-.6 1.6-1 3.5-1s5.3-1 7.5-2.1c3.4-1.8 5.2-2.1 10.1-1.5 5.1.5 6.2.3 7.9-1.4s3.4-2 10-2c5.8 0 8.9-.5 11.7-1.9 2.2-1.1 7.2-2.2 11.7-2.6 4.9-.4 8.5-1.3 9.4-2.2 1.2-1.2 3-1.4 8.6-.8 5.5.5 7.8.3 10.1-.9 1.8-1 4.2-1.4 6-1 2.3.4 3.5 0 4.9-1.5 2.7-3 4.9-2.6 7 1.3M328 206.5c0 1.7-.2 1.8-2.4.9-2.3-.9-2-2.4.4-2.4 1.1 0 2 .7 2 1.5"/><path d="M340.2 203.2c.3.7 1.3 1.5 2.2 1.6 1.2.3 1.7-.1 1.4-1-.3-.7-1.3-1.5-2.2-1.6-1.2-.3-1.7.1-1.4 1m2.1 5.3c-.3.9-.3 1.8 0 2.1.9.9 2.7-.6 2.7-2.2 0-1.9-1.9-1.8-2.7.1M677 .6c0 .3.5 1.5 1.2 2.7 1.3 2.5 1.2 11.5-.2 13.3-.7.8-.7 2.1.1 4 1.1 3 .7 8.3-1.1 12.8l-.9 2.6-4.6-4.6c-2.6-2.5-4.9-4.3-5.2-4s.2 2.3 1 4.4c.9 2.2 1.9 7.3 2.2 11.3.8 9.5 2.4 20.9 3.1 22 .3.5 1.6 5.8 2.9 11.7s3.7 15.9 5.4 22.2c1.6 6.3 3.5 13.5 4.1 16 2.7 11 3 11.7 5.5 12.8 1.4.7 7.9 1.5 14.3 1.8 11 .5 24.4 2.3 32.2 4.4 1.9.5 11.8 2.5 21.9 4.5 25.3 5 34 7.4 53.1 14.5 4.7 1.7 12.1 4.4 16.5 5.9 24.9 8.7 74.4 34.3 97.3 50.5 23.8 16.6 31 22.6 38.8 32.1 3.8 4.6 4.3 4.9 6.7 3.8 1.4-.6 7.3-5.4 13.2-10.5 12.3-10.6 16-13.4 23-17.2 2.8-1.5 8.2-4.9 12.2-7.4 7.6-5 8.9-7.2 7-12.1-.9-2.6-.5-3.2 8-11.7 5-4.9 9.3-9.9 9.7-11.1s3.1-3.6 6-5.3c6.7-3.8 7.2-4.4 8-10.4.8-6.2-1.3-10.8-8.5-19-10.1-11.3-51.6-40.8-80.4-57.2-4.4-2.5-10.9-6.4-14.5-8.6-8.5-5.4-50.9-26.9-63-32-8.6-3.6-16.1-6.5-39.5-15-4.4-1.6-12-4-17-5.3-4.9-1.3-11.5-3.1-14.5-3.9-3-.9-7.7-2.1-10.5-2.7-2.7-.6-7-1.7-9.5-2.5s-7-1.8-10-2.4c-4.5-.7-26.7-5.4-36.8-7.7-1.3-.3-2.6-1.2-2.9-1.9-.4-1.2-7.1-1.4-37.4-1.4-20.3 0-36.9.3-36.9.6m25 9.5c3.6.5 11.5 1.3 17.5 1.8 6.1.5 12.1 1.4 13.5 1.9 1.4.6 9 1.8 17 2.7s18.2 2.5 22.8 3.6c4.5 1 9.7 1.9 11.5 1.9s5.9.9 9 2c3.2 1.1 9.1 2.7 13.2 3.5s8.2 1.8 9.2 2.3 4.3 1.5 7.3 2.2c7.3 1.6 28.2 8 29.5 9 .6.4 2.6 1.3 4.5 1.9 5.4 1.6 19.4 6.6 20.5 7.3.6.3 5.1 2.2 10.2 4.2C908 62.5 950.3 84.9 968 97c1.4.9 5.9 3.5 10 5.8 4.2 2.3 11.2 6.6 15.5 9.6 4.4 3.1 11.2 7.6 15 10.2 7.9 5.4 15.7 11.2 21.7 16.4 2.2 1.9 7.3 5.8 11.2 8.6 4.2 2.9 7.2 5.8 7.4 7 .2 1.5-3.8 6-15 17-8.4 8.2-17.6 17.3-20.4 20.1-6.6 6.7-9.1 6.9-13.2 1.3-2.6-3.5-7.4-8.1-16.3-15.5-4.9-4-43.8-30.5-51.4-35-2.7-1.6-5.8-3.4-6.7-4-17.4-10.4-64-32.4-75.3-35.5-1.6-.5-9.5-3.2-17.5-6-17.9-6.5-27.6-9.5-40.5-12.6-5.5-1.3-11.6-2.8-13.5-3.3-5.9-1.6-19.8-3.9-36.5-6.1-8.8-1.2-19.5-2.8-23.8-3.6-4.2-.7-10.1-1.4-13-1.4-7.8 0-8.6-.9-9.7-12-2-19.2-5.2-34.2-9.2-42.8-2.6-5.8-1.2-7.7 4.7-6.7 2.2.4 6.9 1.1 10.5 1.6m-19.4 27.3c.6 2.6-.1 4.6-1.7 4.6-.5 0-.9-1.6-.9-3.5 0-4 1.7-4.7 2.6-1.1m-2.6 12c0 3.6-1.7 2.3-2-1.4-.3-3.8-.1-4.6 1-3 .5.8 1 2.8 1 4.4m8.6 26.3c-.8 2 1 3.3 4.7 3.3 3.4 0 3.5-1.7.2-3s-3.2-2 .4-2c2 0 3.2.6 3.6 1.9.3 1.2 1.9 2.1 4.1 2.6 1.9.3 3.8 1.3 4.1 2.1.4 1.1 1.8 1.5 4.7 1.3 2.2-.1 4.8 0 5.6.3s6 1 11.5 1.6c5.5.5 12.7 1.7 16 2.7 6.1 1.7 7.3 1.9 20.4 3 4.1.3 9 1.3 10.9 2.1s5 1.4 6.9 1.4 4.6.9 6.3 2.1q2.85 2.25 7.2 2.1c5.9-.1 7.3.5 8.6 3.3 1.2 2.5 4.5 3.4 5.7 1.5 1-1.6 5.7-1.2 9 .8 1.7 1 4.5 2.1 6.3 2.5s5.6 1.7 8.5 3.1c9.6 4.5 12.5 5.6 14.1 5.6.8 0 3.5 1.1 6 2.5s5.9 2.5 7.6 2.5c3.5 0 4.7 1.9 3 4.9-.9 1.7-.8 2.1.4 2.1.8 0 1.8-.5 2.1-1 1.3-2.1 7.4-.9 13.5 2.5 3.4 1.9 6.6 3.5 7 3.5.5 0 2.3 1.2 4 2.7 2.7 2.2 3.5 2.5 5.1 1.5 2.2-1.4 4.9-1.6 4.9-.3 0 .5-.7 1.1-1.5 1.5-.8.3-1.5 1.5-1.5 2.7 0 2 .3 2.1 5 1.5s5.1-.5 6 1.9c.8 2 1.6 2.5 4.4 2.5 2.5 0 3.8.6 4.6 2 .6 1.1 1.6 2 2.3 2s3.7 1.6 6.7 3.6 6.7 4.2 8.2 5c1.4.7 3 2.3 3.3 3.5.6 1.8 1.2 2 4.1 1.4 3.2-.6 3.4-.5 3.4 2.4 0 2.4.6 3.1 3.1 4 1.7.6 3.5.9 3.9.6 1.7-1 4 .8 4 3.1 0 2.4.9 2.8 5.6 2.5 2.2-.2 5.2 2.5 4.1 3.6-1.3 1.2 1.6 3.3 4.4 3.3 2.2 0 3.4.8 4.8 3.1 1 1.7 3.6 4.2 5.7 5.6 2.2 1.5 6.4 4.8 9.5 7.5 3.1 2.6 6.6 4.8 7.8 4.8 1.1 0 2.1.3 2.1.7 0 .5-3.3 4.3-7.4 8.6-6.5 6.9-7.7 7.7-9.4 6.8-2.4-1.3-3.8.1-4.4 3.9-.2 2-1.1 2.7-4.5 3.4-5.5 1.1-8.5-.1-15.3-6.7-3-2.8-7.6-6.2-10.2-7.4s-4.8-2.6-4.8-3-2.3-2.1-5-3.8c-2.8-1.6-5-3.5-5-4.2s-.6-1.3-1.4-1.3c-.7 0-1.9-.7-2.6-1.5-.7-.9-5.2-3.4-9.9-5.7s-10.5-5.5-12.8-7.1c-6-4-20.9-11.7-22.7-11.7-.9 0-2.3-1.1-3.2-2.5s-2.3-2.5-3.2-2.5c-.8 0-2.3-.6-3.1-1.3-2.5-2.1-19-9.4-24.3-10.7-4.9-1.3-6.5-3-2.8-3 1.1 0 2-.6 2-1.4 0-2.3-2-2.9-3.9-1.2-2.5 2.3-5.5 2-8.9-.9-1.9-1.6-4.2-2.5-6.5-2.5-1.9 0-6.1-1.3-9.3-2.9-11.7-5.7-14-6.5-18.4-6.6-2.5 0-7-1-10-2.2s-6.7-2.5-8.2-2.8c-2-.4-2.8-1.2-2.8-2.6 0-2-.4-2.1-6-1.4-4.7.5-6.6.4-8.5-.9-1.5-1-3.4-1.4-5.4-1-2.5.5-3.1.3-3.1-1.1 0-1.5-.7-1.7-4.6-1.2-3 .3-6-.1-8.2-1-1.9-.8-4.6-1.3-5.9-1-1.3.2-4.7-.4-7.6-1.3-2.8-1-9.6-2.1-14.9-2.5-5.6-.4-10.4-1.3-11.5-2.1-1-.7-2.5-1.4-3.3-1.4-.9 0-2.2-1.8-3.1-4.3-1.5-4.2-1.9-4.4-5.1-3.2-1.6.6-1.8.1-1.8-3.6 0-2.3-1.2-7.2-2.7-10.8-1.4-3.6-2.6-7.5-2.5-8.6.1-1-.3-2.4-.7-3-.5-.5-1.1-2.7-1.4-4.8-.5-2.9-.3-3.7 1-3.7 1 0 1.3.6.9 1.7m366 95.6c-.3 1.5 0 4.4 1 6.9 2.8 7.6 2.8 8.5.2 9.1-1.8.5-2.7 1.7-3.6 5.1-1.3 5-5.2 8.4-5.2 4.6 0-3.1-2.3-1.9-3.4 1.6-1.6 5.5-2.6 7.5-3.8 7.8-9.7 2.7-9.5 2.6-13.3 10-2.1 3.9-5.9 10.2-8.4 14.1-16.5 24.6-20.8 31.7-22.5 37.1-.5 1.8.9 4 7.1 11 4.3 4.9 8.9 10.5 10.3 12.4 1.3 1.9 4.9 6.6 8 10.5 10.7 13.4 31.4 43.4 35.2 51 1.1 2.2 3.9 7.1 6.3 11 4.7 7.9 20.4 39.6 23.6 47.6 1.1 2.9 2.8 7.1 3.8 9.3 1 2.3 3 7.5 4.5 11.6s3.4 9.1 4.1 11c3.1 8 12.1 40.1 14 50 6.5 33.7 7.7 43.4 7.9 61.9l.1 15.6 11 .5c6.1.3 11.5.8 12 1.2.6.3 5.5 1.4 11 2.3s14.3 2.8 19.5 4.2c5.2 1.3 15.4 3.5 22.7 4.8 17.2 3.2 24.5 5.5 24.1 7.5-.3 1.1-3 1.8-11.3 2.8-6.1.7-15.9 2.4-22 3.8-10.3 2.3-15.2 3.2-40 6.9-14.8 2.2-25.6 4.2-26.2 4.9-.3.3-.5 4.7-.4 9.8.1 5-.3 12.2-.8 15.8-.6 3.6-2.2 13.5-3.6 22-2.7 16.8-5.3 29.2-8.6 41-7.1 24.9-14.8 49.1-16 50.5-.5.5-.9 1.5-.9 2.2 0 1.4-3.3 8.8-10.5 23.8-9.6 20.2-14.4 29.3-18.2 35-2.2 3.3-5.1 8-6.5 10.5-5.7 10.1-10 17.1-13.3 21.5-1.9 2.5-6.1 8.2-9.2 12.8-3.1 4.5-6.1 8.7-6.7 9.3s-4.2 4.8-8.1 9.4c-10.8 12.9-17.7 20-21.7 22.6-4.7 3-4.9 5.6-1 11 9.4 13 18.7 27.4 24.2 37.4 3.5 6.3 8 13.7 10.1 16.5 5.3 7 12.5 12.8 15 12.2 1.6-.4 2.4.2 3.4 2.7.8 1.8 3 5.2 5 7.6s4 5.1 4.6 6.1c.5 1.1 1.8 1.9 2.7 1.9 1 0 3.6 1.8 5.7 4 3.2 3.2 4.6 4 7.6 4 2 0 4.2.7 4.9 1.5s2 1.5 3 1.5c2 0 9-7.2 17.5-18 3.2-4.1 9.3-11.6 13.6-16.6 19-22.4 55-75.3 72-105.7 3.9-7 14.8-29.3 22.1-45.2 5.5-11.9 7.4-16.6 11.3-28 .8-2.2 3-8.5 5-14 5.3-14.3 9.9-30.2 16.6-56.5 6.6-26 17.5-94.6 16.4-102.6-.3-2.3-1.8-6.1-3.3-8.5-1.6-2.4-3.1-5.2-3.5-6.2-.6-1.7-.8-1.7-3.5.3-2.3 1.7-3.3 1.9-5.7 1.1-1.7-.6-5.5-1.2-8.5-1.5-4.5-.3-10.9-2-12.9-3.4-.3-.1 1-1.6 2.8-3.2l3.3-3-3.3-3.8c-1.7-2-4.3-4.3-5.6-5-2.3-1.3-2.3-1.4-.7-2.6 2-1.5 1.3-2.1-4.1-3.1-3.8-.7-3.9-.8-1.6-1.7 3.7-1.3 8.1 0 9.1 2.8 1.1 2.7 3.2 3.1 5 .9 1.6-2 5.4-1.9 7.1.1 1 1.3 2.6 1.5 6.9 1.1 3.1-.2 6.4 0 7.4.5 1.3.8 2.4.2 5-2.5 6.2-6.6 6.9-9.5 6.3-24.1-.5-13-1.1-17-6.7-46.6-1.6-8.5-3.4-18.7-4-22.5-.6-3.9-1.9-10.6-3-15-1-4.4-2.2-9.8-2.6-12-1.9-11.4-14.1-52-18.8-63-1.3-3-3.7-9-6.1-15.5-.8-1.9-2.6-6.7-4-10.5-3.2-8.2-20.8-44.3-29.1-59.5-5.1-9.3-12.3-21.4-25.6-42.9-2.2-3.5-5.8-8.7-8.1-11.6s-8.5-11.3-13.7-18.5c-11.3-15.6-33.1-43.3-40.2-50.8-6.1-6.5-16.1-13.2-19.8-13.2-1.5 0-4.7.7-7 1.5-5.3 1.9-10 2-10 .2 0-.7-.6-2.1-1.4-3.2-1.2-1.7-1.3-1.7-2 .8m25 13.9c1.6 1.8 5.7 6.7 8.9 10.8 3.3 4.1 9.4 11.5 13.5 16.5 6.4 7.6 12.5 15.5 30.9 40.5 8.5 11.5 21.6 31.3 27 41 4.9 8.7 5.7 10.1 9 15.5 4.1 6.6 7.7 13.4 13.6 25.5 3.1 6.3 6.7 13.5 8 16 1.2 2.5 2.6 5.6 3 7s1.5 3.6 2.4 5c2.1 3.1 5.5 11.7 7.7 19 .9 3 2 6 2.5 6.6s1.8 3.5 2.8 6.5c1.1 3 3.1 8.5 4.6 12.4 6.1 16.2 14.1 44.1 15.5 54 1.1 8.2 2.7 15.7 3.9 18.6.5 1.3 1.4 6.3 2 11s1.8 11 2.5 14c.8 3 1.9 9 2.6 13.4.6 4.4 1.8 10.9 2.5 14.5s1.6 10.5 2 15.5c.3 4.9 1.3 11.3 2.2 14.1 2.8 9.1.5 10.2-12 6-14.1-4.7-24.8-7.3-41.3-10-4.5-.8-8.7-1.7-9.3-2-.7-.4-1.1-4-1.1-8.9 0-10.9-1.4-21.4-6.2-45.7-2.2-11.3-4.6-23.7-5.4-27.5-1.3-6.7-5.5-22.9-8.8-34.3-.9-2.8-2.2-7.3-3-10-2.7-9-17.9-48.5-19.6-50.7-.4-.6-1.1-2.1-1.5-3.5s-2.9-6.3-5.5-11-6.8-12.3-9.2-17c-12.3-23.2-25.4-43.8-43.2-67.9-15.3-20.7-34.4-43.7-38.7-46.4-1.6-1.1-2.9-2.7-2.9-3.8 0-1 2.1-4.2 4.7-7.1 2.5-2.9 6.6-8.4 9.1-12.3 18.8-29.6 18-28.5 21-28.5 1.8 0 3.8 1.1 5.8 3.2m-48.8 53.4c.9 1.8 1.7 2.4 3.1 1.9 1.4-.4 2.1 0 2.7 1.7.4 1.3 2.8 4.4 5.3 7 9.4 9.5 14.1 14.9 14.1 16.4 0 .8 1.2 2.7 2.8 4.2 1.5 1.5 2.7 3.8 2.7 5.2 0 1.8.5 2.5 1.8 2.4 1.8-.2 6.7 4.9 6.7 7 0 .7 1.6 3 3.6 5.2 2 2.1 4 5.1 4.6 6.7.6 1.5 1.9 3.2 2.9 3.8 1.2.6 1.9 2 1.9 3.9 0 2.2.5 2.9 2.3 3.2 1.4.2 2.3 1.1 2.5 2.5.2 1.3 1.1 2.8 2 3.5s2.6 2.9 3.6 4.8c1.1 1.9 2.9 4.7 4.1 6.2 1.3 1.5 2.6 4.3 2.9 6.2.4 2 1 3.6 1.5 3.6.4 0 1.7 1.8 3 4 1.2 2.2 3 4.4 4 4.9 1 .6 2.3 2.8 2.9 4.9.7 2.2 1.9 4.5 2.7 5.2s1.5 1.9 1.5 2.8c0 .8 1.2 3 2.6 4.9 1.9 2.5 2.4 4.1 2 5.9-.5 1.8 0 3 1.7 4.7 5 4.7 9.7 11.9 9.7 14.8 0 2.6-.3 2.9-2 2.4-1.4-.4-2-.2-2 .9 0 1.9 1.7 3 2.5 1.6 1.1-1.8 4.5.9 4.5 3.5 0 2.9 4.9 16.6 6.4 18 1.6 1.4 3.6 7.6 3.6 11.1 0 1.6.7 4.2 1.5 5.8.8 1.5 1.5 3.5 1.5 4.2 0 .8.7 1.7 1.5 2 2.2.9 4.8 10.9 4.2 16-.3 3.3 0 4.7 1.3 5.9 2.3 2.1 4 8.1 5 18.3.5 4.7 1.3 8.8 1.8 9.1 1.4.9 3.4 9.5 3.1 12.8-.2 1.7.2 3.7.8 4.4 1.9 2.3 3.1 8.6 2.6 12.7-.3 2.4-.1 4.2.6 4.6.7.5 1.1 4.6 1.1 11.2 0 8.6.3 10.4 1.5 10.4 1 0 1.5 1.1 1.5 3.5 0 1.9 1.1 6.5 2.5 10.2 1.5 4.3 2.1 7.1 1.5 7.7-1.6 1.6-1.1 2.3 1.3 1.9 1.2-.2 3.1.3 4.2 1.1 1.9 1.4 1.7 1.5-2.7 1.6-2.7 0-4.8-.5-4.8-1 0-.6-3.4-1-8.2-1-5.7-.1-8.9-.5-10.2-1.5s-4.3-1.5-8.2-1.5c-5.2 0-6.4-.3-6.9-1.9-.4-1.2-1.2-1.7-2.8-1.4-1.8.4-2.6-.5-4.7-4.9-2-4.2-2.5-6.6-2.3-11.8.3-7.9-4.3-38.4-6.3-42.3-.9-1.5-1.2-3.2-.9-3.8.4-.5 0-2.5-.9-4.3-1-2.1-1.4-4.6-1-6.4.4-1.7.1-3.2-.5-3.6s-1.1-2-1.1-3.7c0-1.6-.9-3.8-2-4.9-1.7-1.7-1.9-2.8-1.4-7.4.8-6.3 0-9.6-1.8-7.8-2.3 2.3-3.1 1.2-2.4-3.7.7-5.3.1-8.1-1.9-8.1-1.6 0-2.5-2.2-2.5-6 0-1.5-.7-4.5-1.6-6.6-.9-2.2-2.5-6.8-3.5-10.3s-2.5-7.1-3.3-8c-.7-.9-2.1-3.9-3-6.6-3.4-10.3-4.9-13.5-6.2-13.5-.8 0-1.4-1-1.4-2.3s-.7-3.2-1.5-4.3c-.8-1-1.5-2.4-1.5-3.1s-1.6-3.8-3.5-7-3.5-6.5-3.5-7.3c0-.9-1.8-3.3-4-5.5-2.5-2.5-4.2-5.2-4.6-7.4-.7-3.4-8.5-17.4-10.5-18.6-.5-.4-.9-1.3-.9-2.2 0-.8-1.1-2.8-2.5-4.5-1.4-1.6-2.5-3.6-2.5-4.3 0-.8-1.2-2-2.7-2.7-1.9-.9-3.2-2.7-4.1-5.3-.7-2.2-2.4-5.1-3.8-6.6-1.3-1.4-2.4-3.1-2.4-3.9 0-2-3-5-5.1-5-2.2 0-2.8-1.6-2.1-5.8.4-2.8.2-3.2-1.7-3.2-1.1 0-2.1.5-2.1 1.1 0 .5-.5.7-1 .4-.8-.5-.7-1.2.2-2.2 1-1.3.7-2-1.7-4.2-1.7-1.5-4.3-4.6-5.9-6.9s-4.8-6-7.1-8.1c-5.7-5.2-5.7-5.3-3.9-9.7.9-2 1.4-4.8 1.1-6.1-.2-1.3.2-2.8 1-3.5.8-.6 2.1-2.5 3-4.2 2.1-4.1 11.3-16.6 12.2-16.6.4 0 1.3 1.2 1.9 2.6M1246.4 612c-.1 2.9-2 14.5-3.4 21-.5 2.5-1.7 10.4-2.5 17.7-.9 7.2-2.2 15.3-3 18-.8 2.6-1.9 9.3-2.4 14.9-.6 5.5-1.7 11.6-2.4 13.5-.8 1.8-2 6.8-2.7 10.9s-2.3 11.3-3.6 15.9-2.4 9-2.4 9.7c0 2.4-12 38.9-17.5 53.4-.8 1.9-1.7 4.6-2.1 6s-2 5.4-3.6 9-3.9 8.7-5.1 11.4c-5.5 12.1-23.7 47.8-26.1 50.9-1.4 1.8-2.6 3.8-2.6 4.2 0 .5-1.1 2.5-2.4 4.4-1.3 2-6.1 9.4-10.8 16.6-10.2 15.7-25 37.8-28.2 42.2-4 5.5-19.4 24.7-28.4 35.4-3 3.5-6.4 7.7-7.5 9.2-1.2 1.6-3.6 4.5-5.2 6.5-1.7 2-3.9 4.9-4.8 6.4-3.6 5.7-7.1 3.5-16.4-10.2-4.6-6.8-7.2-11.1-13.2-22-1.1-1.9-3.8-5.3-6-7.5-4.9-4.6-5.4-8.4-1.7-10.9 3.5-2.2 20.1-23.3 28.2-35.6 3.7-5.8 8.2-12.1 9.9-14s5.2-6.7 7.8-10.5c2.6-3.9 6.1-8.6 7.7-10.5 2.9-3.3 13.7-20.4 15.2-24.2.4-1 2.6-4.2 4.8-7.1 2.2-3 7-11.1 10.6-18.2 3.7-7 7.7-14.3 8.9-16.1 2.4-3.5 9.6-20.2 14.7-33.9 7.7-20.7 12.1-34.7 17.2-55 3-12.1 7.3-29.2 9.5-38 2.3-8.8 4.1-17.6 4.1-19.5s.5-5.3 1-7.5c.6-2.2 1.2-9.4 1.5-15.9.5-12.8.8-13.6 5.9-13.6 5.2 0 39.5-6.5 47.1-8.9 1.7-.5 4.6-.9 6.5-.8 3 .2 3.5.5 3.4 2.7m-69 .3c1.7 1.3 1.6 1.6-1.8 6.1-2.5 3.3-3.5 5.4-3 6.8.3 1 0 2.5-.6 3.3-.9 1.1-.9 1.5-.1 1.5.7 0 1.1 2.3 1.1 6.1 0 4.7-.4 6.5-1.7 7.5-1.5 1-1.8 2.9-1.9 9.6-.2 9.1-1.1 15.5-2.5 16.4-.5.3-.9 2.8-.9 5.7 0 4.2-.5 5.6-2.7 7.9-2.4 2.5-2.7 3.6-2.6 8.6.1 4.2-1 9.2-4 18.7-2.7 8.5-4 14.5-3.8 17.3.1 3.6-.2 4.5-1.7 4.9-1.4.3-2.1 1.7-2.6 4.9-.3 2.4-1.2 5.8-2.1 7.4-.8 1.6-1.5 4.4-1.5 6.1 0 1.9-.8 4.2-2 5.4-1.1 1.2-2.4 4.4-3 7.3-.5 2.8-2.2 7.8-3.8 10.9-1.6 3.2-3.5 7.3-4.2 9.1s-2.1 3.7-3.1 4.3c-1.1.5-1.9 1.5-1.9 2.1 0 1.6-4 9.7-5.1 10.4-.5.3-.9 1.8-.9 3.5 0 3.3-3.1 6.9-6 6.9-2.4 0-2.5.8-.4 3.1 2.3 2.5 1 6.6-2.6 8.7-2.1 1.2-3.2 2.8-3.6 5.1-.6 3.1-2.8 6.2-8.1 11.5-2.7 2.7-7.3 11.3-7.3 13.7 0 1-.8 2.4-1.8 3.1-.9.7-2.3 2.5-2.9 4-.7 1.6-1.9 2.8-2.7 2.8-1.2 0-5.2 5.2-6.5 8.5-.8 2.2-3.5 4.5-5.1 4.5-2.3 0-4.5 2.6-3 3.5 1.7 1 1.1 5.1-1 7-1.5 1.4-2.3 1.5-3.4.6-1.9-1.6-4.6 2.7-4.6 7.2 0 2.5-.5 3.6-1.8 4-1.1.2-2.2 1.7-2.5 3.6-.4 1.8-1.3 3.1-2.1 3.1-1.7 0-4.6 4.9-4.6 7.8 0 1.1-.9 2.2-2 2.5s-2.4 1.7-3 3.1c-.6 1.6-1.7 2.6-3 2.6-1.1 0-2 .7-2 1.5s-1.1 2.5-2.4 3.6c-1.4 1.2-3 3.4-3.6 5-1.8 4.3-5.1 3.8-9.4-1.3-2-2.3-3.6-4.8-3.6-5.5s-.9-1.8-2-2.5-2-2-2-2.9-1.1-2.1-2.5-2.7c-2.1-1-2.4-1.6-1.9-4.2.4-1.6.2-3-.3-3s-1.5-2.3-2.2-5c-1.5-5.9-.7-7.5 4.3-8.8 2.7-.7 3.1-1.3 3.4-4.6.3-2.9 1-4.1 3.2-5.4 1.6-.9 3.5-3.1 4.4-4.9.8-1.7 2.6-3.9 4-4.8s2.8-2.4 3.1-3.3c.3-1 1.8-2.5 3.5-3.4 1.7-1 3-2.5 3-3.6s1.8-3.8 3.9-6c4.6-4.7 6.1-7.2 6.1-10.3 0-1.6.5-2 1.9-1.6 3.3.8 5.1-1 4.4-4.5-.4-2.3-.2-3.4 1-4.3 2-1.4 5.6-6.6 7.9-11.2 1.1-2.2 1.3-3.4.5-4.2s-.8-1.4.1-2.3c1-1 1.7-1 3.4.1 2.8 1.7 4-.1 3.4-5.2-.4-3.4-.2-3.7 2-3.7 2 0 2.4-.5 2.4-2.9 0-1.6.7-3.4 1.5-4.1s1.5-2.8 1.5-4.7c0-2 .6-3.6 1.4-3.9s2.3-2.9 3.2-5.7c.9-2.9 2.2-5.9 2.9-6.7s1.5-2.8 1.9-4.4 2.2-4.8 4.1-7c2-2.5 4.6-7.8 6.6-13.6 1.8-5.2 3.8-10.4 4.4-11.5.7-1.1 2.2-5.4 3.4-9.5s3.1-9.2 4.2-11.2c1-2 1.9-4.6 1.9-5.7 0-1.2.4-2.1.9-2.1.6 0 .7-2.4.4-5.6-.5-5-.4-5.8 1.6-7.3s2.1-2 1-4.3c-1-2.3-.8-3.2 1.2-6.4 1.2-2 2.6-5.6 2.9-7.8 1.6-9.9 7.3-34.4 8.5-36.9 1.1-2.2 1.2-3.4.3-5.3s-.9-3.6 0-7c.7-2.4 1.2-6.3 1.2-8.5 0-7.8 8.2-13.9 18.6-13.9 3.3 0 7.1-.8 9.7-2 3.8-1.7 6.6-2.3 13.3-2.8 1.1-.1 2.8.4 3.8 1.1M255.1 171.6c-8.5 3.8-34.1 30-52.7 54.2-10.2 13.4-32.8 45.3-34.4 48.6-.6 1.2-5 8.1-9 14.1-1.5 2.2-4.5 7.1-6.6 11-2.1 3.8-5.1 9.2-6.6 12-8.2 14.7-25.1 50.9-29.8 63.9-1.6 4.5-5 13.5-7.5 20.1-12.6 32.6-23.7 81.4-29 127-.9 7.7-2 17.6-2.6 22-2.4 20.3-1 28.2 6.4 36.9 3.3 3.8 3.4 3.9 5.9 2.2 2.2-1.5 3.8-1.7 9.8-1.7 5.1.1 10.9-.5 11.6-1.2.9-.9 5.4-.9 5.4 0 0 .4-1.4 2.2-3.2 4-4.1 4.3-2.3 5 6.9 2.9 3.7-.9 12.7-2.7 19.8-4.1 7.2-1.3 15.9-3.2 19.5-4 20-4.6 32.9-6.5 45.8-7 2.5-.1 4.8-.8 5.3-1.6.6-.8.8-4.1.5-7.4-.5-7 .8-24.2 2.8-37 .8-5 2.4-14.9 3.6-22.1 1.1-7.2 2.7-16.1 3.5-19.8.8-3.6 2.2-9.5 3-13.1s3-11.2 5-16.8 5.9-17.2 8.7-25.7 7.5-20.4 10.5-26.5c3-6 7.3-15.2 9.5-20.4s5.4-11.5 7.1-14.2c1.8-2.6 5.9-9.4 9.1-15.1 3.2-5.6 7.6-12.3 9.6-14.8s4.4-5.9 5.3-7.6c2.6-5.1 9.1-14.5 15.1-21.9 17.1-21.2 20.3-24.8 25.9-30 3.4-3 7-6.2 7.9-7 1.1-.9 1.5-2.1 1.1-3.2-1.3-3.4-16.7-29.9-23.5-40.3-3.8-5.8-7.3-12.2-7.9-14.4-1-3.7-1.2-3.8-4.6-3.3-2.9.5-3.9.2-6-2.1-1.3-1.4-2.7-3.9-3-5.5-.4-1.8-1.5-3.2-3-3.8-1.8-.7-2.2-1.4-1.7-3.3.4-1.9.1-2.5-2-3-1.8-.4-2.6-1.3-2.6-2.8 0-2.4-6.4-8.8-11.2-11.4-1.7-.9-2.8-2.3-2.8-3.6 0-4.6-7.8-6.2-14.9-3.2m10.4 11.1c2.8 3 7.9 10.8 14.3 21.9 2.3 3.9 7.3 10.5 11.2 14.7 8.1 8.6 8.4 10.7 2.2 13.3-2 .8-5 2.7-6.6 4.2-4.5 4.3-25.7 29.9-32.3 39.2-3.4 4.7-7 9.6-8 11-1.1 1.4-6.3 9-11.7 16.9-9 13.3-12 18.1-17.6 28.3-1.1 2-3.3 5.6-4.9 8-3.6 5.4-25.3 49.5-28.2 57.5-6.6 18.3-12.2 34.4-13.4 38.5-.7 2.5-1.6 5.1-1.9 5.6-.4.6-1.1 3-1.6 5.4-1 4.8-2.6 11-6.3 24.3-1.4 4.9-4 16.9-5.7 26.5s-3.6 18.8-4 20.5c-.7 2.6-1.8 12.7-3.4 33.8-.3 3.1-.8 6.2-1.1 6.7s-4 1.6-8.3 2.5c-24.1 5.3-34 8-42.9 12.1-3.7 1.7-7.9 1.8-8.8.3-.4-.5-.2-3.8.4-7.2s2-15.2 3.2-26.2c1.1-11 2.4-22.9 2.9-26.5.6-3.6 1.4-10.8 1.9-16 .6-5.3 1.7-12.1 2.5-15.2s2-9.1 2.6-13.4c.7-4.4 1.8-9.5 2.6-11.4.7-1.9 2.1-7.1 2.9-11.5.9-4.4 2.2-10 3-12.5s2.9-9.2 4.6-15 4-12.5 5-15c4.5-11.1 7.9-20.2 7.9-21.2 0-1.2 4-10.9 8-19.3 1.5-3.3 4-8.7 5.5-12s3.6-7.7 4.6-9.7c1.1-2 1.9-4.3 1.9-5s2-4.7 4.4-8.8c2.5-4.1 6.6-11.6 9.1-16.5 2.6-5 5.3-9.7 6.1-10.6.8-.8 1.4-1.8 1.4-2.2s2.8-4.9 6.3-10.1c3.4-5.1 8.4-12.9 11.1-17.2 2.7-4.4 6.6-9.9 8.6-12.4s5.4-7.2 7.6-10.4c2.1-3.3 6.1-8.8 8.9-12.2 2.7-3.5 6.7-8.7 8.8-11.6s7.6-9.4 12.3-14.3c4.7-5 12.9-13.8 18.2-19.7 10.6-11.8 12.4-12.7 16.7-8.1M305 236c0 2.3.6 3.3 2.5 4 1.7.6 2.5 1.7 2.5 3.3s.9 2.6 3.1 3.4c2.8 1.1 2.9 1.4 1.8 3.4-1 2-.9 2.5 1.1 4.1 1.2 1 2.8 1.8 3.6 1.8.7 0 1.6 1.2 2 2.7.3 1.6.7 3.3.9 3.9s-.5 2.4-1.6 4c-1 1.6-1.9 3.4-1.9 4s-1.8 3-4 5.4-4 4.8-4 5.4c0 1.8-7.8 9.6-9.5 9.6-2.3 0-3 2.9-1.1 4.3 1 .8 1.3 1.7.7 2.6-.7 1.1-1.1.9-2-.8-1-1.8-1.5-1.9-3.2-1-1.7.8-2 1.7-1.5 4 .5 2.5-.1 3.6-3.4 7-2.2 2.3-4 4.8-4 5.5 0 .8-.9 2.3-2.1 3.5-1.1 1.1-2.6 3.7-3.3 5.7-1 2.8-1.9 3.7-3.7 3.7s-2.5.7-3 3.4c-.4 1.8-1.3 3.8-2.1 4.3-.7.5-1.7 1.2-2.3 1.6-.5.4-2.6 4-4.5 8s-4.2 8-5.2 8.9c-1.1 1-1.8 3-1.8 5.5 0 3.9-1.3 5.1-2.4 2.2-.7-1.9-2.6-.9-2.6 1.5 0 1-.7 2.4-1.5 3.1s-1.5 2.7-1.5 4.4c0 1.9-1.2 4.7-3 7-1.7 2.2-3 4.5-3 5.2 0 1.3-5.6 12.4-7.1 13.9-.5.5-.9 1.7-.9 2.7 0 .9-1 2.2-2.1 2.9-1.7.9-2 1.7-1.6 4.5.4 2.5.2 3.4-.9 3.4-1 0-1.4 1.2-1.4 4.2 0 2.3-.6 4.9-1.3 5.7-.7.9-1.9 3.6-2.6 6.1s-2.2 6.9-3.3 9.8-1.7 6-1.4 6.9c.9 2.2-.3 5.3-2 5.3-.8 0-1.4.5-1.4 1 0 .6-1 2.4-2.1 4-1.6 2.1-2 3.7-1.5 6 .5 2.5.1 3.7-1.7 5.6s-2.2 3.4-2.2 8.4c0 4.8-.4 6.4-1.8 7.1-1.2.7-1.7 2.1-1.6 5.2.1 3.9-3.7 31.5-6.1 43.6-.5 2.9-1 7.9-1 11.1 0 12.3-3.4 22-7.8 22-.8 0-1.2.6-.8 1.5.6 1.6-1.3 1.8-17.1 1.5-4.6-.1-7.3.3-7.3.9s.6 1.1 1.3 1.1c1.8.1-2.4 3-4.4 3-.9 0-2.2-.7-2.9-1.5-1.6-1.9-4.5-1.9-7.5.1-1.4.9-3.2 1.3-4.1 1-1.4-.5-1.3-1 1-3.1 1.4-1.3 2.6-2.8 2.6-3.3 0-.6 1.1-1.3 2.5-1.6 2.5-.6 2.6-.9 2.3-7.5-.1-4.1.3-7.5 1-8.3.6-.8.9-2.3.6-3.4-.3-1 .3-6 1.2-10.9 1-5 1.8-10.8 1.8-13.1.1-2.2.7-4.8 1.5-5.7.9-1.2 1.1-3 .7-6.2-.5-2.8-.3-5.3.5-6.6.6-1.3 1.5-5.6 2-9.6.4-4 1.5-8.6 2.3-10.1 1.9-3.5 4.6-15.6 4.6-20.4 0-2 .4-3.9.9-4.2.4-.3 1.1-2.5 1.3-4.9.3-2.6 1.4-5.3 2.6-6.5s2.4-3.7 2.8-5.7c.3-1.9 1.3-3.9 2.1-4.3.9-.6 1.5-2.7 1.6-5.8.1-2.8 1-6.2 1.9-7.6s2-3.9 2.4-5.4c.7-3.1 3.7-10.9 5.9-15.9.8-1.7 1.5-4.4 1.7-6 .2-2.2.8-3 2.3-3 1.6 0 2.1-.8 2.3-4 .2-2.2 1-4.4 1.8-4.8s1.4-1.9 1.4-3.2.9-3.2 1.9-4.2c1.1-1 2.9-4.2 4.1-7.2 1.1-3 2.9-6.6 3.9-8 .9-1.4 2.3-3.7 3-5.1 2.9-5.7 4.9-9 7.5-12.1 1.9-2.2 2.6-3.9 2.2-5.5-.4-1.4-.1-2.6.8-3.1 2-1.1 10.4-13.8 12.7-19 1.4-3.4 2.2-4 3.8-3.6 1.9.5 2.1.1 2.1-3.3 0-3.3.8-4.7 5.2-9.4 2.8-3 6.2-7.3 7.4-9.5 1.3-2.3 3.2-4.2 4.5-4.5 1.6-.4 2.5-1.5 3-3.6.8-3.9 1.7-5.4 3.4-5.4 1.4 0 2.5-2.1 2.5-5.1 0-1.4.7-1.9 2.8-1.9 3.8 0 5.4-1.7 3.9-4.1-1.7-2.7.3-5.4 3.9-5.4 3.7-.1 5.5-1.2 4.7-3.1-.3-.8.1-2.2.9-3.2.8-.9 1.8-2.5 2.1-3.5.4-1 2-2.3 3.6-2.8 1.9-.7 3.2-2 3.6-3.6.7-2.8 3.6-7.2 4.8-7.3.4 0 .7 1.4.7 3"/><path d="M179.7 447.7c-1.1 1-.8 5.3.3 5.3.6 0 1-1.4 1-3 0-3.1-.2-3.5-1.3-2.3m430.8-259.1c-20 2.1-57.7 12.1-83.5 22.2-1.4.5-4.3 1.5-6.5 2.2-8.3 2.6-34.7 15.1-50.1 23.7-9.9 5.5-41.9 26.6-46.8 30.8-22.3 19.3-21.6 18.6-21.6 21.9 0 2 1.3 4.9 3.6 8.1 4.8 6.8 7.4 11.9 7.4 14.9 0 2.9-4.1 8.1-8.1 10.1-4.9 2.6-7.7 1.9-14.8-3.9-6.3-5.1-11.9-8.6-14-8.6-.5 0-2.1 2-3.5 4.3-1.4 2.4-5.7 7.9-9.7 12.3-10.6 11.6-31.1 40.4-33.6 47.1-.3 1-2.4 4.4-4.6 7.7-3.7 5.5-14.4 25.1-22.8 41.6-3.4 6.7-8.5 19.7-15.4 39-8.4 23.5-15.8 59.6-18 88-.4 4.7-1.3 11-2 13.9-1 3.7-1.1 5.9-.4 6.7.6.8 5.7 1.4 14.2 1.7 7.3.3 15.7 1 18.7 1.6 13.8 2.5 27.5 5.2 38.5 7.6 6.6 1.5 14.3 3 17 3.4 2.8.4 5.6 1 6.3 1.4 2.3 1.5-1.4 5.1-6.6 6.3-6 1.6-15.7 4.2-20.2 5.5-1.9.6-9.6 2.4-17 4-11.2 2.5-16.7 3.1-32.5 3.6-10.4.3-19.3 1-19.6 1.5-.4.6.2 3.1 1.1 5.6 1.1 2.8 2.1 9.1 2.5 15.2 1.1 18.1 3.5 31.1 11.3 61 4.6 17.3 8.3 28.4 15.1 44.5.5 1.1 1.6 4 2.6 6.5 2.7 7.3 15.9 33.6 23 46 12.1 21.2 22.5 36.5 38.1 56.1 3.8 4.8 8.4 10.8 10.1 13.3 5.7 8.1 8.5 6.7 33.8-15.9 7.2-6.4 14.3-12.3 15.9-13.2 1.6-.8 3.8-2.4 4.9-3.4 1.2-1 2.7-1.9 3.4-1.9 1.8 0 9.1 6.8 10.9 10.1 2.7 5.3 2.6 5.5-12.7 25.9-4.7 6.3-9.4 12.1-10.3 12.9-2.2 1.8-8.2 10.9-9 13.7-.3 1.1 0 2.7.6 3.5 3.2 3.8 34.1 28 47.1 36.9 20.4 13.9 55.8 31.1 84.2 40.9 5 1.7 11.5 4 14.5 5.1s7.1 2.5 9 2.9c1.9.5 6.9 1.9 11 3.1 11.8 3.4 27.5 6.1 39.5 6.7 11.2.6 11.1.6 37-4.7 5-1.1 13.4-1.9 18.7-1.9 9-.1 10.4.2 20 3.9 13.7 5.4 22.4 6 39.8 3.1 23.7-4.1 23.3-4 44-10.1 29-8.7 41.5-13.7 72-29.2 25.7-13.1 36.4-19.6 55.2-33.4 5.3-4 10.3-7.7 11-8.3 11.2-9 15.2-11.9 18.2-13.1 1.6-.6 2.6-1.7 2.6-3 0-3-14.2-23.4-26.5-38-12.9-15.4-13.2-16.9-4.8-21.8 8.9-5.1 9.9-4.8 25.8 9.3 4.4 3.9 9.8 8.4 12 9.9 2.2 1.6 6.8 5.3 10.2 8.3 4.5 3.9 6.9 5.3 9.2 5.3 3.3 0 5.2-2.3 19.1-22.6 2.5-3.6 7.1-10.2 10.3-14.7 3.3-4.5 6.8-9.9 7.8-12 2.1-4 9.6-14.4 13.6-18.8 1.3-1.4 4.5-7.4 7.2-13.5 2.6-6 7.3-15 10.4-20.1 4.9-8 9.8-18.5 14.2-30.3.7-1.9 2.3-6 3.5-9 4.9-11.9 11.5-38.1 17.5-69.5 1.3-6.4 3.4-26.7 3.5-33.3 0-.7 1.4-2.6 3.2-4.3 2.9-2.6 3.1-3 1.7-4.5-1.4-1.3-2.4-1.4-7.7-.3-5.5 1.2-7.5 1-21.4-1.4-18.8-3.3-26.9-4.8-48.3-9.2-4.4-.8-11.5-2-15.9-2.6-5.1-.6-8.9-1.7-10.8-3-1.6-1.2-3.6-1.8-4.4-1.5-1.4.6-1.5.9-.2 2.9.8 1.2 2.9 2.9 4.6 3.7 2.2 1 3.1 2 2.8 3.2-.3 1.4.7 2.1 4.7 3.3 2.8.8 5.9 1.5 6.9 1.5s1.8.4 1.8 1c0 .5 1 .9 2.3.9 1.2-.1 4.2.6 6.6 1.5s5.7 1.6 7.4 1.6c2.7 0 7.4 1.1 17.3 4.1 1.7.5 5.9.9 9.5.9 4.2 0 8.9.9 13.7 2.5 4.1 1.4 8.6 2.5 10 2.5 5.2 0 5.5.8 4.4 11.1-.6 5.2-1 10.7-.9 12.4.2 2.4-.2 3-1.8 3-1.8 0-2 .6-1.6 7.3.3 7.8-.6 10.2-4.2 10.2-1.6 0-1.8.3-.9 1.2 1.6 1.6 1.5 7-.2 9.3-1 1.3-1.2 3.6-.9 7.6.5 5.1.4 5.7-1.6 6.2-1.8.4-2.1 1.2-2.1 6.4s-2.4 14-4.3 15.9c-.4.4-.7 1.9-.7 3.3 0 1.5-.6 3.5-1.3 4.6s-2.3 4.7-3.6 8c-1.2 3.3-3.6 8.7-5.2 12s-2.9 6.5-2.9 7.1-.7 1.7-1.5 2.4-1.5 2.3-1.5 3.5-1.4 4-3.1 6.1c-1.7 2.2-4.1 6-5.4 8.5s-3.1 5.1-3.9 5.9c-1.2.9-1.5 2.2-1.1 4.4.5 2.5.1 3.6-1.9 5.5-1.4 1.4-2.6 3-2.6 3.7s-1.4 2.9-3.1 4.8c-1.7 2-3.4 4.8-3.8 6.3-.5 1.9-1.6 2.9-4 3.5-1.7.5-3.5 1.7-3.8 2.6-.4.9-2 3.4-3.6 5.5-2.3 3-2.7 4-1.7 5.2.9 1.1.7 2-1.1 4.4-1.2 1.6-2.8 3.2-3.5 3.5s-2 2-3 3.8c-2.1 4.3-6.3 8.8-9.1 9.9-1.3.5-2.4 1.5-2.4 2.4-.1.8-.3 1.9-.4 2.5-.1.5-.3 1.6-.4 2.4-.1 1.1-1.1 1.3-3.8 1-7.2-1-8.3-1.4-8.3-3.2 0-2.3-1.9-4.2-4.2-4.2-1.9 0-6.8-4.8-6.8-6.7 0-1.8-3.2-3.2-6.6-3-2.6.2-2.9-.2-3.4-3.3-.5-3.3-.7-3.5-5-4-3.7-.4-4.6-.9-4.8-2.8-.4-2.5-3.7-3.1-4.6-.7-.7 1.8-5.3 2-5.9.2-.3-.9-1.3-.8-4.1.6-2.2 1-3.4 2.2-3 2.8.4.7 0 .9-1.3.5-4-1.3-11.8 10.7-11.6 17.7.1 2.1 1.1 5.3 2.2 7 4.1 6.5 7.2 12.8 6.6 13.7-.3.5.4 1.8 1.6 2.9 1.7 1.6 2.6 1.8 3.6.9 2.2-1.8 3.6.3 2.3 3.6-.5 1.5-.8 3.2-.4 3.7.7 1.2 4.4 1.2 4.4-.1 0-.6.7-1 1.6-1 1.2 0 1.4.7.9 3.1s-.2 3.6 1.4 5.3c1.2 1.3 2.5 4 2.8 6.1.6 3.5.3 4.1-3.5 7.6-2.3 2.1-4.2 4.5-4.2 5.4 0 1.1-1 1.5-3.5 1.5-2.8 0-3.5.4-3.5 1.9 0 1.2-.9 2.3-2.2 2.7-2.4.7-3.7 1.6-12.3 8.4-2.7 2.2-6.5 4.5-8.5 5.1-1.9.6-4.6 2.2-6 3.4-1.4 1.3-4.5 2.9-6.9 3.6s-5 2.3-5.8 3.6-1.9 2.3-2.4 2.3c-.4 0-2.7 1.3-5.1 2.9-2.4 1.5-6.7 3.4-9.5 4.2-2.9.7-5.3 1.6-5.3 2 0 .8-10.3 5.9-11.9 5.9-.6 0-1.1.6-1.1 1.4 0 2.2-2.6 3.8-7.7 4.7-2.6.5-7.6 2.3-11.1 3.9-3.6 1.7-7.8 3-9.6 3-1.7 0-4.4.9-6.1 2-1.8 1.2-4.7 2-7.1 2-2.5 0-4.7.6-5.4 1.5-.7.8-2.7 1.5-4.5 1.5-2.1 0-4.5.9-6.3 2.5-2.2 1.9-4.6 2.7-9.4 3.1-3.4.3-8.3 1.3-10.8 2.1-7.3 2.5-31 5.3-34 4-1.4-.6-4.6-.9-7.1-.8-4.6.3-11.2-2.2-15-5.6-1.4-1.1-4.8-1.3-18.5-.9-18.2.6-26.8 1.6-30.5 3.7-3.5 1.9-38.4 1.9-46.4 0-3.3-.8-6.7-2-7.6-2.8-1.9-1.6-5.1-1.7-6.6-.2-.9.9-2 .6-4.5-.8-1.8-1.1-5.1-2.3-7.4-2.6-3.6-.4-11.2-3.3-18.7-7.2-1.6-.8-3.6-1.5-4.5-1.5-2 0-9.9-3-16.2-6.1-2.5-1.2-6.1-2.5-8-2.9-2.6-.4-3.4-1-3.2-2.3.2-1.4-.5-1.7-4.5-1.7-3.7 0-5.1-.5-6.1-2-.7-1.1-1.9-2-2.8-2s-2.7-.9-4.1-2-3.3-2-4.2-2-2.8-.8-4.1-1.7c-2.6-1.9-6.7-4.3-11-6.4-1.4-.7-4.9-2.8-7.8-4.6s-5.6-3.3-6.1-3.3-1.4-.6-2-1.4c-.6-.7-5.4-3.9-10.7-7.1-7.2-4.4-9.8-6.6-10.9-9-.7-1.8-2.3-3.6-3.4-4-1.2-.3-2.1-1-2.1-1.5s-1.6-1.7-3.5-2.6c-4-1.9-8.5-6.8-8.5-9.2 0-2.1 3.6-8.2 4.9-8.2.5 0 1.2-1.7 1.6-3.7.9-5.1 1.3-5.5 3.6-4 1.6 1 2.1.9 2.9-.3.6-.8.9-2.2.7-3s1.4-3.9 3.5-6.9 3.8-6.1 3.8-6.9c0-.9 1.3-3.6 2.9-6.1 2.9-4.5 2.9-4.7 1.6-9.1-.7-2.5-1.6-5.8-2-7.4-.4-1.8-3.1-5.3-6.7-8.8-4.9-4.7-6.6-5.8-8.2-5.2-1.2.4-3.5.7-5.3.6-1.8 0-3.4.5-3.7 1.3s-1.3 1.1-2.7.8c-1.4-.4-2.5 0-3.1 1.1-.5.9-2 1.6-3.3 1.6-1.8 0-2.5.6-2.5 1.8 0 2.2-4 4.3-6.8 3.5-1.6-.4-2.6.4-4.5 3.4-3.8 5.9-8.4 10.3-10.6 10.3-2.3 0-3.7 1.8-3.3 4.2.3 1.9-1.6 2.5-7.3 2.4-3.8-.1-4-.3-4.5-3.5-.6-4-3.5-6.4-5-4.1-.5.8-1.2 1.1-1.7.7-.4-.5-.1-1.2.6-1.7 1.2-.7 1.2-1.2-.3-3.4-.9-1.4-2.3-2.6-3-2.6-1.5 0-8.6-9.7-8.6-11.7 0-.7-.6-1.6-1.2-2-.7-.4-2.1-2.5-3-4.5-1.3-2.7-2.2-3.5-3.6-3.2-1.4.4-2.3-.5-3.8-3.8-1-2.3-3-5.5-4.3-7-1.2-1.6-2.1-3.4-1.8-4.2.3-.7-.3-2-1.4-2.9-1-.9-1.9-2.9-1.9-4.4 0-1.4-.7-3.4-1.6-4.4s-2.2-3.5-2.9-5.6c-.9-2.5-1.9-3.8-3.1-3.8-1 0-2-1-2.4-2.5-.4-1.4-4.8-10.8-9.9-20.9-5-10.1-9.1-19.1-9.1-20 0-1-.4-2.1-.9-2.6-.5-.6-1.4-2.8-2.1-5s-2.3-5.8-3.6-8c-1.3-2.3-2.3-5.4-2.2-7 .2-3.6-1.9-11.6-4.4-17.1-1-2.2-1.8-5.6-1.8-7.6q0-3.45-2.1-5.4c-1.5-1.4-1.9-2.6-1.5-4.7.3-1.7 0-4.3-.8-6.1-2-4.3-3.4-13.3-2.9-17.9.3-2.1.1-3.7-.5-3.7-.5 0-1-1.7-1-3.8-.1-2-.4-5.6-.7-8-.5-2.7-.3-4.7.5-5.7.6-.8.9-2.3.5-3.4-.5-1.6.1-2.5 2.6-4 3.3-2 8.1-2.5 21.4-2.2 3.3.1 6.9-.3 8-.8 4.2-2 18.3-6.1 20.9-6.1 3.4 0 13.1-3.3 19.2-6.5 2.6-1.4 5.4-2.5 6.3-2.5 1.4-.1 1.4-.2-.1-1.4-2.4-1.8-2.3-2.3.6-3 1.4-.3 3.4-2 4.6-3.6 1.2-1.7 2.8-3 3.5-3q2.85 0 1.8-3.9c-.5-2-.7-2-2.3-.6-2 1.8-4.7 1.1-5.5-1.6-.3-1-2.1-2.8-3.8-4-1.8-1.2-4.2-3.3-5.4-4.7-1.6-2-2.5-2.3-3.5-1.5-1.9 1.7-8.4.1-8-1.9.3-1.9-2.6-2.8-8.9-2.8-3.1 0-5.1-.6-6-1.6-1.1-1.3-2.4-1.5-6.8-1-4 .5-5.8.3-7-.8-1.7-1.5-7.8-2.7-15.6-2.9-2.7-.1-5.6-.6-6.3-1-.7-.5-2.6-.6-4.2-.2-4.6 1-7-.9-7-5.6 0-2.2.5-6 1.1-8.5.9-3.4.9-4.8 0-5.7-1.3-1.3-1.5-5.7-.3-5.7.4 0 .8-2.5.9-5.6s.6-6.1 1.2-6.7 1.1-2.8 1.1-4.8c0-2.1.4-4 .9-4.4.5-.3.9-3 .8-6.1-.1-4.7.3-5.9 2.1-7.4s2.2-2.8 2.2-7.8c0-3.9.7-7.7 2.1-10.9 3.6-8.3 7.9-22.7 7.4-24.4-.8-2.3 1.2-6.9 2.8-6.9 1.5 0 3.8-4.8 5.6-11.7.7-2.4 2.1-4.7 3.1-5.3 1.4-.7 2-2.1 2-4.3 0-1.8.7-4.2 1.5-5.3.8-1 1.5-2.6 1.5-3.5s1.3-3.4 2.9-5.6c1.9-2.7 2.8-4.8 2.4-6.2-.4-1.5.6-3.1 3.6-6.1 2.3-2.2 4.1-4.7 4.1-5.5 0-.9 1.1-2.5 2.5-3.7s2.5-3 2.5-4.1c0-2.2 6.6-12.7 8-12.7.5 0 1.2-1.6 1.6-3.5.3-1.9 1.2-3.9 2-4.6.8-.6 1.4-1.7 1.4-2.4 0-1.5 4.4-6.8 11.5-13.8 2.8-2.7 4.5-5.1 3.9-5.4-1.2-.4 11.1-13.3 12.7-13.3.5 0 .8-1 .6-2.3-.2-2 .2-2.2 4.8-2 2.8.1 5.3.2 5.6.2.3.1 1.1 1.3 1.8 2.7 1 2.4 1.5 2.6 5.4 2 4.3-.7 6.3-.7 12.8-.5 4.4.2 8.8-2.7 8.9-5.7 0-1.1.9-2.9 2-3.9s2-2.3 2-2.9 1.2-2.9 2.6-5c2.2-3.2 2.5-4.3 1.5-5.7-.6-1-1.1-3.1-1.1-4.6 0-1.6-.8-4.2-1.8-5.8-1-1.8-1.7-5-1.7-8 .1-4.2.4-5.2 2.4-6.2 1.3-.6 3-2.6 3.8-4.5l1.4-3.3 1.7 2.2c1.4 1.7 2.2 1.9 4.1 1.2 1.8-.7 2.2-1.5 1.8-3.5-.5-2.6 1.4-5.4 3.7-5.4.8 0 3.3-1.8 5.7-4s4.9-4 5.6-4c.6 0 2.5-1.1 4.1-2.5 1.7-1.4 3.4-2.5 4-2.5.5 0 1.5-.7 2.3-1.6.7-.8 2.9-2.4 5-3.4 2-1.1 3.9-2.8 4.2-4 .3-1.3 1.3-2 3-2 1.3 0 3.2-.9 4.2-2 1.3-1.5 3.1-2 6.6-2 5.1 0 7.3-1.6 4.4-3.2-1.4-.8-1.5-1.2-.4-1.9.8-.4 2.3-.6 3.4-.3 1.2.3 4.1-.4 6.5-1.6 8.8-4.2 13.2-6.7 13.9-7.9.4-.6 2.5-1.4 4.7-1.8 2.1-.3 6.7-1.9 10.1-3.4 3.4-1.6 7-2.9 8-2.9s2.4-.9 3-1.9c.8-1.3 2.7-2 6-2.4 5.5-.5 14-2.8 18.8-5.2 1.9-.8 5.7-2 8.6-2.5 2.9-.6 5.5-1.4 5.8-1.8 1.3-1.7 11.4-3.4 16.4-2.8 4.5.6 5.4.4 6.9-1.4 2.1-2.4.8-2.2 17.7-2.4l13.4-.2 2.5 2.8c1.4 1.5 3.1 2.8 3.9 2.8.9 0 1.1.8.7 2.4-.6 2.5 5.3 21.8 6.8 22.4.5.2.5 2.1.2 4.3-.6 3.3-.4 3.9 1.1 3.9 2.1 0 8 5.8 8.9 8.8.4 1.2 1.3 2.2 1.9 2.3.7.1 2.9.2 4.9.3 2 .2 4.4.8 5.2 1.5s2.5 1 3.8.6c4.8-1.3 13.8-5 13.8-5.7 0-.3 2.2-3.3 5-6.5 4.1-4.7 5-6.5 5-9.6 0-2.1.4-4.6 1-5.6.5-1 1.4-4.7 1.9-8.2.6-3.7 1.7-6.9 2.6-7.6.9-.6 1.9-2.3 2.3-3.8 1-3.5 7.3-6 11.6-4.5 3.9 1.3 8.9 1.3 10.4-.2.9-.9 1.8-.9 3.7 0 1.4.7 4.7 1.2 7.3 1.2s5.6.7 6.6 1.5c2.4 1.8 6.8 1.9 8.4.3.9-.9 2.1-.7 5.1 1 2.1 1.2 4.8 2.2 6 2.2 1.1 0 4.7 1.3 7.9 3 3.3 1.6 7 3 8.3 3s4.8 1.1 7.7 2.5c3 1.4 6.6 2.5 8 2.5 1.5 0 5.4 1.4 8.7 3s6.8 3 7.7 3c1 0 2.3.9 3 2 .8 1.3 2.4 2 4.3 2s3.5.7 4.3 2c.7 1.1 2.1 2 3.1 2 3.1 0 8.5 2.7 9.9 5 1 1.6 1.9 2 3.8 1.6 3.7-1 7.4.4 8.4 3 .5 1.3 1.7 2.4 2.7 2.5s2.7.2 3.8.3c1.1 0 2.4 1.1 2.9 2.3.8 1.7 1.6 2 4.4 1.6 2.7-.5 3.4-.2 3.8 1.4.3 1.1 1.6 2.5 2.9 3.1s3.1 2.3 4.1 3.7c.9 1.4 2.6 2.5 3.9 2.5 1.2 0 2.8.7 3.6 1.6.7.8 2.6 2.2 4.3 3.1 5.6 2.9 13.7 9.6 15.3 12.7 1.4 2.7 1.7 2.8 2.8 1.3 1.8-2.6 3.5-2.1 5 1.5.7 1.8 3.6 5.7 6.4 8.7 3.4 3.5 5.1 6.1 4.9 7.5-.1 1.1.2 3.8.6 5.8.6 3 .4 4.7-1.2 7.9l-2.1 4.2 2.5 3.3c1.5 1.9 2.4 4.3 2.2 5.6-.2 1.7.2 2.4 1.9 2.6 1.1.2 3.3 2 4.7 4.2 2.6 4 2.9 4.1 13.2 4.3 5.3.1 6.6-.3 9.4-2.6 1.7-1.5 3.8-2.7 4.6-2.7 2.7 0 5.6 2.1 5 3.6-.7 1.8 4.3 7.4 5.1 5.6.8-1.9 2.3-1.4 2.3.8 0 1.1 1.4 3 3.1 4.2 2.3 1.8 2.9 2.8 2.4 4.6-.5 1.9.4 3.5 4.3 7.6 2.7 2.9 5.2 6.1 5.6 7.3.3 1.1 1.8 2.5 3.2 3.2 2.1.9 2.5 1.7 2.2 4.3-.2 2.5.2 3.5 2 4.4 3.9 2 8.2 6.7 8.2 9 0 1.2 1 3.5 2.3 5.1 3 3.7 4.7 7.7 4.7 11.3 0 1.7.5 3 1.1 3s.9-1.3.7-3c-.1-1.6.2-3.1.7-3.2.6-.2 1.1 1.2 1.3 2.9.2 2 1.1 3.7 2.3 4.3 2 1.1 2.7 4 .9 4-2.3 0-.8 4 2 5.7 1.7 1 3.4 2.9 3.7 4.3s1.4 3.6 2.5 4.9c1 1.3 1.8 3.4 1.8 4.7 0 3.5 3.6 11.1 5.8 12.3 1.4.7 3.1 4.3 5.2 10.8 3.3 10.4 3.8 11.7 6.4 17.6.9 2.1 1.6 5.9 1.6 8.5 0 3.5.5 5.2 2 6.5s2 2.9 2 7.1c0 3 .5 5.8 1 6.1 1.5.9 1.2 2.5-.5 2.5-.9 0-1.5.9-1.5 2.5 0 2.6 1.5 3.4 2.4 1.2.3-.8 1-.6 2.1.8 1.3 1.6 1.6 3.3 1.1 8.5-.4 4.9-.2 7.1.9 8.7 1.5 2.1 4 19.4 3.2 21.6-.2.7-.1 3.5.3 6.2.5 2.8.6 5.9.4 7-.6 2.3-5.4 4-14.4 5-9.7 1.1-23 3.7-23.6 4.6-.3.5-2 .9-3.7.9-1.8 0-5.9.9-9.1 2-3.3 1.1-7.4 2-9.3 2-2.2 0-3.6.6-4 1.6-.5 1.3-1.5 1.5-5.4 1-4-.5-5.6-.3-9 1.6-2.3 1.3-5.1 3.2-6.3 4.4s-2.7 2.3-3.3 2.5-1.5 1.7-1.9 3.3c-.6 2.6-.5 2.8 1.2 2.2 1-.5 6.9-1.4 12.9-2.2 10.8-1.3 29.7-5.1 38.5-7.8 12.2-3.8 19.1-4.8 33.8-5.2 8.5-.2 15.8-.7 16.4-1 1-.7.6-7.3-1.2-20.9-.6-3.9-1.5-11.5-2-17-2.1-21.5-5.3-35.6-15.5-69-3.9-12.5-6.1-18.8-7.5-21.3-.5-.9-3.2-7.1-6.1-13.7s-6.1-13.6-7.2-15.5-6.3-11.2-11.5-20.5c-11.3-20.3-28.7-46-36.7-54.2-1.6-1.7-5.7-6.6-9-10.8-3.3-4.3-7.3-9.1-8.9-10.6-3.7-3.8-8.3-3.9-11.7-.3-3.6 3.9-11.1 9-14.1 9.8-7.1 1.7-9-9.3-4.3-24.1 1.4-4.3 2.5-8.5 2.5-9.4 0-5.1-31.1-30.6-59.3-48.3-10.2-6.5-53.1-27.4-66.1-32.3-6.6-2.5-14.3-5.4-17.1-6.5-8.7-3.4-30.1-9.6-40.2-11.7-21.1-4.4-52.1-5.4-56.1-1.8-1.9 1.7-3.6 8-7.8 28.2-3.7 17.9-3.7 17.8-7.2 19.8-1.9 1.1-6.1 2.2-9.7 2.5-9.3.7-10.5-.3-14.4-13-1.7-5.7-3.8-12.3-4.7-14.8-.8-2.5-1.8-8.4-2.1-13.2-.8-12.2-.8-12.2-18.1-12.4-7.6-.1-15.5 0-17.7.2"/><path d="M705 206.5c0 .9.5 1.5 1.1 1.3s1.1-.8 1.1-1.3-.5-1.1-1.1-1.3-1.1.4-1.1 1.3m-62 60.6c-4.1.5-10.1.7-13.3.4-3.2-.4-6.4-.2-7 .3-1.9 1.5-10.8 2.3-42.2 3.6-13.4.6-16.4 1-18.6 2.6-4.1 2.9-11.7 3.6-18.3 1.5-4.2-1.3-6.2-1.5-7.9-.8-2.2 1.1-2.2 1.1.6 1.8 2.7.7 3.7 2.4 1.5 2.6-.7 0-3.6.3-6.5.5s-5.5-.1-5.8-.6c-.9-1.5-4.1-1.2-5.4.4-1.6 1.9-17 6.6-21.5 6.6-2 0-6.2.9-9.3 2-3.2 1.1-6.6 2-7.6 2s-3.9 1.1-6.5 2.5-5.3 2.5-6 2.5-2 .7-2.8 1.5c-.9.8-2.4 1.5-3.5 1.5-1 0-3.8 1.3-6.1 3-2.2 1.6-4.6 3-5.3 3-2.1 0-13.5 7.9-13.5 9.3 0 1.2-5.3 6.7-6.4 6.7-.2 0-.2-.9.1-2 .6-2.4-2.3-2.8-5.2-.6-2.5 1.8-1.3 5 1.5 4.1 1.1-.3 2-.2 2 .3 0 1.5-7.4 8.7-8.6 8.4-.7-.1-1.9 1.7-2.9 4-.9 2.4-2.3 5-3 5.8s-2.2 4.1-3.3 7.3c-1 3.2-2.9 6.7-4.1 7.8-1.6 1.5-1.9 2.4-1.1 3.4.7.9.7 3.4-.1 8.6-1.6 10-1.8 10.7-2.9 8.9-.7-1.1-1.1-1.1-2.4-.1-.9.8-1.6 1.9-1.6 2.6 0 1.8 2.5 2.6 3.9 1.2 2-2 1.2 2.6-1.4 8.1-1.4 2.9-2.5 6.7-2.5 8.6s-.4 3.7-.9 4c-.9.6-1.8 7.2-2.5 18.1-.2 3.3-.8 10.7-1.4 16.5-.5 5.8-1.3 17.5-1.7 26s-.9 15.8-1.1 16.2c-.6.9-1.6 53.9-1.4 73.3 0 7.7.5 19.6 1 26.5.6 6.9 1.2 17.9 1.5 24.5s1 13.7 1.6 15.8c.6 2.2.7 6.8.3 10.6-.5 5.6-.3 7 1.1 8.5 1.1 1.1 1.6 2.8 1.3 5-.3 2.5.1 3.7 1.5 4.6 1.9 1.2 2 3.1.2 10.2-.6 2.3-.4 2.8 1.1 2.8 1.3 0 2.3 1.2 3.2 3.7 2.5 7.6 4.2 14.5 4.2 17.5 0 1.8.9 5.1 2 7.4 2.4 4.9 6 17.4 6 20.8 0 1.3.9 3.5 2.1 5 1.1 1.5 1.8 3.3 1.5 4.1s-.1 1.7.4 2c1.3.8 6 11.1 6 13.3 0 1 1.1 2.9 2.5 4.2 1.3 1.2 2.9 3.8 3.5 5.6.7 1.9 1.6 3.4 2.1 3.4.6 0 .8.9.4 2-.7 2.1 1.4 6.9 3.9 8.9.9.8 1.6 2.5 1.6 3.8 0 3.2 2.9 8 5.1 8.6.9.3 2.5 2 3.4 3.8 2.8 5.5 10.6 16.9 11.5 16.9.5 0 1.2 1 1.5 2.2.4 1.3 1.6 3.2 2.6 4.3 1 1.2 2 3.1 2.2 4.3s1.3 2.9 2.5 3.8c1.2.8 3.8 4 5.7 6.9 1.9 3 4.4 6.4 5.5 7.5 1.4 1.4 1.9 2.8 1.5 4.1-.6 1.8.2 2.4 3.2 2 .6-.1 1.4 1.1 1.7 2.6.4 1.6 4 6.2 8.1 10.6 4.1 4.2 7.5 8.3 7.5 9 0 1.9 2.1 3.7 4.2 3.7 1 0 1.8.5 1.8 1.1s2.3 3.6 5 6.6c2.8 3 5 5.9 5 6.4 0 1.5 7.2 9.9 8.5 9.9 1.4 0 11.5 9.6 11.5 11s7 9 8.4 9 16 12.7 18.2 15.8c.8 1.2 3.2 3.1 5.3 4.1 2 1.1 6.1 3.8 8.9 6 2.8 2.3 5.6 4.1 6.2 4.1s1.6 1.2 2.2 2.6c1 2.2 1.6 2.5 4.4 1.9 1.8-.3 3.5-.1 3.8.4s3.7 2.5 7.6 4.4c6.5 3.4 9 4.3 18 6.8 4.9 1.4 19.8 3.8 23.8 3.9 6.3 0 14.7-5.9 15.4-11 .1-1.4 1-2.6 1.8-2.6.8-.1 2.1-.2 2.8-.3s.5-.8-.8-2.1c-1.2-1.2-2-3.3-2-5.4 0-1.9-.4-3.8-1-4.1-.5-.3-1-1.9-1-3.4 0-1.6-.8-3.4-1.9-4.2-2.6-1.9-3.6-6.8-1.6-7.5 1.7-.7 2-3.5.6-6.2-3.4-7-4.2-9.6-5.1-16.2-1.3-10.1-1.2-22.6.1-29.1.6-3 1.2-6.5 1.4-7.9.1-1.4.8-4.6 1.5-7.2 1.1-4.1 1-5.4-.6-9.8-1-2.8-3.1-6.5-4.6-8.2-3.6-4.1-1.9-6.9 2.1-3.4.9.7 2.6 1.7 3.9 2.1 1.9.5 2.5.2 2.9-1.4.4-1.7 1-2 3.1-1.4 3.2.8 3.9.8 7.7-.1 2.1-.4 3.9 0 6.3 1.4 3.6 2.2 4.2 5.3 1.5 8.2-1.1 1.2-1.7 3.5-1.7 6.1.1 7.3 2.3 19.6 4 22.2 1.3 2.1 1.5 4.7 1 18-.3 8.6-1 16.4-1.6 17.5-.5 1-1 3.4-1 5.2 0 4.2-2.2 12.3-4.4 16.5-1 2-1.4 4.3-1 5.7.4 1.8.1 2.7-1.4 3.5-1.1.6-2.2 2.5-2.6 4.2-.5 2.5-.2 3.5 1.4 4.6 1.3.9 2 2.5 2 4.8 0 2.5.6 3.7 2.3 4.6 1.2.6 3.3 2.2 4.7 3.4 4.4 4 9 4.8 15.5 3 3.1-.9 7.7-1.7 10.3-1.7 3.3 0 6.5-1 10.6-3.1 3.9-2.1 7-3 9.2-2.8 2.6.2 3.9-.4 5.8-2.4 1.3-1.4 4.1-3.1 6-3.6 2.6-.7 3.6-1.5 3.4-2.7-.2-1.4.5-1.7 4.2-1.7s4.6-.3 4.8-2c.3-2 6.4-6.9 11.2-9.1 1.4-.7 3.2-2 4.1-3 1.6-1.8 11-10.7 16-15 1.3-1.1 3.6-2.8 5.1-3.8 1.4-1 3.1-3.1 3.7-4.7.5-1.6 1.4-2.9 1.9-2.9.6 0 4.5-3.4 8.8-7.5 4.4-4.1 8.7-7.8 9.7-8.1.9-.3 1.7-1.2 1.7-2 0-.7 3.7-5.1 8.3-9.7 9.6-9.7 14.9-15.6 19.7-22 1.9-2.5 4.3-4.9 5.3-5.3 2.2-.7 5.7-6.1 5.7-8.7 0-1 .7-2 1.5-2.4.9-.3 2.5-2.3 3.5-4.4 1.1-2.1 2.6-4.2 3.4-4.6s2.6-3.1 4-5.9c1.4-2.9 3.5-5.4 4.5-5.7 1.2-.3 3-2.8 4.6-6.3 4.2-9.2 10.4-19.6 14.1-23.4 2-2.2 3.5-5 3.9-7.5.4-2.2 1.5-4.9 2.5-6 2.4-2.8 6-10.7 6-13.3 0-1.2 1.4-3.7 3-5.5 1.6-1.9 3-4.6 3-5.9 0-1.4 1.4-4.4 3.1-6.8s3.6-5.9 4.1-7.9c.6-2 1.6-4.3 2.3-5.1s2.7-6.2 4.5-12 3.8-11.5 4.6-12.6c.7-1.2 1.4-4.8 1.6-8 .2-4.4.7-5.9 1.8-5.9 1.9 0 2.8-3.6 2.9-12.3.1-5.8.6-8 2.2-10.4 1.7-2.4 2-3.9 1.6-8.1-.3-3.2 0-6.2.8-7.7 1.2-2.5 3.3-14.6 3.9-23.3.2-2.6.6-5.1 1-5.4.3-.3.1-1.2-.5-1.9-.8-1-.8-2.8.1-6.6.6-2.9 1.3-13 1.6-22.3.2-9.4.8-20.6 1.3-25 .6-4.8.6-8.6 0-9.7-.5-.9-.9-6.8-.9-13s-.5-20.8-1-32.3c-.5-11.6-1.2-27.3-1.5-35-.4-7.7-1.3-16.8-2.1-20.3s-1.4-9.9-1.4-14.3-.4-8.8-1-9.8c-.6-1.2-.6-3 0-5 .6-2.2.5-4.1-.6-6.6-.8-2.1-1.3-5.9-1.2-9.4.3-4.9 0-6.3-1.6-7.4-1.6-1.2-1.8-2.2-1.2-7.4s.4-6.2-1.4-7.8c-1.2-1-2-3.1-2-4.8s-.7-3.8-1.6-4.8-1.9-4.4-2.4-7.6c-.4-3.2-1.7-8-2.9-10.6-1.1-2.7-2.1-5.4-2.1-6 0-.7-1-1.7-2.2-2.2-1.3-.6-2.2-1.7-2-2.4.1-.7-.6-2.9-1.8-4.8-1.1-1.9-2-4.2-2-5.2 0-2.4-1.1-3.3-2.6-2-1.8 1.5-5.2-.9-5.9-4.3-.5-1.9-1.3-2.8-2.5-2.8-1.1 0-3.3-1.2-4.9-2.8-5.1-4.6-13.8-11.2-14.8-11.2-.6 0-1.6-.7-2.3-1.5s-2.9-1.5-5-1.5-4.3-.7-5-1.5-3.1-2-5.4-2.6c-2.2-.6-5.9-1.9-8.1-2.9-2.2-1.1-7.2-2.5-11.1-3.4-4-.8-8.9-2.3-11.1-3.4-4.8-2.5-14.7-4.4-18.8-3.7-1.9.4-5.7-.3-10.4-2-4.1-1.4-8.7-2.5-10.3-2.5s-3.6-.9-4.5-2c-2.1-2.5-5.2-2.6-6.9-.3-1.1 1.6-1.6 1.7-4.6.4-3.6-1.5-14-2.5-41.3-4-9.9-.6-19.8-1.3-22-1.7-4.8-.7-8.5-.9-37.5-1.7-12.4-.3-25.9-.1-30 .4m72.5 12.9c39 1.9 58.7 4.5 100.1 13.5 4 .8 8 1.5 8.9 1.5 2.7 0 21.7 5.7 30.9 9.2 17.7 6.7 26.5 12 36.7 22.1 7.1 6.9 9.3 9.8 13.2 17.7 10.6 21.7 17.9 67.3 20.7 129.5.5 10.4 1.4 27.8 1.9 38.5 1.3 25 1.4 47.4.1 61.4-.5 6.1-1.4 18.3-2 27.1-.7 8.8-1.5 18-2 20.5s-1.6 9.4-2.5 15.5c-4.5 30.3-12.5 58.9-22.7 80.5-1.7 3.6-4.6 9.9-6.5 14-5.9 12.9-9.8 20.2-15.2 29-2.9 4.7-8.3 13.5-11.9 19.7-9.5 16-23.7 36.7-29.7 43.2-2.8 3.1-6.1 6.9-7.4 8.6-7.3 9.7-33.9 37.6-48 50.5-31.7 28.8-51.9 42.8-68.6 47.3-3.3.9-10.1 2.8-15.2 4.2-10.5 2.9-14.1 3.1-14.9 1-.3-.8.6-6.5 2-12.7 7.5-31.9 9.1-41.9 9-57.3-.1-13-.1-13-4.2-22.7-2.3-5.3-4.2-10.5-4.2-11.4 0-2.1 2.8-5.4 4.5-5.4 1.3 0 8.6-3.1 18.5-7.8 3-1.4 12.4-4.9 20.9-7.8 17-5.9 24.4-9.8 24.9-13.2.5-3.2-3.7-3.8-11.7-1.9-8.1 2-33.7 7-44.6 8.8-4.5.7-16 1.2-26.5 1.2-27.9-.1-49-2.2-70.7-7-7.8-1.7-10.3-1.4-10.3 1.6 0 3.6 4.5 6.1 21.5 12 11.7 4.1 31.2 13.9 33.6 17 2.5 3.2 2.5 3.9-1.7 16-3.5 10-3.6 11.1-3.5 23.1 0 10.2.7 15.4 3.5 28.5 4.7 21.7 5.3 24 8.1 30 3.1 6.4 3.2 10.1.5 11-1.9.6-14-1.7-18.6-3.5-1.2-.5-5.2-1.6-9-2.6-11-2.7-30.5-12.6-40.8-20.7-19.7-15.4-38.8-33.6-67.7-64.8-14.5-15.6-20.8-23.7-36.2-46.4-2.6-3.9-5.6-8.1-6.6-9.5-2.8-3.7-9.9-15-18.2-29-9.5-15.9-17.9-32.9-22.3-45-1.9-5.2-5-13.8-7-19.2-4.9-13.3-13.1-45.4-16-62.8-3.1-17.9-4.2-30.5-5.8-66-1.4-32.2.2-104.2 2.8-126 4.5-38.1 5.1-42.2 9.1-60.5 6.8-31.5 10.1-39.1 22.5-51.6 4.3-4.4 10.2-9.4 13.1-11.3 11.3-7.2 29-14.9 41.2-18 3.9-.9 9.5-2.3 12.5-3.1 23.2-5.9 57.4-11.4 87-13.9 9.6-.9 19.3-1.8 21.4-2.2 12.9-2.1 62.1-2.3 103.1-.4"/><path d="M522.5 375.7c-10.7 1.7-32.5 8.2-39 11.5-14.5 7.6-35.3 24.3-39.9 32.1-12.3 20.8-14.3 29.7-6.6 29.7 2.4 0 3.3-.7 4.9-3.8 4.2-8.2 20.3-18.4 34.5-21.6 18.1-4.2 46.4 0 66.6 9.8 14.9 7.3 25.8 15.9 47.6 37.3 20.2 20 33.3 35.4 38.3 45 2.5 5 4.4 6.5 7.3 6.1 2.2-.3 2.3-.6 2.2-10.8-.1-7.1-.6-11.6-1.7-14-2-4.6-10.2-16-16.6-23.3-3.4-3.9-4.9-6.3-4.3-7.2.4-.8 3.7-2.9 7.2-4.7 8.1-4.1 12.6-9.8 11.5-14.6-.3-1.7-2.3-4.7-4.3-6.7-7.4-7.2-45.4-28.4-64.7-36-16.9-6.7-39.2-11.5-40.8-8.8-.9 1.4 2.1 5.3 4.1 5.3.9 0 4 1.1 6.7 2.5 2.8 1.3 5.8 2.5 6.7 2.5 1 0 2.2.9 2.8 2 .8 1.5 2.1 2 4.9 2 2.1 0 5.2.7 6.7 1.5 1.6.8 3.7 1.5 4.7 1.5.9 0 1.7.5 1.7 1 0 .6 1 1.5 2.3 2 17.3 7.1 24.7 10.5 24.7 11.4 0 1.6 10.6 8 11.9 7.2 1.1-.7 4.9 1.8 10.1 6.8 5.8 5.6 6.4 8.8 2.5 14-1.4 1.8-2.5 4-2.5 4.9 0 3.7-8.5 5-11.9 1.9-1.1-.9-3.5-2.8-5.3-4.2s-6.7-5.9-10.9-10.1c-6.7-6.8-7.9-7.6-10.5-7.1-2.8.5-2.9.4-1.1-1.5 1.9-2.2 1.4-3.3-1.7-3.3-2 0-9.5-4.6-10.9-6.7-.4-.6-3.1-1.7-6.1-2.3s-6.2-2-7.1-3c-1-1.1-2.4-2-3-2-.7 0-1.8-.6-2.4-1.4-1.7-2.1-8-5.1-12.1-6-15.1-3-21.9-3.8-34-3.7-12.6 0-21-1-21-2.7.1-2.3 2.3-4 11-8.4 2.5-1.3 5.6-3.1 6.9-4 1.5-1.1 3.4-1.5 4.8-1.2 1.5.4 2.5.1 2.9-.9.3-.9 2.4-1.9 4.7-2.2 2.3-.4 5.3-1.7 6.9-2.8 2.5-1.9 3.7-2 17.5-1.4 14.4.6 16.2.9 33.8 6 2.2.7 4.5 1.5 5 1.9.6.3 4.8 2.1 9.5 3.8 10.4 4 23.8 11.4 34.5 19 10.2 7.3 12.2 8.3 15.1 7.6 1.8-.5 2.4-1.3 2.4-3.4 0-4.4-4.7-9.8-16.5-19.3-12-9.6-19.3-13.8-33.9-19.9s-19.8-7.2-37.1-7.5c-8.8-.2-17.3-.1-19 .2M473 411.5c0 1.6-.9 1.9-3.4.9-2.5-.9-1.9-2.4.9-2.4 1.6 0 2.5.6 2.5 1.5m134 55.7c0 1.6-.3 1.9-1.1 1.1-.6-.6-.8-1.6-.5-2.2 1.1-1.7 1.6-1.3 1.6 1.1m184-91.5c-20.2 1.2-50.8 11.9-66.5 23.1-15.3 10.8-26.7 24-24.9 28.7 1.4 3.6 7 .8 25.4-12.9 7.2-5.3 17.2-10.4 32.5-16.4 21.3-8.5 38.4-11.7 58.4-10.9 10.9.4 14.8.9 19.9 2.8 6.7 2.5 7.6 3.5 3.7 4.5-1.4.3-2.5 1-2.5 1.4s3.5 2.2 7.8 4c4.2 1.8 8.2 4 8.7 4.8.6.8 2 2.4 3.3 3.5 2.1 2 3 4.7 1.4 4.7-.4 0-1.8-.7-3-1.6-6.7-4.6-52.4-.6-59.3 5.2-.8.8-3.1 1.4-5 1.4s-4.4.6-5.5 1.4-4.2 2.1-6.9 2.9c-4.3 1.3-5 1.8-4.8 3.9.1 2.1-.2 2.4-2.6 2-2.1-.3-3.1.2-4.4 2.1-2 3.1-11.4 9.4-14.7 9.9-1.9.2-2.6 1-2.8 3-.2 1.8-1.1 2.9-2.5 3.4-1.2.3-5 3.3-8.4 6.5-3.4 3.3-6.8 5.9-7.6 5.9s-1.8 1.1-2.1 2.5c-.4 1.6-1.3 2.5-2.6 2.5s-2 .7-2 2c0 1.1-.4 2-1 2-.9 0-1.4-1.7-1.3-4.8.1-.7-1.7-2.4-3.9-3.8-2.1-1.4-4.1-3.3-4.4-4.2s-1-2.5-1.5-3.4c-.5-1-.9-2.5-.9-3.3 0-2 7.8-10.5 10.7-11.6 1.3-.5 2.8-2 3.3-3.3 1-2.7 4.8-3.9 10.5-3.4 2.6.3 3 0 2.8-1.9-.3-2.6 2.8-4.7 5.5-3.9.9.3 4.9-1 8.7-2.9 3.9-1.9 7.5-3.5 8-3.5.6 0 2.8-.9 5-2s4.4-2 5.1-2c.6 0 1.7-.7 2.4-1.5s2.3-1.5 3.7-1.5c3.4 0 12-2.9 13.4-4.6.7-.9 3.2-1.4 6.6-1.4 4 0 6.2-.6 8-2 1.4-1.1 3.7-2 5.1-2 5 0 20.2-3.5 20.2-4.7 0-1.7-17-2.6-26-1.4-12.6 1.8-17.8 2.9-28.4 6.1-11.6 3.6-44.8 18.8-51.8 23.7-2.6 1.8-5 3.3-5.2 3.3-.3 0-4 2.1-8.4 4.7-8.4 5.1-13.6 10.2-15.3 15.1-2.3 6.7 3 15 10.7 16.7 7.6 1.7 9.4 2.6 9.4 4.9 0 1.3-1.7 3.9-4.1 6.1-5.7 5.7-14.4 17.3-16.4 22-.9 2.2-1.9 7.8-2.2 12.5-.5 8.2-.4 8.6 2.2 11.3 1.9 1.9 3.5 2.7 5.3 2.5 2.1-.2 3-1.5 5.5-7.3 1.6-3.9 5.1-10.2 7.8-14 2.6-3.9 6.9-10 9.4-13.6 6.7-9.8 26.9-31.4 35.5-38.1 14-10.8 29.7-19.9 42.4-24.4 7.4-2.6 24-5.4 32.1-5.4 13.9 0 25 2.2 34.9 7 7.4 3.5 10.3 5.7 17.2 12.6 4.6 4.6 8.8 8.4 9.4 8.4 2.6 0 5-2.2 5-4.6 0-5.4-11.9-24.6-22.7-36.9-2.6-2.9-14.4-12.8-17.3-14.4-17.3-9.9-23.3-12.5-34.5-14.9-8.8-1.9-24.4-3.1-33.5-2.5"/><path d="M531 481.7c-9 .4-20.2 2.4-25.5 4.5-14.5 5.7-22 10.3-30 18.3-10.4 10.4-12.8 11.9-19 11.9-5.1 0-9.3-1.8-16.4-6.9-3.9-2.9-5.9-3.1-6.7-1-.8 1.9.9 5.9 5.2 12.6 2.1 3.3 3.4 6.6 3.4 8.6 0 1.7.6 3.5 1.3 4 .6.4 5.9.6 11.7.4 12.4-.3 21.5 1.4 32.1 5.9 16.5 7.1 25.7 9.1 43.4 9.7 22.7.8 44.6-3.9 66.2-14.2 16.3-7.7 19.8-13.8 13-22.7-4.7-6.1-18.1-14.8-32.7-21.1-15.6-6.8-18.3-7.7-23.4-7.7-2.3 0-5.7-.4-7.6-.9-5.2-1.3-8.9-1.7-15-1.4m10.7 13.5c1.7.8 3.3.8 6.4-.2 3.2-1.1 4.5-1.1 6-.2 1 .7 2.7 1.2 3.8 1.2 1 0 2.9.9 4.3 1.9 1.3 1.1 3.8 2.3 5.4 2.7 5.1 1.2 16.1 7.4 17.1 9.7.6 1.4 2.5 2.5 5.4 3.2l4.4 1.1v9.9l-3.9.6c-2.1.3-4.2 1.2-4.6 1.9-.9 1.4-16.4 7-19.5 7-1.1 0-4 .8-6.5 1.7-3.6 1.4-8.2 1.7-24 1.7-16.9 0-20.6-.2-27.4-2.1-4.9-1.3-8.3-2.9-9.2-4.1-1.2-1.8-1.8-1.9-4.8-1s-4.2.7-9.7-2.1c-10.6-5.2-11.5-6.3-7.6-9.9 1.2-1.1 2.8-2.8 3.5-3.7 1-1.1 2.2-1.4 4.3-1 3.2.7 3.8-.1 1.3-1.9-2.1-1.6-.8-4.5 2.5-5.2 3.6-.7 8.8-3.4 12.9-6.7 1.9-1.5 4.3-2.7 5.3-2.7s3.9-.7 6.5-1.6c3.3-1.1 5.4-1.3 6.8-.6 1.4.6 3.1.5 5.1-.4 3.3-1.4 12.6-.9 16.2.8m236.8-11.8c-10.2 1.8-29.5 8.4-38.6 13.3-8.4 4.5-19 13.8-21.3 18.7-.9 2-1.4 4.6-1.1 5.9 2.5 9.9 29.8 22.4 59.5 27.3 20.1 3.2 47.6-.7 68.5-9.8 14.9-6.6 24.4-8.1 32-5.2 7.3 2.9 9.3 2.9 10.4.3.5-1.3 1.2-4 1.5-5.9.4-2.2 2.7-6.1 6.1-10.4 3-3.8 5.5-7.2 5.5-7.6s-.7-1.3-1.5-2c-1.8-1.5-2.4-1.2-11.5 4.5-4.2 2.7-6.5 3.5-10.2 3.5-6.7 0-11.7-2.7-23.3-12.5-11.7-10-20.1-14.4-34-18.1-12.3-3.2-30-4-42-2m12.2 10.9c6.8-.4 11.1-.2 13.7.7 3.1 1 4 1 4.6 0 .8-1.3 3.1-1.1 8.5.9 1.7.6 4.1 1.3 5.5 1.5 1.4.3 3.8 1.7 5.4 3.1s3.7 2.5 4.7 2.5 2.3.8 2.8 1.9c.6 1.1 2.6 2.1 5 2.5 4.6.7 6.1 2.4 3.8 4.1-1 .7-1.7 1.7-1.7 2.4 0 1.7 3.1 1.3 4.6-.7 1.3-1.6 1.5-1.6 2.9.2.8 1.1 1.5 2.6 1.5 3.4s1 2.2 2.2 3.2l2.2 1.8-3.3 2c-1.8 1.1-4.9 2.3-6.8 2.7-1.9.3-4.3 1.5-5.5 2.7-1.5 1.5-2.9 1.9-5.6 1.6-2.1-.3-5.3.2-7.2 1-14 5.9-41 7.4-58.5 3.3-4.9-1.2-10.4-2.6-12.1-3.1-1.7-.6-3.6-1-4.3-1s-2.6-1.1-4.3-2.5c-1.6-1.4-3.6-2.5-4.4-2.5s-1.4-.4-1.4-1c0-.5-1.7-1.4-3.9-2-3.7-1-3.8-1.2-3.9-5.4-.1-3.2.4-4.9 1.9-6.1 1.9-1.8 2-1.8 3.3 0 1.2 1.7 1.6 1.7 3.1.5 1-.9 1.4-2.2 1.1-3.7-.5-1.9-.1-2.4 2.1-2.9 1.6-.3 6-1.9 10-3.5 3.9-1.6 7.6-2.9 8.1-2.9 1 0 6.3-2.3 10.1-4.5 1.6-.9 3.1-1.1 4.2-.5.9.5 6.1.7 11.6.3M728 609.6c-1.8 2.1 1.4 8.5 8.3 16.7 7.4 8.7 11.9 15.4 14.3 21.2l2 5 5.7.2c6.3.2 14.8 3.3 26.5 9.7 16.4 8.9 23.7 11.6 33.5 12.4 12.4 1.1 12.7 3.3 2.2 18-12.8 17.9-21 23.5-42.1 28.7-8.8 2.1-14.1 2.8-27.9 3.2-24.4.8-25.2.6-33.3-7.7-9.1-9.4-15.2-16.8-15.2-18.5 0-2.1 2.6-4.3 6.2-5 1.8-.4 6.2-2.2 9.8-4 7.2-3.6 23-14.2 23-15.4 0-1.7-2.8-4.1-7-5.9-8.9-3.8-16.6-15.2-25.5-37.7-4.3-10.9-7.2-15.5-9.6-15.5-1.5 0-1 10.5.7 15.1 2.4 6.4 2.4 23.7 0 30.6-5.1 14.9-22.5 24.1-40.2 21.3-12.4-2-20.1-7.8-25-18.7-2.2-5-2.4-6.9-2.4-19 0-11.5-.2-13.5-1.7-14-2.2-.8-4.6 2.3-11 14.4-5.6 10.7-9.3 14.6-19.5 21.4-3.7 2.4-7 5.2-7.4 6.2-1.7 5.3 14.7 18.1 25.9 20.2 7.9 1.5 8.6 5.3 2.4 14.1-5.4 7.9-9.4 12.3-13.6 15.3-3.2 2.3-4.1 2.4-17 2.3-7.5-.1-15.8-.6-18.6-1.1-2.7-.5-8.4-1.3-12.5-1.6-20.7-1.8-34.3-9.7-44-25.5-1.9-3-4.9-7.5-6.8-10-2.1-2.8-3.2-5.3-3-6.9.3-2.2 1.1-2.6 9.4-4.2 11.3-2.3 33.7-11.5 54.4-22.3 2.5-1.3 5.7-2.6 7.1-3 1.9-.4 4.3-3.1 8.9-10.3 3.5-5.4 8.7-12.6 11.7-16.1 5.9-7.1 6.9-11.3 3.2-13.2-1.7-1-3.1-.4-9.2 4.1-4 2.9-8.5 6.2-10.2 7.3-1.6 1.1-5.2 3.7-8 5.7-2.7 2-7.7 5.1-11 6.9s-6.7 3.8-7.5 4.5c-3.8 3.2-21.3 10.6-34 14.4-13.3 3.9-21.7 5.4-27.7 4.8-21.1-2-34.5-6.6-47-16.1-6.8-5.1-10.6-5.8-11.1-1.9-.2 1.1 1.6 5.9 4 10.5 4.8 9.1 6.1 12.2 10.8 24.8 3.4 9.2 8.1 21.1 10.8 27.4 4.2 10 25 49.8 29.3 56.2 7.1 10.5 25.7 33.4 39 47.9 15.4 16.8 24.4 26.1 25.5 26.8 1.9 1.1 5.4-1 5.4-3.2 0-1-2.1-4.7-4.8-8.2-2.6-3.5-6.3-8.7-8.3-11.5-5.6-7.8-17.9-28.6-17.9-30.2 0-1.1.8-1.3 3.3-.8 6.7 1.4 10.7 1.8 10.7 1 0-1.1-6.5-5.4-8-5.4-3 0-9.8-4.9-17.3-12.3-7-6.8-9.8-10.8-17.4-23.7-12.9-22.2-22.1-41-23.8-48.8-.8-4.1.7-6.2 4.6-6.2 3.3 0 3.4.2 7.5 10.2 3.5 8.3 7.9 15.9 14.9 25.3 2.5 3.3 5.6 7.6 6.9 9.5 4.3 6.4 12.4 13 22.6 18.7 11.3 6.2 38.7 13.2 65.5 16.8 6.6.8 16.5 2.2 22 3s13.2 1.9 17.2 2.5c13.8 1.9 51.4.6 65.9-2.4 3.8-.7 10.7-1.7 15.4-2 4.7-.4 11-1.1 14-1.6s10.2-1.6 16-2.5c22.9-3.5 29.6-4.9 42.5-9.2 9.1-3 19.3-10.3 29.6-21 11.3-11.8 17.3-20.4 25.4-36.8 4.7-9.5 5.2-10 8.4-10.3 5.5-.5 6.1 2.8 2 10.8-1 1.9-4.5 9.1-7.8 16-9.6 20-24.5 41.7-39.4 57.7-3.9 4.1-6.2 5.6-11 7.2-10.4 3.4-28.3 12.9-24.7 13.2 4.2.3 12.7-2.9 19-7.2 2.3-1.7 4.8-2.3 7.8-2 1.9.2 1.4 2.7-1.5 8.3-1.6 2.8-3.4 6.2-4.2 7.7-1.2 2.2-10.4 15.5-20.9 30.3-2.8 4-2.6 7.2.6 7.6 2.6.4 9.2-6 18-17.2 2.6-3.3 7.2-8.7 10.2-12 3.1-3.4 7.3-9 9.5-12.6 2.1-3.6 4.9-7.6 6.1-9 7.9-9 9.4-10.8 9.4-11.6s8.6-12.2 10.6-13.9c1.3-1.2 9.4-12.2 9.4-12.9 0-.2 3-4.8 6.6-10.3 7.4-11 14.2-24 16.9-32.3 1-3 3.4-9.3 5.3-14 2-4.7 4.8-12.6 6.3-17.6 3-9.9 5.4-14.4 11.9-21.9 3.2-3.7 4-5.4 3.8-7.9-.4-4.6-3.5-4.5-9.4.4-6.6 5.5-13.2 8.6-25 11.7-8.5 2.2-12 2.6-24.5 2.6-21.4 0-32.4-3.1-57.9-16-11.2-5.7-20-11-27.4-16.6-12.8-9.7-15-11.2-19.3-13.2-4.1-1.9-4.7-1.9-6.3.1M866 664c3.7 2 4.2 4.5 2.2 10.5-1.1 3-2.2 5.8-2.5 6.1s-2.5-.6-5-2c-5.5-3.2-7.1-3.2-12.7 0-2.5 1.5-6 2.8-7.7 3.1-2.9.3-3.3.1-3.3-2 0-1.2-1.3-3.8-3-5.7-3.6-4.3-3.6-4.4-.6-5.8 2.5-1.1 20.5-2 22.2-1 .5.3 2.5-.5 4.4-1.8 4.2-2.7 3.7-2.6 6-1.4m-390 3.2c5.2.7 12.8 1.3 16.8 1.3 3.9 0 7.2.3 7.2.8 0 .4-.9 2.5-2 4.7s-2 4.8-2 5.9c0 1-.7 2.2-1.6 2.5-1.9.7-5.4-2-5.4-4 0-1.7-4.2-2.8-7.7-2-1.4.4-4.5 2.3-6.9 4.2-4.6 3.8-6.7 3.9-9.8.5-1.7-1.9-4.7-13.9-3.8-15.4.2-.5 1.6-.6 3.1-.3 1.4.3 6.9 1.2 12.1 1.8m237.5 2.8c1.1 1 3 2.1 4.3 2.5 1.2.3 2.2 1 2.2 1.5 0 2-9.3 7.5-17.1 10.3-.9.3-1.9 1.9-2.2 3.5-.4 2.2-1.3 3.1-2.9 3.4-2 .3-2.3.8-2 4.5.2 4 .1 4.3-2.3 4.3-3.1 0-3.2 1.3-.2 3.2 1.2.9 2.8 3.2 3.6 5.3 1.7 4.9 9.9 15.5 12 15.5.9.1 2.5 1.5 3.6 3.2 1.5 2.5 3.9 3.9 10.5 6.5 8.3 3.2 8.9 3.3 23 3.3 8-.1 16.5-.5 19-1.1 8.2-1.8 13.4-2.8 18.3-3.5 2.8-.4 5.1-1.3 5.4-2.1.4-1.1 1.6-1.3 4.3-.8 2.8.5 3.9.3 4.3-.9.7-1.9 11.4-6.8 13.6-6.3 1.1.2.6.9-1.8 2.3-1.9 1-4.2 2.6-5.2 3.6-.9.9-2.6 1.9-3.8 2.3-1.2.3-2.4 1.7-2.7 3.1-.3 1.3-1.2 2.4-1.9 2.4s-2 1.1-2.8 2.4c-1.1 1.6-2.8 2.5-5.4 2.8-2.1.3-5.8 1.2-8.3 2.1-8.9 3.1-11.7 3.7-16.4 3.7-2.6 0-6.1.7-7.7 1.6-1.9 1-4.1 1.3-6 .9-1.7-.4-3.6-.2-4.3.4-.8.7-4.6 1.8-8.4 2.6-5.5 1.2-7.7 1.2-9.6.3-2-.8-3.2-.8-5.1 0-3.5 1.6-8 1.5-11.8-.2-1.8-.8-4-1.6-4.9-2-1.1-.3-1.8-1.5-1.8-3 0-1.4-.5-2.8-1-3.1-1.5-.9-4.1-7.5-3.4-8.6.3-.5-.3-1.2-1.2-1.6-1-.4-1.9-.2-2.2.5-.7 2.3-1.9 1.2-2.5-2.5s-5-9.3-7.3-9.3c-1.8 0-2.8-3.8-1.5-5.4.9-1.1.4-1.3-2.6-1.2-3.4.1-3.8-.2-4.1-2.7-.2-1.9-1.1-3.1-2.8-3.7-1.3-.5-2.4-1.4-2.4-2.1 0-.6-1.2-.9-2.7-.8-1.6.1-4.1-.2-5.6-.6-2.4-.6-3.4-.2-6.1 2.4-1.7 1.7-4.2 3.1-5.4 3.1-2.6 0-7.2 4.8-7.2 7.5 0 1.2-1.6 3.6-3.5 5.5s-3.5 4-3.5 4.7c0 .8-1.2 3.7-2.6 6.4-1.7 3.5-3.5 5.5-5.5 6.2-2.9 1.1-5.4 5.6-5.1 9 .2 1.5-.3 1.7-3.2 1.2-2.3-.5-4.4-.1-7.2 1.4l-3.8 2.1-2.2-2.1c-2.3-2.2-3.5-2.3-10.7-1.3-3.6.5-6.5.1-11.5-1.4-3.7-1.2-9.8-2.6-13.7-3.3-7.5-1.2-13.3-2.8-23.3-6.6-3.4-1.2-7.3-2.3-8.7-2.3-1.5 0-3.1-1-4.1-2.5s-2.6-2.5-4-2.5c-2.3 0-7.4-5.4-7.4-7.8 0-1.8 3.7-1.4 5.2.5 1.8 2.5 7.4 6.3 9.2 6.3.8 0 1.8-.5 2.1-1 .3-.6 1.9-1 3.5-1s3.2.4 3.5 1c.3.5 2.5 1 4.8 1s5.8.5 7.7 1.1c3.8 1.1 12.7 2 17.5 1.8 4.7-.3 8.6-.3 14.5 0 6.4.2 12.2-.9 16.7-3.2 3.7-1.9 18.3-15.6 18.3-17.2 0-.5.9-2.1 2-3.5s2-3.6 2-5c0-3 .9-4.4 3.3-5.3 2.5-.9 2.1-3.1-1.1-6.9-1.6-1.8-3.9-5-5.1-7.1-1.2-2-2.9-3.7-3.8-3.7-.8 0-2.8-1-4.3-2.3-1.6-1.2-4-3-5.4-4-3.2-2.2-3.3-4.3-.4-7.4 3.2-3.4 10.8-2.6 10.8 1.3 0 .8 1.2 1.9 2.6 2.4 1.8.7 2.5 1.6 2.1 2.8-1.2 4.4-1.2 4.7 1.3 5 3 .4 4.5 1.7 4.5 4 0 1.4.8 1.6 4 1.4 2.9-.2 5.3.4 8.8 2.4 5.7 3.2 16.6 4.7 24.2 3.3 2.7-.5 6.4-1.1 8-1.4 1.7-.2 3.6-1.4 4.4-2.5 1.6-2.4 4.4-2.6 6.5-.4 1.9 1.9 2.7.5 2.3-4.1-.1-2.2.3-3 1.8-3.3 4.3-.7 6.7-2.8 9.1-7.7 3.4-7.3 3.4-7.3 7.9-3.5M836 686.9c0 1.1-.4 2.3-1 2.6-.6.4-1-.5-1-1.9s.5-2.6 1-2.6c.6 0 1 .9 1 1.9m-15 28c0 1.2-2.9 3.5-3.6 2.8-1.1-1 .5-3.7 2.1-3.7.8 0 1.5.4 1.5.9m-154 1.3c.6.7 3.3 4.2 6 7.8s7.3 9.7 10.3 13.5c3 3.9 6 8.2 6.7 9.5.7 1.4 2.4 3.7 3.7 5.2 1.4 1.4 2.3 3.4 2.1 4.5-.3 1.7-1.3 1.8-14.3 1.3-20.6-.7-40.4-.6-45.6.3-3.7.6-5 .5-6.3-.9-1.5-1.5-1.3-1.9 3.4-5.2 5.6-4.2 16.7-17.5 22.5-27.2 2.1-3.6 4.6-7.3 5.4-8.3 1.7-2 4.6-2.2 6.1-.5m-142.4 5.9c.3.6.2 1.4-.2 1.9-1.1 1-5.4-.6-5.4-2 0-1.3 4.7-1.3 5.6.1M541 729c0 .5-.9 1-2 1s-2-.5-2-1c0-.6.9-1 2-1s2 .4 2 1"/><path d="M788 733.5c0 1.6 2.7 3.2 3.7 2.1.7-.7-1.6-3.6-2.8-3.6-.5 0-.9.7-.9 1.5m-27.6 58c-.4.9-.3 1.9 0 2.3.9.8 4.2-1.2 3.9-2.4-.4-1.6-3.3-1.6-3.9.1M323 410.5c0 .8.5 1.5 1 1.5.6 0 1-.7 1-1.5s-.4-1.5-1-1.5c-.5 0-1 .7-1 1.5M110.2 595.8c-1.1.7-.6 1.2 1.8 2 2.6 1 3 1.5 2.5 3.3-.5 1.4-.2 2.5.6 3 2.4 1.5-2.5 1.1-5.7-.5-1.6-.8-4.6-1.7-6.6-2-3.1-.6-3.9-.3-4.8 1.4-1 1.8-1.3 1.9-3.3.6-5.6-3.5-7.3-3-12.7 3.4-2.7 3.4-5 6.9-5.1 7.8 0 .9-.3 4.4-.5 7.6-.4 5.6 2.6 30.2 6.2 50.6 1.5 9 1.6 9.5 6.3 29 1.6 6.9 3.9 16.8 5.1 22 3.3 14.3 9.6 36.1 12.5 43.1 1.4 3.4 2.5 6.7 2.5 7.1 0 .9 5.8 16.4 10.7 28.8 7.2 17.9 25.1 54.1 34.5 69.4 4.5 7.6 8.9 15 9.7 16.4 1.5 3 20.7 31.7 24.9 37.3 28.7 38.5 50.7 63.5 62.7 71.3 5.2 3.5 9.5 5.1 15.8 5.9 3.5.6 3.7.4 3.7-2.3 0-1.6-.4-3.2-1-3.5-1.7-1.1-1.1-2.4 1.5-3.1 1.4-.3 3.2-.1 4 .6 1.2 1 1.5.7 2.1-1.7 1.5-7 1.7-7.3 7.1-12.5 1.2-1.1 2.7-3.4 3.4-5s2.3-3.4 3.6-3.9 2.6-1.6 3-2.6c.4-.9 2.7-4.5 5.2-8 13.2-18.2 20.7-29.3 27.2-40.6 2.1-3.7 5.7-9.9 8-13.7 2.4-4.3 3.8-7.7 3.4-8.8-.3-.9-2.6-3-5-4.5-5-3.2-25.7-25-32.5-34.2-2.4-3.3-6.7-9.2-9.6-13-7.6-10.2-25.7-41.7-36.8-64-1.1-2.2-2.3-4.7-2.7-5.5-1.3-2.6-7.9-17.1-11.6-25.5-7.7-17.7-18-51.8-21.8-72.5-5.1-27.5-6.5-39.1-6.8-54-.1-8.5-.6-16.1-1-16.8-.5-.6-2.7-1.2-4.9-1.2-2.3 0-6.7-.6-9.7-1.4-12.3-3.2-27.3-6-45.1-8.6-10.4-1.5-39.2-2.4-40.8-1.2m56.3 15.8c1.6 1.1 2.8 1.1 5.8.2 3.1-1 4-.9 5.5.5 1 1 3.5 1.7 5.5 1.7s3.9.4 4.2 1c.3.5 1.9 1 3.4 1 3.1 0 7.4 3.9 9.1 8.4.6 1.6 1.2 7.4 1.4 13 .5 11.4 2 21.1 6.7 42.4.5 2.3.9 6.6.9 9.6 0 3.5.5 5.8 1.5 6.6s1.5 3.1 1.5 7c0 5 .3 5.8 2.1 6.3 1.9.5 2 1 1.4 7-.7 6.1-.6 6.5 2.3 9.6 1.6 1.8 3.5 5.1 4.1 7.4 1.9 6.4 7.3 19.7 8.2 20.3.5.3.9 2.5.9 5 0 2.4.4 4.4.9 4.4.6 0 1.1 1.7 1.3 3.7.2 3.1.7 3.9 2.6 4.1 3 .4 4.4 3.5 3.6 7.6-.5 2.8-.2 3.7 1.5 4.8 1.2.7 2.1 1.7 2.1 2.1 0 .5 1.4 3 3.2 5.5 1.7 2.6 4 6 5.1 7.6 1.6 2.3 1.7 3 .6 3.7s-.9 1.3 1 2.8c2 1.5 2.3 2.4 1.7 5.5-.6 2.9-.4 3.6.9 3.6.8 0 1.5-.7 1.5-1.5 0-3.2 1.9-1.3 3.5 3.5.9 2.7 2.1 5 2.6 5 .6 0 .8.8.5 1.8-.4 1.2.4 2.8 2.4 4.7 1.7 1.6 3 3.9 3 5.2 0 1.4 1.5 4 3.5 6 2.3 2.3 3.3 4.3 3 5.3-.4 1.2 1.5 3.9 6 8.6 3.6 3.8 7.3 8.6 8.3 10.6.9 2.1 2.3 3.8 3 3.8s1.8 1.2 2.5 2.8c.7 1.5 3.9 5.5 7.1 9 3.3 3.5 6.8 7.6 7.7 9.2 1 1.6 3.6 3.8 5.9 5l4 2v7.5c0 4.3-.4 7.5-1 7.5-.5 0-1 1-1 2.3s-1.2 3.4-2.6 4.6c-1.8 1.5-2.4 2.9-2.1 4.3.6 2-4.4 9.7-6.7 10.7-.5.2-2.1 1.6-3.4 3-1.7 1.7-2.6 2.2-2.9 1.3-.3-.7-1.9-2.9-3.6-5.1-6.1-7.4-7.7-9.5-7.7-10.6-.1-1.8-3.9-5.7-5-5-.6.3-1-.3-1-1.5 0-1.9-4.9-8.4-12-15.9-1.3-1.4-2.5-3.2-2.6-3.9-.3-1.9-3.5-5.2-4.9-5.2-2 0-6.9-7.2-6.7-9.6.1-1.5-.8-3-2.8-4.4s-3-3.1-3.2-5.3c-.2-2.4-.8-3.3-2.5-3.5-1.2-.2-2.7-1-3.4-1.9-1.1-1.2-1-1.7.4-2.4 2.2-1.3 2.2-5.8.1-6.6-1.1-.4-2.3.2-3.4 1.7l-1.7 2.3-.6-3.9c-.4-2.2-2.4-6.3-4.4-9.3-5.2-7.5-8-12.6-8.8-16.1-.3-1.6-1.4-3.2-2.4-3.5-1.9-.6-5.1-5.5-5.1-7.9 0-.8-1.9-4.3-4.2-7.6-5.7-8-6.8-10.1-6.8-12.8 0-1.3-.6-2.2-1.5-2.2-.8 0-1.5-.8-1.5-1.9 0-1-.7-3.5-1.5-5.4-.8-2-1.5-5.1-1.5-6.9 0-2.4-.3-2.9-1.2-2-2 2-4.9-.5-4.6-4.1.1-1.8-.8-5.2-1.9-7.7-5.8-12.4-9.2-22.7-9.1-26.9.2-3.1-.3-4.7-1.5-5.6-.9-.7-2-2.7-2.3-4.4-.4-1.8-1.5-4.9-2.5-6.9-1.1-2-1.9-4.9-1.9-6.5s-1-4.5-2.1-6.4c-1.2-1.9-2.3-5.5-2.4-8.1-.5-8.5-2.5-17.9-5.6-26-.5-1.3-.9-5-.9-8.2 0-4-.6-6.9-1.9-9-1.5-2.5-1.8-4.7-1.5-11.5.3-7.7.1-8.5-1.5-8.5-2.4 0-3.3-3.7-2.5-10 .7-5.2.6-5.3-6.8-14.4-1.6-1.9-2.8-4.1-2.8-5.1 0-1.6.8-1.7 7.7-1 4.2.4 8.6 1.3 9.8 2.1m-73.4-.5c3.1 1.6 11.7 3.7 20.5 4.9 4.4.6 10.2 1.5 12.9 2 2.8.5 7.7.9 10.9.9 7.5.1 9.6 1.8 9.6 7.6 0 4.3 2.3 20.7 3.9 28.5.6 2.5 2.1 9.4 3.5 15.5 1.4 6 3.7 16.6 5 23.5 2.5 12.2 4.1 18.8 6.4 26 10.4 32.9 18.3 55 21.7 61.7.8 1.5 1.5 3.2 1.5 3.7 0 2 18.2 37.9 23.6 46.6 3.3 5.2 7.7 12.4 9.9 15.9 3.9 6.3 8.7 13.8 17.8 27.7 5.3 8.2 18.9 26.4 30.4 40.6 4.3 5.4 9.4 11.8 11.3 14.3s5.2 5.9 7.3 7.6c2.2 1.8 3.7 3.9 3.7 5.2 0 1.2-2.8 6-6.1 10.7-5.5 7.7-9.5 15.1-17.3 32.2-2.4 5.3-2.9 5.8-5.9 5.8-2.8 0-4.8-1.6-16-13.2-7.1-7.3-14.3-15.1-16-17.4-3-3.8-15.9-20.1-29.9-37.8-3.5-4.4-7-9.3-7.9-11-1-1.7-2.6-4-3.8-5-1.2-1.1-2.1-2.3-2.1-2.7 0-.7-3.6-6.3-12-18.9-.9-1.4-3.2-5.2-5.1-8.5s-3.8-6.7-4.4-7.6c-1.2-2-5.8-9.9-9.1-15.9-9.8-17.3-31.4-64.6-31.4-68.6 0-.4-.9-2.5-1.9-4.8-1.1-2.3-2.8-6.8-3.9-10.1s-2.4-7.4-3-9c-3-8-10.6-35.7-12.2-44-.6-3.3-1.7-8-2.5-10.5-2.8-9.3-5.7-22.9-7.5-35-1.1-6.9-2.2-13.4-2.5-14.5-.7-2.1-1.7-9.7-3.4-25.5-.6-5.2-1.6-11.6-2.2-14.3-1.6-6.7 1-9.4 6.2-6.6M899.5 746c-.4.6.5 1 1.9 1s2.6-.5 2.6-1c0-.6-.9-1-1.9-1-1.1 0-2.3.4-2.6 1M656 840.4c0 2 .5 3.6 1 3.6.6 0 1-1.3 1-2.9 0-1.7-.4-3.3-1-3.6-.6-.4-1 .8-1 2.9m308.8 90.9c-1.8 1.8-6.7 5.8-10.8 8.9-4.1 3.2-9.7 7.5-12.5 9.7-13.7 10.8-42.5 28.9-66 41.6-3.9 2-8.8 4.7-11 5.9s-5.8 2.9-8 3.8-11 4.6-19.5 8.2c-24.6 10.2-33.6 13.4-59 20.4-22.5 6.3-31.4 8.1-53.5 11.1-8.8 1.2-17.9 2.6-20.2 3.2-2.3.5-6 .9-8.2.9-2.1 0-4.7.3-5.6.6-2 .8-4.5 5.6-4.5 8.7 0 1.3-1.1 6.1-2.6 10.8-1.4 4.6-2.9 10.2-3.3 12.4-.5 2.2-2.7 11.2-5 20-3.8 14.6-6.6 31.9-5.4 33.7 1 1.7 2.4.6 5.3-4 1.6-2.6 3-5.8 3-7.1 0-1.8.3-2.2 1.1-1.4 1.4 1.4 1.5 11.9.1 13.5-.6.8-.7 2.9-.2 5.7.4 2.4.4 5.7-.1 7.3-.4 1.6-1.1 6.7-1.5 11.2l-.7 8.3 3.8 4.2c5.1 5.6 8.6 7.4 12 6.1 4-1.5 5.5-1.2 5.5 1.1 0 1.9.4 2.1 3.3 1.4 1.7-.4 4.5-.7 6.2-.7 1.6.1 3.9-.5 5.2-1.3 1.4-.9 4.8-1.5 9-1.5 6.7-.1 12.6-.9 35.3-5 6.3-1.2 15.6-2.5 20.5-3 5-.5 10.9-1.7 13.3-2.8 2.9-1.3 5.7-1.8 8.5-1.5 3.7.4 4.7 0 8.2-3.2 3.2-2.9 4.5-3.5 6.8-2.9 1.8.4 3.7 0 5.4-1.1s3.7-1.5 5.8-1.2c2.2.4 4.9-.3 9.1-2.4 3.2-1.6 6.9-2.9 8.1-2.9s2.5-.5 2.8-1.1c.4-.6 1.4-.8 2.3-.4.8.3 2.5-.3 3.7-1.5s2.6-2 3.1-1.9c4.5.8 10.6-.4 13.2-2.6 1.7-1.4 3.9-2.5 5-2.5 3.1 0 5.2-1.1 5.2-2.7 0-1.1.7-1.3 3.1-.8 2.3.5 3.6.2 5.2-1.2 3.4-3 16.3-9.3 19.1-9.3 1.6 0 2.7-.7 3.1-2 .5-1.4 1.5-2 3.7-2 1.7 0 3.9-.6 4.7-1.3.9-.7 3.4-2 5.6-2.9s4.7-1.9 5.5-2.3c2.6-1 5.9-3.1 7.9-4.9 1.1-1 4.3-2.7 7.3-3.9 2.9-1.2 7.9-4 11.1-6.2 7.8-5.3 9.9-6.5 12-6.5 1 0 1.7-.8 1.7-1.8 0-2.7 2-4.2 5-3.6 2.2.5 3.5-.2 7.1-3.9 2.5-2.4 5.8-4.7 7.5-5.1s3.4-1.6 3.9-2.9c.6-1.3 2.2-2.4 4-2.7 2.6-.4 12.8-8 21.3-15.8 1.4-1.2 3.6-2.2 4.9-2.2 1.8 0 2.7-.8 3.4-2.9.6-1.8 2.3-3.6 4.3-4.5 1.8-.8 4-2.4 5.1-3.6 1-1.1 2.3-2 2.9-2 .5 0 2.2-1.2 3.7-2.6 2.2-2.1 3-2.4 4.7-1.5 3.1 1.6 3.3 1.4 3-2.7-.3-3.4-.1-3.7 2.5-4 1.5-.2 2.7-.9 2.7-1.8 0-.8 1-2.4 2.1-3.5 2.6-2.6 3-10 .7-12.6-2.5-2.8-3.2-6.3-1.4-6.3 2.3 0 1.9-1.2-1.1-3.5-1.4-1.1-3.4-2.8-4.4-3.8-1.1-.9-2.5-1.7-3.2-1.7-.8 0-2.2-.9-3.2-2s-2.6-2.2-3.6-2.5c-1.1-.4-2.8-2.4-3.9-4.6-1.1-2.1-3.4-4.6-5-5.4-3.5-1.8-3.8-3.1-1-4 1.1-.3 2-1.2 2-1.9 0-1.8-30.4-29.7-38-34.9-12.5-8.6-21.7-13.7-24.4-13.7-.9 0-3 1.5-4.8 3.3m12.8 13.8c1.9 1.1 3.4 2.5 3.4 3s.7.9 1.5.9 3 1.5 4.9 3.2c1.8 1.8 4.5 4.1 5.9 5 2.3 1.6 5.7 6.9 5.7 9 0 .5-1.2 1.4-2.7 2-6 2.6-16.9 10.3-27.3 19.3-4.1 3.6-9.1 7.3-11 8.4-1.9 1-5 3.5-6.8 5.5s-3.8 3.3-4.4 3c-.6-.4-1.7.1-2.4 1.1-.9 1.2-2.1 1.6-3.9 1.3-2.1-.4-2.5-.1-2.5 1.7 0 1.6-1.1 2.7-4.1 4-2.2 1-5.7 3.4-7.7 5.2-2.5 2.3-4.3 3.2-5.7 2.9-1.4-.4-2.5.2-3.3 1.4-.7 1.1-1.7 2-2.4 2-.6 0-2.1.8-3.2 1.9-1.2 1-5.5 3.6-9.6 5.8-4.1 2.1-8.6 4.6-10 5.4-1.4.9-5.1 2.2-8.4 2.9-3.4.8-6.3 2.1-6.9 3.2-.7 1-1.7 1.8-2.2 1.8-.6 0-2.6 1.1-4.5 2.5s-4.7 2.5-6.2 2.5-2.8.4-2.8.8c0 1.5-10.4 6.2-13.8 6.2-2.2 0-3.9.8-5.5 2.6-1.8 2.2-2.8 2.5-5.8 2-2.5-.4-4-.1-4.8.8-.6.7-4.1 2.8-7.7 4.7-6.1 3.1-6.7 3.2-7.9 1.6-1.7-2.3-3-2.1-4.8.7-1.3 1.9-3 2.5-9.1 3.5-7.8 1.1-19.1 4.5-21.5 6.5-.8.6-4.6 1.4-8.5 1.8-14.8 1.5-22.5 2.7-24.6 3.8-1.3.7-3.8 1-5.6.7-2.2-.4-3.7-.1-4.5 1-.9 1-2.2 1.3-4.3.8-5.4-1.1-8.8-.6-11.2 1.6-2 1.8-3 2.1-6.6 1.4-10.7-1.8-18.2.6-23.4 7.6-5.2 7.2-7.5 4.3-3.4-4.3 1.1-2.3 2-6 2-8.3 0-2.2.4-4.5.9-5 .5-.6 1.6-3.9 2.5-7.4 2.3-8.9 5.4-14.3 9.1-15.6 1.7-.5 3.4-1.5 3.8-2.2.5-.8 2.8-1.3 5.7-1.3 2.7 0 5.2-.5 5.5-1 .3-.6 1.7-1 3.1-1 1.7 0 2.4.5 2.4 2 0 2.8 3.3 2.6 4.5-.3.9-2 1.7-2.2 9.9-2.4 6-.2 9.6-.7 11.2-1.8 1.3-.8 3.1-1.5 4.1-1.5s4.5-1.1 7.8-2.5c3.3-1.3 7.8-2.5 10.1-2.5 2.2 0 4.4-.3 4.8-.7 1.5-1.5 8.4-3.3 13.2-3.3 3.2 0 5.6-.5 6.3-1.4.7-.8 3.1-1.6 5.4-1.9 5.7-.7 13.4-3 14.9-4.5.7-.7 3.1-1.2 5.4-1.2 3.7 0 4.5-.4 5.6-2.7.9-1.9 2.6-3.1 5.4-3.9 2.2-.6 5.5-1.9 7.2-2.8s4.1-1.6 5.4-1.6 3.7-.9 5.3-2c1.7-1.1 3.7-2 4.5-2 .9 0 2.3-.9 3.3-2 .9-1.1 2.9-2 4.6-2 2 0 3-.6 3.4-2s1.4-2 3.5-2c1.7 0 3.3-.4 3.6-.9s2.5-1.8 4.8-3c2.4-1.2 6.8-3.5 9.8-5.2 3-1.6 5.9-2.9 6.5-2.9s2.1-1.3 3.3-2.9c2.3-3.2 5.7-4.2 8.4-2.7 2.1 1.2 3.8-.1 1.8-1.4-1.2-.7-1.1-1.2.4-2.9 1.1-1.2 2.8-2.1 3.8-2.1 1.1 0 3.4-1.1 5.2-2.5s3.7-2.5 4.3-2.5c.5 0 1.8-.9 2.8-2s3.1-2 4.6-2c2 0 3.5-1 5.5-3.5 1.4-1.9 3.2-3.5 4-3.5.7 0 4.8-3.1 9.1-7 4.3-3.8 8.5-7 9.5-7 1.8 0 8.8-6.3 8.8-7.9 0-.9 1.4-1.2 7.9-1.9.7-.1 2.9.7 4.7 1.9m32.6 36.2c8.7 8.6 22.6 20.1 32.2 26.7 11.7 8 11.8 7.6-8.9 23.2-9.3 7-18.3 13.9-20 15.2-7.1 5.8-35.9 25.2-46.7 31.5-24.1 13.9-32.9 18.7-47.4 26.1-9.4 4.9-21.4 10.5-26.5 12.5-5.2 2-10.7 4.4-12.4 5.2-7 3.4-19.6 8.2-28 10.7-4.9 1.5-12.8 4-17.5 5.6-11 3.7-33.7 10.4-42 12.4-17 4.1-60.1 11.6-66 11.6-4.2 0-29.2 3.6-33.5 4.9-1.7.4-4 .4-5.4-.1-2.1-.7-2.3-1.3-1.8-4.6.7-4.3 2.7-12.4 5.7-23.7 2.7-9.9 5-24.3 5-31.1 0-6.3.3-6.4 11.7-6.4 14.6 0 52.3-5.4 70.3-10 1.9-.5 7.6-1.9 12.5-3 11.8-2.9 15.4-4 38.5-12.2 18-6.4 24.4-8.9 35.7-13.9 2.3-1.1 4.5-1.9 4.9-1.9s1.5-.6 2.3-1.3c.9-.7 6.3-3.5 12.1-6.1 13.3-6.1 25.3-12.2 34.7-17.9 6.7-4.1 27.3-17.2 33.6-21.4 12.2-8.2 39-29.6 44.6-35.7 1.4-1.4 3.3-2.6 4.3-2.6.9 0 4.6 2.8 8 6.3m-654.3-48.5c-3 2.1-8.1 5.3-11.4 7.1-3.3 1.9-9.5 6-13.8 9.2-4.4 3.3-8.3 5.9-8.8 5.9-1.3 0-16.2 13-18.6 16.3-1.3 1.7-2.8 3.4-3.4 3.8-2.4 1.5 0 3.8 4.3 4.1l4.3.3-2.8 1.4c-2.3 1.2-2.7 1.9-2.2 4.1.8 3.6-1.8 5.9-4.6 4.2-2-1.3-3.9-.8-3.9.9 0 1.3-4.2 7-9.2 12.6-2.1 2.4-3.8 4.7-3.8 5.3 0 .5-1.8 1-4.1 1h-4l.7 4.7c.8 6.2 2.4 9.6 7.8 16.4 4.4 5.6 18.6 17.6 28.6 24.2 3 2 11.4 7.7 18.5 12.7 7.2 4.9 15.9 10.7 19.5 13 3.6 2.2 8.8 5.5 11.7 7.2 17.9 11.2 22.6 13.8 53.3 29.4 17.4 8.8 31.2 15.4 32.4 15.4.6 0 1.9.5 16.6 7 15.6 6.8 21.3 9 23.1 9 1 0 2.6 1.1 3.4 2.4.9 1.4 2.8 3.2 4.1 4.1 2.4 1.5 2.7 1.5 7.1-1.4 2.6-1.7 5.1-3.1 5.7-3.1 2.8 0 8.6 2.2 8.1 3.1-.4.5 0 1.1.7 1.3s3.6 1.2 6.3 2.1c5.1 1.7 11.4 3 22 4.4 3.3.4 7.3 1.3 8.8 1.9 1.6.7 5.2 1.2 8.1 1.2 3 0 6.9.7 8.9 1.5 3.7 1.5 11.2 2.6 37.2 5.1 11.3 1.1 16.5 2 17.7 3.1 1.8 1.6 2.7 1.6 14.4-1 4.4-1 7.5-2.5 10.7-5.2 4.4-3.7 4.5-3.8 5.6-12.4.6-4.8 1.1-10.1 1.1-11.8 0-3.5-2.7-14.8-4.2-17.7-.7-1.2-.6-2.2.1-2.9.8-.8 1.5 0 2.7 2.8.8 2.2 2.6 4.8 3.8 5.7l2.3 1.7.6-7.1c.8-9-2.2-30.2-6.4-45.8-6.6-24.5-7.9-29.6-7.9-31.1 0-.9-.9-2.8-2.1-4.3-1.9-2.5-2.5-2.6-11.2-2.6-21.4 0-63.2-6.8-86.2-14-16.6-5.2-54.4-18.9-60.6-22-2.4-1.2-6.6-3-9.4-4-8.3-3-24.4-12.1-46.5-26-6.9-4.3-16.5-10.4-21.5-13.4-9-5.6-27.4-19.7-37.3-28.7-6.6-6.1-9-6.2-16.3-1.1m10.3 11.4c1.7 1.3 4.4 3.7 6.2 5.4 1.7 1.7 4.3 3.4 5.9 3.8 1.5.3 2.7 1.3 2.7 2.1s1 2 2.3 2.6c1.2.7 3.7 2.5 5.5 4 1.8 1.6 4.8 3.6 6.7 4.4 3.9 1.6 4.4 2.9 1.8 4.5-1.4.8-1 .9 1.9.4 2.1-.3 4.5-.3 5.4 0 1.5.6 1.5.8-.2 2-2.1 1.6-2.5 1.3 6 3.1 1.4.3 4.2 2.1 6.3 4.1 4.6 4.4 11.9 9.4 13.7 9.4.7 0 2.4.8 3.7 1.7 3.6 2.7 6 4.2 9.9 6.1 1.9 1 5.1 2.8 7 4s4.8 2.2 6.3 2.2c1.8 0 3.9 1.1 5.9 3 1.8 1.9 4 3 5.7 3 1.5 0 4.2 1.1 6.1 2.5s4.2 2.5 5.3 2.5c1 0 3.1.8 4.5 1.9 1.5 1 4.5 2.4 6.7 3.1s4.9 1.8 6 2.5c1.1.6 3.3 1.5 4.8 1.9 1.7.4 3.1 1.7 3.7 3.2.8 2 1.4 2.4 2.8 1.8.9-.4 3.6-.9 5.9-1.2 3.8-.3 4.4-.1 5.2 2 1 2.7 6.4 4.8 12.1 4.8 1.9 0 4.1.6 4.9 1.3 1.6 1.3 5.2 2.4 19.6 5.9 11.3 2.7 22 4.8 29 5.6 3.3.4 6.6 1.2 7.4 1.7.8.4 6.5 1.2 12.5 1.6 19 1.4 24.1 2.1 25.6 3.4.8.8 2.8 1.9 4.4 2.4 2.1.9 2.7 1.6 2.3 3.1-.3 1 1 6.3 2.9 11.7 1.9 5.5 3.4 11.9 3.4 14.5s.5 5 1 5.3c.6.3 1 2.7 1 5.3l-.1 4.7-2.2-2.6c-3.9-4.6-10.8-7.8-18.3-8.4-3.8-.4-8.5-1.2-10.4-1.8s-5.4-.9-7.8-.8c-3.3.2-5.3-.4-8.3-2.3l-3.9-2.6-2 2c-2.4 2.4-8.2 2.7-10.1.4-1-1.3-2.4-1.5-6.1-1.1-4.1.5-4.9.3-5.9-1.4-.9-1.7-1.7-1.9-5-1.4-2.9.5-4.5.3-5.7-.8-1.1-.9-3.9-1.4-7.9-1.4-4.2 0-6.9-.5-8-1.5-1-.8-4.5-2.1-7.8-2.8-3.3-.8-8.4-2.4-11.3-3.7s-5.9-2.3-6.8-2.3c-.8 0-2.5-.6-3.7-1.4s-4.4-1.7-7.1-2.1c-6.2-.8-7.6-1.4-7.6-3s-2.2-2.5-4.7-1.9c-1.2.3-4.7-1-8.5-3.1-3.6-1.9-8-3.8-9.8-4s-4-1.1-4.9-1.9c-1-.9-2.9-1.6-4.3-1.6s-3.7-1.1-5.1-2.4-4-2.7-5.7-3.1-3.4-1.4-3.7-2.3c-.9-2.4-2.5-3.2-4.9-2.6-2.3.6-11.4-3.8-12.7-6.2-.5-.8-1.2-1.2-1.8-.9-1.9 1.3-13.5-4.9-18.1-9.7-2.6-2.6-5.5-4.8-6.3-4.8-2.6 0-9.8-4.1-12.8-7.2-1.9-2-3.3-2.7-4.6-2.3-1.6.5-2 0-2.3-2.2-.2-2.1-1-2.9-2.8-3.3-2.6-.5-6.6-2.9-11.3-6.7-1.6-1.3-3.9-2.3-5.1-2.3-1.5 0-3.9-1.8-6.8-5-3.3-3.6-5.3-5-7.2-5s-2.6-.5-2.6-1.9c0-3.6-1.2-5.1-4-5.1-1.5 0-3.5-.9-4.5-2s-3.7-3.1-6.1-4.5c-5.2-3-9.7-7.3-8.9-8.5.3-.4 1.6-1.1 3-1.4 2.9-.7 11.5-6.4 11.5-7.6 0-.4 1.1-1.1 2.4-1.4s3.8-2 5.6-3.6c3.3-3.1 7.7-5.9 9.3-6 .5 0 2.2 1 3.9 2.2M323 970c0 1.1-.4 2-.9 2-1.4 0-2.3-1.8-1.6-3 1-1.7 2.5-1.1 2.5 1m12.5 9.3c3.5 5.5 25 21.3 58.5 43.4 8 5.2 16.3 10.8 18.5 12.3s6.7 3.9 10 5.4c3.3 1.6 12.8 6.1 21 10.1 8.3 4 18.8 9 23.5 11s9.9 4.3 11.5 5c6.3 2.8 18.3 7.3 25 9.5 3.9 1.3 11.9 4 17.8 6.1 11.9 4.3 44.9 12.2 59.7 14.5 14.4 2.1 37.7 4.4 45.2 4.4 7.6 0 9.8 1.4 9.8 6.2 0 1.6 1.3 8 2.9 14.1 1.7 6.2 3.5 15.2 4.2 20.2.6 4.9 1.7 11.4 2.4 14.3 1.6 6.9.2 8.7-5.9 7.8-4.3-.7-23.5-2.9-39.1-4.6-14.3-1.5-38.9-5.7-56-9.5-35.9-7.9-65-17.4-105-34.3-12.5-5.3-48.6-24.2-65.5-34.4-9.1-5.5-17.4-10.5-18.5-11.1-16.6-10-66-46-68.7-50.1-.4-.6-.8-2.3-.8-3.8 0-2.2.9-3.3 4.3-5.4 2.3-1.5 7.4-5.4 11.3-8.8 4-3.4 10.6-8.8 14.8-12.1 4.3-3.3 8.8-7.5 10.2-9.3 3-3.9 6.7-4.3 8.9-.9"/><path d="M291 984.1c0 1.1.5 1.7 1 1.4.6-.3 1-1.3 1-2.1s-.4-1.4-1-1.4c-.5 0-1 .9-1 2.1m792.8 68.9c-2 2.3-3.5 3-6.5 3-2.1 0-5.7.9-7.9 1.9-2.3 1-5.7 2.2-7.5 2.6-1.9.4-4.2 1.7-5.2 2.8l-1.8 2.2.6-2.3c.5-1.6.2-2.2-1-2.2-1.9 0-3.4 3.2-1.7 3.8 2.3.7 1.2 3-2.8 5.6-2.4 1.5-4 3.4-4 4.6 0 1-.5 2.2-1 2.5-.6.4-1.7 2.2-2.5 4.1s-2.1 3.4-2.9 3.4c-2.3 0-2.3 19.1-.1 21 .8.7 1.5 2.2 1.5 3.4 0 1.3 1.1 3.3 2.4 4.5 1.4 1.3 2.9 3.5 3.6 5 1.1 2.8 9 10.1 10.9 10.1 1.7 0 2.3 2 1.1 3.5-.9 1.1-.7 1.6.9 2.4 1.1.6 2.9 1.1 4.1 1.1 1.3 0 2.4.8 2.7 1.9.6 2.2 6.2 3.2 15.3 2.7 18.4-1 37.6-18 41.6-37 2.6-12.2-2.1-27.7-11.5-38-4.3-4.7-12.4-10.3-18.9-13-3.4-1.4-6.3-2.6-6.4-2.6-.2 0-1.5 1.3-3 3m7.4 11.7c4.8 1.4 7.4 2.9 11.9 7.1 6.2 5.7 9.1 11.5 11.1 22.3 1 5.3.9 6-1.9 12-1.7 3.5-5.2 8.7-7.9 11.6-6.5 6.9-12.6 9.5-23.1 10.1-7.4.4-8.8.2-13.5-2.1-6.9-3.4-10.9-7.6-15.2-16.2-3.1-6-3.6-7.8-3.6-14.1 0-3.9.6-8.7 1.4-10.5 3.3-7.9 13.1-15.8 24.6-20.1 5.9-2.1 8.7-2.2 16.2-.1"/><path d="M1075 1074.3c-5.1 1.7-12.6 9.3-13.9 14.4-1.7 6.1-.4 13.5 3.2 18.9 3 4.5 9 9.4 11.5 9.4 2.6 0 21.7-6.3 23.9-7.9 3.6-2.6 4.6-6.4 4.1-15.1-.4-6.3-1-8.7-3.1-11.8-4.9-7.5-16.1-10.9-25.7-7.9m15.7 5.2c3.2 2.3 4.6 7.7 3.8 14.9-.5 5-1.4 7.1-4.6 11.3-2.2 2.9-5.3 6-6.9 6.8-2.8 1.5-3 1.4-6.3-1.9-4.8-4.7-6-12.6-3.6-23.5 1.5-6.9 2.2-7.4 14.4-9 .6 0 2 .6 3.2 1.4"/><path d="M1081.7 1090.7c-2.2 2.2.4 11.6 3 11.1 4.1-.8 3.6-11.8-.5-11.8-1 0-2.2.3-2.5.7m-581.2 141.1c-7.5.5-8.5 1-8.5 4.3 0 1.7.6 3.2 1.5 3.5 2.2.9 1.8 2.4-.6 2.4-2.5 0-11.9 5.1-11.9 6.5 0 .5-1.4 2.3-3 4-1.7 1.7-3.8 5.4-4.8 8.3-1 2.8-2.6 6-3.5 7-1.1 1.2-1.7 3.6-1.7 6.5 0 3.5-.4 4.7-1.5 4.7-.8 0-1.9 1.7-2.6 4.2-.7 2.4-2.5 5.3-4 6.5-1.5 1.3-3 3.5-3.4 5-.3 1.6-2 4.8-3.6 7.3-2.4 3.5-2.9 5.2-2.4 7.5 1.2 5.5.8 8.5-1.3 10.8-1.2 1.2-3.3 4.8-4.7 8-2.9 6.6-4.8 7-5.3 1.2-.2-2.1-1-4.4-1.8-5.2-.8-.9-1.5-3.7-1.5-7.1-.3-9.2.2-19.6 1-20.4 1.1-1.2.3-38.7-.9-42.3-1.4-4.2-8.1-11.2-12.5-13.1-2.4-1-7.5-1.4-16.6-1.4-14.2 0-16.4.6-22.9 6-3.3 2.7-3.5 3.3-3.6 8.9-.1 3.4-.7 6.7-1.4 7.5-.6.8-.9 2.3-.6 3.3 1.2 4 1.7 26.9.7 29.6-1.5 4-5.2 5-17.1 4.8-12.1-.2-17.5-1.4-19-4.1-1.6-3.1-3.2-29.8-1.9-33.4 1.4-4.2-.6-8.9-6.6-15-5.9-6.1-9.5-7.5-20.9-8.3-16.3-1-22.7 1.9-30.6 14.1-4.7 7.2-5.5 7.3-12.5 2.6-4.9-3.4-14.8-8.3-19.5-9.8-12.8-4.2-34.2-5-81.5-3.3-17.4.6-21.7 1.1-24.8 2.6-3.6 1.8-3.9 1.8-9 .1-7-2.4-22.8-3.3-62.2-3.5-18.5-.1-37.8-.8-44-1.5-13.1-1.5-17.7-.8-24.4 3.6l-5.1 3.3v39.1l2.8 2.1c7.2 5.3 11.3 6.6 23.4 7.3 11.9.7 13.7 1.3 16.1 5.4.8 1.5 1.4 13.6 1.8 41.1.5 32.5.8 39.7 2.2 43.2 6.3 16.5 21.9 26.6 36 23.3 5.7-1.4 8.2-3.3 13.2-10.1 5-6.7 5.5-11.9 5.5-57.7v-40.3l2.5-2.5c2.4-2.4 2.9-2.5 13.2-2.2 6 .1 11.5.5 12.3.9s2.3 1 3.2 1.3c1.3.4 1.8 1.6 1.7 4.3 0 2.1.4 23.1.8 46.8l.8 43 2.8 5.7c5.7 11.5 14.6 16.2 29 15.3 9.5-.6 14-2.7 19.6-9.1 6.2-7.1 8.3-14.7 7-26.4-1.1-11.4-.5-12.9 5.4-13.1 12.7-.4 20 .3 23.2 2.5 1.8 1.1 4 2.5 4.9 3.1 1.3.8 1.7 3.3 2.2 12 .5 9.4 1 11.9 3.5 17.2 3.4 7.1 9.4 12.8 15 14.3 6.8 1.8 27.7 3 33.8 1.8 3.1-.5 7.4-.8 9.6-.5s8.7.2 14.4-.3c6.3-.5 11.4-.4 12.9.1 2.6 1 2.5 1 13.7-6.9 2.6-1.8 4.4-4.1 5.2-6.5 1.5-4.5 3.4-22.3 3.4-32.5 0-15 1.5-15.9 24.9-14.9 1.4 0 4.1-.1 6-.4 5.8-.7 6.5 2.1 6.5 24.6.1 22.2.9 26.6 5.8 29.1 1.8 1 4.6 2.7 6.2 3.9 6.3 4.7 23.7 5.5 31.3 1.5 3.2-1.8 3.6-1.8 10 .1 3.7 1 8.7 1.9 11.2 1.9 2.5.1 6.5.5 8.9.9 3 .6 5.1.5 7-.4 1.4-.7 4.9-2.3 7.8-3.6 3.9-1.6 5.5-2.9 6.2-5.1.9-2.4 1.4-2.8 3.6-2.2 2.2.5 2.5.3 2.5-2 0-1.4 1.4-4.8 3-7.4 1.7-2.7 3-5.4 3-6 0-1.8 3.2-2.4 17-3.4 20.9-1.4 24.8-1.2 30 2 3.4 2.1 4.6 3.5 5.1 6.2.4 1.9 1.2 3.6 1.8 3.8s1.1 1.3 1.1 2.4c0 2.8 5.5 8 11.8 11.2 4.1 2.1 7.6 2.8 17.1 3.6 8.4.8 12.7.8 14 0 1.1-.5 3.1-1 4.4-1s3.2-.9 4.2-2c1.1-1.2 3.1-2 5.1-2 2.6 0 3.3-.4 3.6-2.3.3-2.5 4.3-3.6 6.1-1.8.6.6 3 1.1 5.3 1.1s4.4.5 4.6 1.1c1.8 5.3 45.2 11.4 63.3 8.8 4.4-.6 9.6-1.6 11.5-2.2s5.3-1.2 7.5-1.3 4.1-.8 4.4-1.5c.7-2.3 5.2-5.8 8.2-6.4 1.7-.4 3.5-1.5 4.2-2.6.6-1 2-1.9 3-1.9s3.3-1.5 5.1-3.4 4.5-3.8 6.1-4.2c3.9-1 5.5 1.5 5.5 8.7 0 5.1.2 5.7 1.9 5.2 1.1-.3 2.5.4 3.7 1.9 1.1 1.3 3.9 3.5 6.4 4.8 4 2.2 5.7 2.4 16 2.3 17.1-.1 22.3-2.1 27.7-10.6 1.9-3.1 2.6-5.6 2.8-10.6.5-11.6 1.7-23.1 2.6-23.6.4-.3.5-2.1.2-3.9-.5-3.2-.3-3.4 2.7-4.1 3.7-.8 5 .4 5 4.7 0 1.6.5 2.8 1 2.8.6 0 2 2.1 3 4.6 1.7 3.8 2.3 4.4 3.5 3.4 2.2-1.8 3.5-.3 3.5 4 0 5.1.8 7 3 7 1.2 0 2.2 1.2 3 3.5 1 3 3.7 6.4 8.9 11 .6.5 2.4 2.3 3.9 4 5 5.4 8.6 6.6 21.2 7.2 14.6.7 13.7.8 25.5-1.2 7.8-1.3 10.5-1.4 12.5-.4 1.4.6 6.4 1.4 11.2 1.7 7.4.4 9.2.2 13-1.7 2.4-1.1 5.5-2.1 6.7-2.1 1.3 0 3.6-1 5.1-2.2 1.5-1.3 3.5-2.8 4.5-3.3 2.6-1.6 3.5-9.8 3.3-31.2-.2-21.3.2-23.1 5-21.1 3.6 1.5 6.2 4.5 6.2 7.1 0 1.2 1.6 3.8 3.7 5.9 2.6 2.7 3.6 4.5 3.5 6.7 0 2.4.5 3.1 2.9 4 3.1 1.1 3.2 1.5 1.2 6.7-.7 2 1.7 2.7 3.6 1 2.6-2.4 3.1-2 3.1 2.2 0 2.6.8 4.8 2.9 7.2 1.5 1.9 3.6 5 4.5 6.7 1 2 2.4 3.3 3.6 3.3 2.5 0 3.5 1.7 2 3.5-.9 1.1-.7 1.6.8 2.4s2.3.7 3.3-.5c1.1-1.3 1.5-1.2 3.4 1.2 1.8 2.2 3.4 2.9 8.6 3.6 7.4 1.1 6.4 1.1 19.7.2 5.6-.4 10.5-1.1 10.8-1.5.3-.5 1.6-.9 2.9-.9 1.6 0 3.5-1.4 5.8-4.3 3.7-4.5 5-10.2 4.7-20.2l-.1-5 2.1 2.3c1.1 1.2 3.2 2.2 4.5 2.2 3 0 13 11 13 14.3 0 1.6.9 2.5 3.2 3.2 1.8.6 4.6 2.1 6.2 3.3 3.5 2.5 8.7 4.6 19.1 7.4 6.3 1.8 10.6 2.1 27 2.2 21.1.1 24.9-.5 37.8-5.6 11.2-4.5 18.1-9 28.8-18.8 11.6-10.7 13.1-11 15.6-3.3 1.9 6.1 5 10.9 9.8 15 5.3 4.6 7.6 5.4 14.5 5.4 15.4 0 27.6-11.9 30.5-29.8.6-3.2 1-12.2 1-20 0-13.8.9-19.3 3-19.3 1.1 0 9.8 13.2 16 24.1 5.8 10.2 17.9 28.1 21.8 32.3 7.9 8.2 16.9 12 28.2 12 8.6 0 12.8-1.8 20.5-8.4 2.5-2.2 5.5-4 6.6-4 1.9 0 1.9-1.4 1.9-72 0-60.3-.2-72-1.4-72-.7 0-3.6-1.8-6.4-4-4.9-4-11.6-7-15.4-7-3.7 0-9.6 4-15.5 10.4-7.6 8.3-8.3 11.3-9.2 37.3-.6 20.5-1.2 23.3-4.5 22-1.4-.6-6.6-8.2-20.9-30.7-3.3-5.2-6.8-10.7-7.9-12.2-1-1.5-1.8-3-1.8-3.3s-2.3-3.7-5.1-7.6c-9.5-13-17.7-17.2-33.9-17.3-12.1-.1-17.2 1.7-23.3 8.3-4.4 4.7-5.9 8-8.1 18.3-1 4.3-4.4 3.6-9.6-1.8-10.4-10.7-26.2-20.8-39.7-25.3-25.8-8.6-44.8-7.6-72.9 3.9-8.8 3.6-10.3 4.6-17 11.7-4.1 4.2-7.4 8-7.4 8.4 0 .3-1.3.9-2.9 1.2-1.9.4-3.2 1.4-3.6 2.9-.8 2.5-4.3 6.3-5.1 5.5-.3-.3 0-2.3.6-4.6.9-3.3.8-4.6-.5-7.2-1-1.8-1.4-4.1-1-5.8.9-4.1-3.5-12.1-8.6-15.6-3.6-2.5-5.2-2.9-13.2-3.3-8.2-.4-9-.3-7.9 1.1 1.6 1.9 1 2.3-5.1 3.1-6.5 1-11.7 3.3-11.7 5.2 0 .9-1.3 2.1-3 2.7-2.7 1-2.9 1.4-2.4 4.8.4 2 0 5.4-.7 7.5-.8 2.5-1.3 10.4-1.5 21.9-.1 9.9-.2 19-.3 20.2-.2 3.5-2.8 2.7-4.1-1.1-.8-2.4-2-3.8-4.1-4.5-1.7-.6-2.8-1.5-2.5-2 1-1.5-1.2-6.1-2.9-6.1-.9 0-2-1.1-2.5-2.5-1.7-4.5-8.5-14.4-10.2-15-1.2-.4-1.8-1.7-1.8-3.4 0-1.6-.8-3.9-1.8-5.2s-3.1-4.6-4.6-7.2-3.9-5.3-5.4-6-4.4-2.9-6.5-5c-5.5-5.5-7.4-6-23.2-5.6-7.7.1-15.8.2-18 .2-53.4-1.1-53.9-1.1-58.4 2.9-1.4 1.3-3.8 3-5.3 3.7-1.5.8-3.8 3.1-5.2 5.1-2.4 3.6-14.5 16.8-25.5 27.7-3.7 3.7-5.7 5-6.2 4.2-1-1.7-2.1-13.7-1.9-20.1.4-9.9.1-11.5-2.9-14.5-1.6-1.6-3-3.8-3.2-4.8-.6-3-7.8-4.6-23.1-5.2-12.8-.5-13.8-.4-17.2 1.6-2 1.3-3.8 3.2-4.1 4.4-.4 1.2-1.9 3-3.4 3.9-3.3 1.8-4.7 6.2-3.2 9.9.6 1.6.5 3.2-.1 4.4-1 1.7-1.2 1.7-2.8-.5-1.2-1.6-3.2-2.5-6.1-2.9-4.1-.6-4.4-.8-4.1-3.4.2-2.4-.2-3-2.8-4-1.6-.6-3-1.7-3-2.3 0-1.2-7.6-5.4-9.9-5.4-.6 0-2.6-.8-4.4-1.7-3.6-1.9-9.7-3.8-17.2-5.3-2.7-.5-7.5-1.7-10.5-2.6-3.2-.9-9.1-1.5-14-1.5-7.1.1-10.1.7-18.5 3.6-5.5 2-12.1 4.2-14.6 5.1-2.6.8-4.9 2.1-5.3 2.9-.3.8-1.7 1.5-3.1 1.5-1.5 0-2.5.6-2.5 1.4 0 1.9-3.1 2.9-6.3 2.1-2.8-.7-4.8 2.1-2.2 3.1 2.2.9.7 2.4-2.3 2.4-1.9 0-4.2 1.4-7.4 4.5-2.6 2.5-5.3 4.5-6.1 4.5s-1.9 1.1-2.5 2.5-1.6 2.5-2.2 2.5c-.5 0-1 1.1-1 2.4 0 1.4-.4 2.8-1 3.1-.5.3-1 1.4-1 2.3s-1.1 2.7-2.4 4.1c-2.6 2.7-8.1 18-9.2 25.5-.9 5.8-2.2 7.8-4.7 7.4-1.4-.2-2.3-1.3-2.8-3.3-.3-1.7-2.9-7.6-5.7-13.3-3.3-6.5-5.2-11.6-5.2-13.8 0-4.1-1.5-7.4-3.4-7.4-2.1 0-2.8-3-1.5-6.8 1-3 .9-3.7-.4-4.7-.9-.6-3.3-4.8-5.3-9.3-2.2-4.9-4.4-8.4-5.5-8.7-1.1-.4-2.4-1.5-3-2.7q-2.55-4.8-16.2-4.8c-9.2 0-10.3-.6-10.9-5.4-.4-3.3-2.4-4.3-8.3-3.8m180.5 16.6c18.3 4.9 36.4 16.4 43.7 27.6 6 9.3 13.4 29.9 11.6 32.2-.9 1-5.8 1.3-20.5 1.3h-19.3l-.6-6.5c-.6-7.3-1.6-9.5-6.6-15.1-10.2-11.2-37.8-10.2-53.1 2.1-10.1 8.1-14.4 19.5-14.3 38 .1 19.9 9.1 36.4 23.9 43.7 5.4 2.6 6.4 2.8 18.2 2.7 14.7-.1 19-1.6 25.8-8.6 4.3-4.5 7.2-11.6 7.2-18 0-1.5.5-3 1-3.3.6-.4 6.2-.1 12.5.6 8.7.9 12.7.9 17.1 0 4.9-.9 6-.9 7.3.4s1.2 2.5-1.4 10.7c-4.6 14.7-8.1 21.3-15.4 29.1-15.1 16.1-30.9 22.1-57.6 21.9-14.3 0-23-1.6-33.5-5.9-8.4-3.5-13.2-6.8-20.1-14-10.3-10.6-15.7-21-21.1-40.3-3.3-11.7-3.1-31.2.6-44.5 4-14.9 6.6-19.6 14.8-27.9 13.5-13.5 27.3-21 49.2-26.7 8.2-2.2 21.6-1.9 30.6.5m445.5.1c3.9.8 9.4 1.9 12.2 2.5 9.1 1.9 24.1 9.8 33 17.3 11.2 9.6 15 15.2 20.2 30.1 9.2 26 5 56.9-10.5 77.5-17.5 23.3-44.2 33.6-77.9 30.1-6-.6-14.5-2.3-18.8-3.7-9.3-3-21-10.5-26.1-16.7-7.5-9.1-16.5-26.6-19.7-38.1-1-3.4-1.4-10.3-1.3-21.5 0-14.1.4-17.4 2.2-22.5 2.9-8.3 11.7-25.1 15.9-30.2 7.6-9.4 24.2-18.7 40.3-22.6 16.5-4 20.2-4.3 30.5-2.2m-359.3 3.3c6-.3 10.3-1 11.3-1.8 1.3-1.1 1.8-1.1 2.9.1 1 1.1 1.2 7.9.6 33.9-.7 34.5-.5 36.7 3.6 33.9 3-2 18.9-20.1 25.6-29.1 3.4-4.6 10.1-12.4 14.8-17.3 4.8-5 9.9-11.4 11.4-14.2 3.2-6.5 5.3-7.7 10.4-6.3 4.7 1.3 21.3 1.2 27.2-.1 8-1.9 10.5-1.7 10.8.9.3 1.7-1.6 4-7.9 10-14.3 13.3-24.1 23.3-35 35.7-5.9 6.6-12.5 13.9-14.8 16.3-2.2 2.3-4.1 4.6-4.1 5.1s2.1 3.6 4.8 6.9c2.6 3.3 9.2 12.1 14.7 19.6 18.8 25.7 29.9 39.9 37.6 48.2 4.4 4.8 6.9 9.7 5.6 11.1-1.1 1.1-43.9.5-45-.6-.6-.6-2-2.9-3.2-5.1-2.2-4.3-6.2-10.2-17.5-26-9.7-13.7-14.1-22.3-14.9-29.7-.5-5-.9-5.8-2.9-6.1-1.6-.3-2.6.5-4 2.9-2.1 4.1-11.1 13.9-12.7 13.9-.6 0-1.9.6-2.9 1.3-1.7 1.2-1.8 3.1-1.7 20.3.1 10.4.4 21.4.7 24.4.7 7.7-.2 8.7-6 6.5-3.7-1.4-6.3-1.7-13.4-1.1-4.8.3-10.3.9-12.4 1.2-2.9.5-3.8.2-4.5-1.3-.4-1-.6-32.9-.3-70.8.4-41.7.2-71.8-.4-76.2-1.3-9.8-.4-11 6.7-8.1 4.4 1.7 6.7 1.9 14.9 1.6m262.8-1.3c1 1.2.9 2.3-.4 5.4-2.4 6.2-4 51-2.7 78.6.6 12.1 1.1 30.1 1.2 40 0 9.9.4 20.5.8 23.5 1 6.6-.1 9.5-3.2 8.5-6.1-1.8-24-2.8-29.9-1.7-7.3 1.4-7.8 1.1-11.1-6.1-1.3-2.9-6.6-11.7-11.9-19.7-8.6-13.1-15.7-24.5-19.8-31.8-5.1-9-15-27.4-15-27.8 0-1-9.3-16.4-10.6-17.5-2-1.6-4.9-.6-4.8 1.6.1 1.1.7 5.1 1.3 9 .6 3.8 1.3 24.8 1.6 46.5s.6 40.8.7 42.4c.1 3.6-1.8 4.8-6.2 3.9-1.9-.4-9-.8-15.8-.8-14 0-14.6-.4-13.3-7.1.8-3.4.6-125.6-.1-140.9-.3-5.5-.1-6 1.7-5.7 6.7 1.1 27.7 1.3 30.7.3 1.9-.6 4.1-.9 4.9-.6s3.2 3.8 5.3 7.8c2.2 3.9 5.4 9 7.1 11.2 2.8 3.5 9.6 13.7 22 33 1.8 2.7 6.3 9.7 10 15.5 7.2 11.2 12.5 21.1 15.9 29.9 2.5 6.3 4.6 8.2 7.1 6.1 1.4-1.2 1.6-2.6 1-10.3-.4-4.9-.9-26.1-1.1-47.1-.2-20.9-.5-39.9-.7-42.1-.2-3.5 0-4 1.8-3.7 1.1.2 7.2.6 13.5.9 9.4.4 11.9.2 13.5-1.1 2.5-2 4.9-2 6.5-.1m-997.4 2.9c3.8 1 15.5 1.4 46 1.6 22.5.2 42.7.4 44.9.4s5.7-.3 7.7-.8c3.4-.7 3.9-.6 4.7 1.5.5 1.3 1 8.2 1.2 15.4l.4 13-24.1-.4c-18.1-.3-24.3-.1-24.9.9s-.6 31.2 0 49.5c.1 2.7.4 17.7.5 33.2.3 22.8.1 28.5-1.1 29.9-1.1 1.4-2.5 1.5-8.7 1-10.8-1-14.4-2.8-18.9-9.3l-3.8-5.5-.2-43.2c-.3-52.4-.4-54.4-2.3-55.7-.9-.6-9.5-.9-21-.8-20.2.2-24.4-.4-25.4-3.8-.3-1-1-5.6-1.7-10.1-1.3-9.6-.3-15.1 3.4-17.7 1.8-1.4 3.7-1.6 10.2-1.1 4.4.3 10.3 1.2 13.1 2m296 .1c1.3 1.7 1.2 9-.1 46.2-.3 10.8-.2 12.4 1.3 13.2 1 .5 8.6.5 17.7 0 8.8-.5 22-.8 29.2-.7 7.3.1 13.5-.1 13.9-.5 1.3-1.3.4-39.2-1.2-48.5-.9-5.1-1.4-9.9-1.1-10.5.3-.9 5.5-1.2 18.8-1.1l18.4.1-.3 54.9c-.3 65.8-1.1 94.8-2.6 96.9-.9 1.2-4.2 1.5-16.3 1.6-8.4 0-15.7-.2-16.3-.6-1.5-.9-.2-49.2 1.6-56 .8-3.1.9-5.4.3-6-1.5-1.5-59.1-.2-61.8 1.4-.8.5-1.2 10-1.4 30.3-.1 16.3-.5 30-.9 30.3-.5.6-29.4 1-34.3.6-1.2-.1-1.4-150.9-.2-152.8.5-.8 5.4-1.1 17.4-.8 14.3.3 16.9.5 17.9 2m203.5-.4c.5.8.9 2.6.9 4.1 0 2.5 3.8 13.2 13.6 38.3 2.3 6 5.9 15.2 7.9 20.4s4.9 11.9 6.4 15c1.6 3.1 4.2 9.4 5.9 14.1 5.7 16 7.9 20.9 21.2 46.8 5.9 11.3 6.2 12.4 4.7 13.9-1.4 1.4-2.3 1.5-6.9.4-3-.6-11.6-1.3-19.2-1.6-7.6-.2-14.3-.8-14.7-1.2-.8-.8-2.6-6.8-7.1-23.8-2-7.5-2.1-7.5-20.8-6.3-9.1.5-22.9.8-30.7.5-12-.5-14.4-.3-15.5 1-1.4 1.8-8.3 19.6-10.1 26.3l-1.2 4.5-17.8-.2c-9.8-.2-18.3-.5-18.8-.8-1.5-1-1-3.7 2-10.1 3.6-7.6 12.1-32.5 12.1-35.5 0-.4 3.2-7.6 7-15.9 3.9-8.3 8.7-20 10.6-25.8 2-5.9 6.4-16.6 9.9-23.7 5.5-11.1 14.5-35.5 14.5-39 0-2.6 2.8-3 23.6-2.9 17.3.1 21.8.4 22.5 1.5m801.7 2.3c1.3 1.1 3.5 4 4.8 6.2l2.4 4.1.4 56.3c.4 51.7.3 56.7-1.4 62.7-2.2 7.9-4.8 10.8-11.6 13-4.4 1.4-6.2 1.5-10.6.5-2.9-.6-6.9-1.4-8.9-1.7-4.5-.7-8.4-4.8-13.3-14-2.1-3.9-5-8.4-6.5-10-1.6-1.7-5-7.1-7.7-12-2.7-5-5.7-10.4-6.6-12-1-1.7-3.1-5.8-4.8-9.2-1.7-3.3-4.3-7.4-5.8-9-6-6-11.1-13.1-14.6-20-3.3-6.6-6.9-10.4-8.4-8.8-.3.3-.8 19.3-1 42.3-.3 35.1-.6 42-1.8 43.3-.8.9-1.8 3-2.3 4.5-.5 2.3-2.1 3.6-7.1 6.2-7.6 3.8-11.1 4-16.5.9-3.1-1.8-4.1-3-4.8-6.2-.9-4.1-.2-95.1.9-121.8.6-13.7.8-14.8 2.8-15.9 3-1.8 28.5-1.3 32.9.6 2.6 1 4.3 3 7.1 8.2 3.9 7.1 5.6 9.9 18.2 29.3 4.1 6.3 7.4 11.8 7.4 12.2s2.1 3.5 4.6 6.9c2.5 3.5 5.1 7.7 5.7 9.4s2.6 5.1 4.5 7.6c1.8 2.5 6.3 9.3 9.8 15.2 3.6 6 7.1 10.8 7.7 10.8 3.4-.1 3.5-1.5 4.2-44 .4-26.8 1-43.6 1.7-45.5 1.5-4 7.6-11.5 10.1-12.4 2.8-1.1 5.7-.3 8.5 2.3m-1141.3-.9c41.4 0 49.3.6 57.4 4.1 2.9 1.3 5.9 2.4 6.5 2.4 1.4 0 13.5 8.6 15.4 10.9 4.7 5.9 9.2 19.8 9.2 28.7 0 5.7-2.9 14.1-6.8 19.5-3 4.1-8.4 7.7-15.4 10.3-3.9 1.4-4.8 2.2-4.8 4.1s1.5 3.1 8.8 6.7c6.2 3 9.1 5.1 10 7 1.4 3 2.7 13.2 4.1 32.3.8 10.8 1.2 12.5 4 17.3 3.1 5.3 4.1 10.2 2 10.2-.6 0-4.3-1.1-8.1-2.5-5.9-2.1-8.7-2.5-18.3-2.5-10.8 0-11.5-.1-12.7-2.3-.8-1.4-1.4-8.7-1.8-20.8-.6-21.2-.6-21.2-9-24.8-5.3-2.3-19.8-3.8-39.8-4.2-11.8-.3-14.2.5-12.5 4.1.4.8.9 10.3 1 21 .4 18.2.2 19.7-1.6 22.7l-2.1 3.3h-11.9c-13.7 0-16.4-.7-17.9-4.7-.7-1.9-1.3-25.2-1.7-70.1-.3-37-.8-67.9-1.1-68.7-.3-.7 0-2.3.6-3.5 1.1-2 1.6-2.1 4.8-1.4 2.1.5 20.8.9 41.7.9m686.5 29.4c0 2.2.4 4.2.9 4.6.6.3.8 8.4.5 19.9-.4 13.7-.2 20.1.6 21.6.9 1.7.8 3-.4 6.1-1.1 2.8-1.6 7.3-1.6 15.8 0 17.3-1.4 22.4-3.9 14.1-.6-2.2-2.3-4.7-3.6-5.6-1.4-.9-2.5-2.5-2.5-3.5 0-1.4-.7-1.9-2.5-1.9s-2.6-.7-3.1-2.7c-.7-2.4-2.4-4.6-11.4-13.9-1.7-1.6-3-3.6-3-4.2 0-.7-1.8-3.2-4-5.6-4.3-4.7-4.8-6.1-2.5-7 1.8-.7 1.9-2.9.3-5.5-1.5-2.5.4-5.1 3.2-4.4 1.4.4 2 0 2-1.1 0-.9.9-2.4 2.1-3.4 1.1-.9 2.7-2.9 3.4-4.3.8-1.4 2.7-3.2 4.3-3.8 1.6-.7 3.3-2.1 3.8-3.1 1.7-3.5 13.9-16 15.7-16 1.3 0 1.7.9 1.7 3.9m-201.6 11.3c3.1 2 5.5 4.6 6.8 7.2 4 8.4 5.8 11.1 8.7 12.6 1.6.8 4.6 3 6.7 4.8 2.8 2.4 4.4 3.1 5.9 2.6 1.1-.4 6.5-1 12-1.4 9.5-.6 10.2-.5 13.8 1.9 3.4 2.2 3.7 2.7 3.1 5.5-.4 1.7-1.1 3.4-1.7 3.8-.6.3-4.9 1-9.6 1.4-7.1.6-9.1.4-11.5-1-2.7-1.5-2.9-1.5-4.1 0-.9 1.3-2.1 1.6-4.9 1.1-3-.5-3.9-.2-5.1 1.7-.9 1.3-2.6 2.8-4 3.4s-2.5 1.9-2.5 2.7-1.1 2.1-2.5 2.7-2.5 1.5-2.5 2c0 5-7.5 14.6-13.1 16.6-3.6 1.4-16.9-.2-21.6-2.7-6.4-3.2-9.9-7.1-10.6-11.8-.6-3.6-1-4-2.8-3.6-2.5.7-4.9-1.8-4.9-5 0-1.4.5-1.7 2.1-1.2 2 .7 2.1.4 1.6-5.7-.2-3.4-1.2-8.4-2.2-11-1.7-4.6-1.7-4.7.8-10 1.4-2.9 5-7.7 7.9-10.5 6.4-6.3 13.3-9.1 22.9-9.2 5.8-.1 7.1.3 11.3 3.1m-396.2 44.3c0 .5-.5 1.1-1.1 1.3s-1.1-.4-1.1-1.3.5-1.5 1.1-1.3 1.1.8 1.1 1.3m658.8 10c0 .8-.4 1.5-1 1.5-.5 0-1-.7-1-1.5s.5-1.5 1-1.5c.6 0 1 .7 1 1.5"/><path d="M1108 1281.4c-9.8 2.1-19.5 9-25.4 18-4.9 7.5-8.1 22-7.2 32.9 1.3 14.7 5.4 24.5 14 33.5 7.5 7.9 9.9 8.7 27.6 8.7 14.8 0 15.7-.1 20.5-2.6 5-2.7 9.7-7.8 16-17.6 9-14.1 8.6-38.6-.9-55.7-5.7-10.1-12.8-15-25.1-17.2-8.6-1.6-12.4-1.6-19.5 0m23.3 15.4c10.4 4.6 16.1 16.7 15.5 32.5-.4 11.1-3.2 18-10.3 25.6-4.1 4.4-5.3 5.1-11.8 6.5-6.2 1.4-8.2 1.5-14.1.4-6.2-1.2-7.5-1.8-12.2-6.3-7.2-7-9.6-13.7-9.7-27.1 0-9.3.2-10.6 3.2-17.1 4.2-9 10.6-14.6 19.1-16.4 5.3-1.2 15.5-.2 20.3 1.9m-625.7-7.6c-.3 1.3-.6 3.6-.6 5.1 0 3.3-4.8 18.1-8.3 25.7-1.4 3-4 8.4-5.6 12-1.7 3.6-3.8 7.8-4.8 9.3-1.8 2.8-1.8 2.9.6 4.8 1.5 1.2 3.3 1.8 4.5 1.5 3.2-.8 32.1-1 33.3-.3.6.4 2.2-.2 3.4-1.2 2.1-1.8 2.2-2.2 1.1-4.1-.7-1.2-3.3-8.2-5.8-15.6-2.4-7.4-5.2-15.4-6.3-17.7-1-2.3-2.4-6.7-3.1-9.7-.6-3-1.5-6.9-1.9-8.5-.9-4-5.5-4.9-6.5-1.3m5.7 38.5c.9.8-2.2 4.3-3.8 4.3-1.8 0-2.6-2.5-1.2-3.9 1.2-1.2 4-1.5 5-.4m-329.6-43.2c-1.2 1.2-1.4 2.2-.7 4.1 1.3 3.2 1.2 18.9 0 27.4-.5 3.7-.5 6.9 0 7.4.4.4 10 .8 21.2.7 34.5-.3 41.3-3.1 43.8-18.6.6-3.7.4-6-.8-9-3.8-10-6.2-10.8-35.2-11.5-12.9-.4-24.2-1-25.1-1.4-1-.4-2.3-.1-3.2.9m48.8 16c4 4.6 4.2 5.5 1.6 5.5-1.1 0-2.3.9-2.6 2s-1.8 2.3-3.3 2.6-4.2 1.3-6 2.2c-3 1.5-3.5 1.5-4.5.2-.8-1.1-3.4-1.6-8.7-1.8-4.7-.2-8.4-.9-9.9-1.8-2-1.4-2.2-2.1-1.7-5.7 1.2-7.4 1.9-7.6 19.4-7.3l12.4.2zm145 68.8c-.4 1-.5 2.1-.1 2.4 1 1 1.8-.4 1.3-2.4-.4-1.7-.4-1.7-1.2 0"/></g><text x="5" y="15" opacity=".1"> trhacknon</text></svg>
